<svg width="65" height="65" viewBox="0 0 65 65" fill="none" xmlns="http://www.w3.org/2000/svg">
<path d="M32.4994 63.6432C26.3393 63.6432 20.3176 61.8166 15.1957 58.3942C10.0738 54.9719 6.08172 50.1076 3.72437 44.4164C1.36701 38.7253 0.750219 32.4629 1.95199 26.4212C3.15376 20.3795 6.12011 14.8298 10.4759 10.474C14.8318 6.11816 20.3814 3.1518 26.4231 1.95003C32.4648 0.748266 38.7272 1.36506 44.4184 3.72241C50.1095 6.07977 54.9738 10.0718 58.3962 15.1937C61.8185 20.3156 63.6452 26.3373 63.6452 32.4974C63.6345 40.7545 60.3496 48.6703 54.5109 54.509C48.6723 60.3476 40.7565 63.6325 32.4994 63.6432ZM32.4994 2.70574C26.6071 2.70574 20.8472 4.45299 15.948 7.72654C11.0488 11.0001 7.23031 15.6529 4.97545 21.0966C2.72059 26.5403 2.13062 32.5305 3.28013 38.3095C4.42965 44.0885 7.26704 49.3969 11.4335 53.5633C15.5999 57.7297 20.9083 60.5671 26.6873 61.7166C32.4663 62.8662 38.4564 62.2762 43.9001 60.0213C49.3439 57.7665 53.9967 53.948 57.2702 49.0488C60.5438 44.1496 62.291 38.3896 62.291 32.4974C62.2821 24.5989 59.1404 17.0265 53.5554 11.4414C47.9703 5.85634 40.3979 2.7147 32.4994 2.70574Z" fill="#1A1A1A"/>
<path d="M32.5003 63.6432C20.4211 63.6432 10.5898 49.6682 10.5898 32.4974C10.5898 15.3266 20.4211 1.35156 32.5003 1.35156C44.5794 1.35156 54.4107 15.3266 54.4107 32.4974C54.4266 36.6229 53.8404 40.7287 52.6706 44.6849C52.6513 44.7765 52.6132 44.8631 52.5587 44.9392C52.5042 45.0153 52.4346 45.0793 52.3541 45.1272C52.2737 45.175 52.1842 45.2057 52.0913 45.2172C51.9984 45.2287 51.9041 45.2208 51.8144 45.194C51.7247 45.1673 51.6416 45.1222 51.5702 45.0617C51.4988 45.0011 51.4407 44.9264 51.3996 44.8423C51.3586 44.7582 51.3354 44.6665 51.3315 44.573C51.3277 44.4795 51.3433 44.3862 51.3773 44.299C52.5033 40.4667 53.0689 36.4916 53.0565 32.4974C53.0565 16.0714 43.8346 2.70573 32.5003 2.70573C21.1659 2.70573 11.944 16.0714 11.944 32.4974C11.944 48.9234 21.1659 62.2891 32.5003 62.2891C38.9867 62.2891 45.1753 57.7526 49.0482 50.1557C49.1329 50.0014 49.2745 49.8861 49.4429 49.8344C49.6112 49.7827 49.7931 49.7986 49.9499 49.8788C50.1067 49.9589 50.2261 50.097 50.2827 50.2638C50.3394 50.4305 50.3289 50.6128 50.2534 50.7719C46.1435 58.8292 39.5081 63.6432 32.5003 63.6432Z" fill="#1A1A1A"/>
<path d="M32.4995 63.6432C26.5479 63.6432 21.8828 49.9594 21.8828 32.4974C21.8828 15.0354 26.5479 1.35156 32.4995 1.35156C38.451 1.35156 43.0891 14.9677 43.1161 32.3552C43.1161 32.5348 43.0448 32.707 42.9178 32.834C42.7909 32.961 42.6186 33.0323 42.4391 33.0323C42.2595 33.0323 42.0873 32.961 41.9603 32.834C41.8333 32.707 41.762 32.5348 41.762 32.3552C41.7349 14.6224 36.9479 2.70573 32.4995 2.70573C28.051 2.70573 23.237 14.6766 23.237 32.4974C23.237 50.3182 28.024 62.2891 32.4995 62.2891C36.2776 62.2891 39.8594 54.1641 41.2 42.6063C41.2215 42.4267 41.3135 42.263 41.4558 42.1513C41.598 42.0395 41.7788 41.9889 41.9583 42.0104C42.1379 42.032 42.3016 42.124 42.4133 42.2662C42.525 42.4084 42.5757 42.5892 42.5542 42.7688C41.0781 55.4505 37.1307 63.6432 32.4995 63.6432Z" fill="#1A1A1A"/>
<path d="M62.9691 33.1745H42.8665C42.687 33.1745 42.5147 33.1031 42.3878 32.9762C42.2608 32.8492 42.1895 32.677 42.1895 32.4974C42.1895 32.3178 42.2608 32.1456 42.3878 32.0186C42.5147 31.8916 42.687 31.8203 42.8665 31.8203H62.9691C63.1487 31.8203 63.3209 31.8916 63.4479 32.0186C63.5749 32.1456 63.6462 32.3178 63.6462 32.4974C63.6462 32.677 63.5749 32.8492 63.4479 32.9762C63.3209 33.1031 63.1487 33.1745 62.9691 33.1745Z" fill="#1A1A1A"/>
<path d="M33.515 33.1745H2.0306C1.85103 33.1745 1.67881 33.1031 1.55183 32.9762C1.42485 32.8492 1.35352 32.677 1.35352 32.4974C1.35352 32.3178 1.42485 32.1456 1.55183 32.0186C1.67881 31.8916 1.85103 31.8203 2.0306 31.8203H33.515C33.6945 31.8203 33.8668 31.8916 33.9937 32.0186C34.1207 32.1456 34.1921 32.3178 34.1921 32.4974C34.1921 32.677 34.1207 32.8492 33.9937 32.9762C33.8668 33.1031 33.6945 33.1745 33.515 33.1745Z" fill="#1A1A1A"/>
<path d="M4.21057 21.8617C4.08623 21.862 3.96423 21.828 3.85794 21.7635C3.75164 21.699 3.66515 21.6065 3.60796 21.4961C3.56714 21.4166 3.54246 21.3298 3.53535 21.2407C3.52824 21.1516 3.53884 21.062 3.56653 20.977C3.59423 20.892 3.63847 20.8134 3.69672 20.7456C3.75496 20.6778 3.82605 20.6222 3.90588 20.582C12.7666 16.0856 22.5628 13.7422 32.4991 13.7422C42.4354 13.7422 52.2316 16.0856 61.0923 20.582C61.1742 20.6209 61.2474 20.6757 61.3077 20.7434C61.3679 20.811 61.414 20.8901 61.4432 20.9759C61.4723 21.0617 61.484 21.1524 61.4774 21.2428C61.4708 21.3332 61.4462 21.4213 61.405 21.502C61.3637 21.5826 61.3067 21.6542 61.2373 21.7124C61.1679 21.7707 61.0875 21.8144 61.0009 21.841C60.9143 21.8676 60.8232 21.8765 60.7331 21.8673C60.643 21.8581 60.5556 21.8308 60.4762 21.7872C51.8054 17.3871 42.2191 15.094 32.4957 15.094C22.7724 15.094 13.1861 17.3871 4.51525 21.7872C4.42182 21.8379 4.31685 21.8636 4.21057 21.8617Z" fill="#1A1A1A"/>
<path d="M54.2199 47.3977C54.0404 47.4291 53.8557 47.3879 53.7065 47.2831C53.5573 47.1784 53.4558 47.0186 53.4244 46.8391C53.3929 46.6595 53.4341 46.4748 53.5389 46.3256C53.6436 46.1764 53.8034 46.0749 53.983 46.0435C56.2004 45.2191 58.3684 44.2673 60.4762 43.193C60.5556 43.1494 60.643 43.1221 60.7331 43.1129C60.8232 43.1037 60.9143 43.1126 61.0009 43.1392C61.0875 43.1658 61.1679 43.2095 61.2373 43.2678C61.3067 43.326 61.3637 43.3976 61.405 43.4782C61.4462 43.5589 61.4708 43.6471 61.4774 43.7374C61.484 43.8278 61.4723 43.9185 61.4432 44.0043C61.414 44.0901 61.3679 44.1692 61.3077 44.2368C61.2474 44.3045 61.1742 44.3593 61.0923 44.3982C58.9354 45.4941 56.7177 46.4662 54.4501 47.3096C54.3809 47.3557 54.3022 47.3857 54.2199 47.3977Z" fill="#1A1A1A"/>
<path d="M32.4991 51.2849C22.5595 51.2871 12.7608 48.9343 3.90588 44.4193C3.82605 44.3791 3.75496 44.3235 3.69672 44.2557C3.63847 44.1879 3.59423 44.1093 3.56653 44.0243C3.53884 43.9393 3.52824 43.8497 3.53535 43.7606C3.54246 43.6715 3.56714 43.5847 3.60796 43.5052C3.69032 43.3469 3.83183 43.2275 4.00172 43.173C4.17162 43.1185 4.35617 43.1332 4.51525 43.214C17.8459 50.008 33.1932 51.7191 47.6929 48.0281C47.7791 48.0063 47.8688 48.0017 47.9568 48.0146C48.0448 48.0275 48.1295 48.0576 48.2058 48.1032C48.2822 48.1488 48.3489 48.2089 48.402 48.2803C48.4552 48.3516 48.4937 48.4327 48.5155 48.519C48.5373 48.6052 48.5419 48.6949 48.529 48.783C48.5161 48.871 48.486 48.9556 48.4404 49.032C48.3949 49.1084 48.3347 49.175 48.2633 49.2282C48.192 49.2813 48.1109 49.3199 48.0246 49.3417C42.9503 50.6319 37.7349 51.2846 32.4991 51.2849Z" fill="#1A1A1A"/>
<path d="M50.8287 52.3223C50.7396 52.3228 50.6512 52.3057 50.5687 52.272C50.4862 52.2383 50.4112 52.1887 50.3479 52.1259L41.8438 43.6218L39.4266 48.6999C39.3672 48.8261 39.2703 48.931 39.1491 49.0001C39.028 49.0691 38.8884 49.0991 38.7495 49.0858C38.6146 49.078 38.4851 49.03 38.3777 48.9479C38.2703 48.8659 38.1899 48.7535 38.1469 48.6254L31.7011 29.2067C31.6643 29.0897 31.66 28.9649 31.6886 28.8456C31.7172 28.7264 31.7777 28.6172 31.8636 28.5296C31.9511 28.4437 32.0604 28.3833 32.1796 28.3546C32.2989 28.326 32.4237 28.3303 32.5407 28.3671L51.9662 34.84C52.0943 34.883 52.2066 34.9634 52.2887 35.0708C52.3707 35.1782 52.4188 35.3077 52.4266 35.4426C52.4399 35.5815 52.4099 35.7211 52.3408 35.8422C52.2717 35.9634 52.1669 36.0603 52.0407 36.1197L46.9625 38.5437L55.4802 46.9937C55.5437 47.0566 55.5941 47.1315 55.6284 47.214C55.6628 47.2965 55.6805 47.385 55.6805 47.4744C55.6805 47.5638 55.6628 47.6523 55.6284 47.7348C55.5941 47.8173 55.5437 47.8922 55.4802 47.9551L51.3094 52.1327C51.1805 52.257 51.0077 52.3251 50.8287 52.3223ZM41.6474 41.7869C41.8267 41.7894 41.9984 41.8595 42.1282 41.9832L50.8287 50.6905L54.0381 47.4744L45.3646 38.7739C45.288 38.6971 45.231 38.603 45.1984 38.4996C45.1657 38.3962 45.1583 38.2865 45.1769 38.1797C45.1955 38.0728 45.2395 37.972 45.3051 37.8857C45.3708 37.7994 45.4562 37.7302 45.5542 37.6838L49.9823 35.5713L33.4141 30.0598L38.9256 46.6009L41.0381 42.1728C41.0849 42.0759 41.1542 41.9916 41.2402 41.9268C41.3261 41.8621 41.4263 41.8187 41.5323 41.8004L41.6474 41.7869Z" fill="#1A1A1A"/>
</svg>
