<svg width="65" height="66" viewBox="0 0 65 66" fill="none" xmlns="http://www.w3.org/2000/svg">
<path d="M37.2392 56.1602H27.76C27.1058 56.1584 26.4789 55.8973 26.0169 55.434C25.5549 54.9707 25.2955 54.3432 25.2955 53.6889V53.2555C25.2906 51.3394 24.8725 49.4469 24.0698 47.7071C23.267 45.9673 22.0985 44.421 20.6439 43.1738C17.8425 40.7566 15.8464 37.5414 14.9227 33.9585C13.9989 30.3756 14.1917 26.5961 15.4752 23.1258C16.7587 19.6555 19.0716 16.6601 22.1044 14.5405C25.1372 12.4209 28.7451 11.2784 32.4451 11.2657C36.1451 11.2531 39.7607 12.371 42.8079 14.4699C45.855 16.5687 48.1883 19.5483 49.4955 23.0097C50.8026 26.4712 51.0212 30.2494 50.1219 33.8385C49.2227 37.4276 47.2485 40.6563 44.4637 43.0925C42.9945 44.349 41.8114 45.9055 40.9939 47.6573C40.1763 49.4091 39.7434 51.3157 39.7241 53.2488V53.6821C39.725 54.0084 39.6613 54.3316 39.5366 54.6331C39.412 54.9346 39.2289 55.2084 38.9979 55.4388C38.7669 55.6692 38.4925 55.8516 38.1907 55.9754C37.8888 56.0992 37.5655 56.162 37.2392 56.1602ZM32.4996 12.6305H31.9918C28.6093 12.733 25.3367 13.8546 22.6024 15.8485C19.8682 17.8425 17.7999 20.6157 16.6685 23.805C15.5371 26.9943 15.3954 30.4509 16.2618 33.7222C17.1282 36.9934 18.9624 39.9267 21.5241 42.1378C23.1256 43.5118 24.4119 45.215 25.2953 47.1313C26.1787 49.0476 26.6383 51.1319 26.6429 53.242V53.6753C26.6411 53.8232 26.6686 53.9699 26.724 54.107C26.7793 54.2441 26.8613 54.3689 26.9652 54.4741C27.0692 54.5793 27.1929 54.6628 27.3294 54.7198C27.4658 54.7767 27.6122 54.8061 27.76 54.8061H37.2392C37.5343 54.8043 37.8168 54.6858 38.0248 54.4765C38.2329 54.2671 38.3496 53.984 38.3496 53.6889V53.2555C38.3715 51.1273 38.848 49.0283 39.7472 47.0992C40.6464 45.1701 41.9474 43.4555 43.5632 42.0701C46.135 39.8194 47.9591 36.8377 48.7921 33.5231C49.625 30.2085 49.4272 26.7188 48.2249 23.5196C47.0226 20.3204 44.8732 17.564 42.0634 15.6184C39.2536 13.6727 35.9173 12.6304 32.4996 12.6305Z" fill="#1A1A1A"/>
<path d="M36.4816 61.9682H28.5259C27.9758 61.9682 27.4481 61.7502 27.0585 61.3618C26.6688 60.9734 26.4491 60.4465 26.4473 59.8964V55.4818C26.4473 55.3022 26.5186 55.13 26.6456 55.003C26.7726 54.876 26.9448 54.8047 27.1243 54.8047H37.8764C38.056 54.8047 38.2282 54.876 38.3552 55.003C38.4822 55.13 38.5535 55.3022 38.5535 55.4818V59.8964C38.5517 60.4453 38.3329 60.9713 37.9447 61.3594C37.5565 61.7476 37.0306 61.9664 36.4816 61.9682ZM27.8014 56.1589V59.8964C27.8032 60.0873 27.8803 60.2699 28.016 60.4043C28.1517 60.5387 28.3349 60.6141 28.5259 60.6141H36.4816C36.6714 60.6123 36.853 60.5361 36.9872 60.4019C37.1214 60.2677 37.1976 60.0862 37.1993 59.8964V56.1589H27.8014Z" fill="#1A1A1A"/>
<path d="M34.7 56.1612H34.639C34.55 56.1535 34.4633 56.1283 34.3841 56.087C34.3048 56.0457 34.2345 55.9891 34.1772 55.9205C34.1199 55.8519 34.0768 55.7726 34.0503 55.6872C34.0238 55.6019 34.0145 55.5121 34.0229 55.4231L35.377 40.8252C35.4253 40.2755 35.6116 39.7468 35.9187 39.2882L38.3765 35.5914C38.5717 35.3018 38.6869 34.966 38.7107 34.6176C38.7345 34.2693 38.6659 33.9209 38.5119 33.6075C38.3807 33.3196 38.1757 33.0715 37.9177 32.8884C37.6596 32.7053 37.3578 32.5936 37.0427 32.5648C36.9076 32.5512 36.7715 32.5512 36.6364 32.5648C35.6743 32.6917 34.7011 32.4338 33.9281 31.8471C33.5317 31.5374 33.0431 31.3692 32.5401 31.3692C32.037 31.3692 31.5484 31.5374 31.152 31.8471C30.379 32.4338 29.4058 32.6917 28.4437 32.5648C28.3086 32.5512 28.1725 32.5512 28.0375 32.5648C27.7224 32.5936 27.4205 32.7053 27.1625 32.8884C26.9044 33.0715 26.6994 33.3196 26.5682 33.6075C26.4142 33.9209 26.3456 34.2693 26.3694 34.6176C26.3932 34.966 26.5085 35.3018 26.7036 35.5914L29.114 39.2815C29.4211 39.74 29.6074 40.2687 29.6557 40.8184L31.0099 55.4164C31.0182 55.5053 31.0089 55.5951 30.9824 55.6805C30.9559 55.7658 30.9128 55.8451 30.8555 55.9137C30.7982 55.9823 30.7279 56.0389 30.6487 56.0802C30.5694 56.1215 30.4828 56.1467 30.3937 56.1544C30.2162 56.1695 30.0398 56.114 29.9029 55.9999C29.766 55.8858 29.6796 55.7224 29.6625 55.545L28.3083 40.9403C28.2774 40.6144 28.1682 40.3009 27.9901 40.0263L25.5255 36.3362C25.2059 35.8491 25.0175 35.2878 24.9784 34.7066C24.9392 34.1254 25.0507 33.544 25.302 33.0184C25.5354 32.5198 25.8949 32.0907 26.3449 31.7736C26.795 31.4565 27.3201 31.2625 27.8682 31.2106C28.0933 31.1886 28.3201 31.1886 28.5453 31.2106C29.1597 31.2968 29.784 31.1468 30.2921 30.7908C30.9333 30.2934 31.7218 30.0234 32.5333 30.0234C33.3448 30.0234 34.1333 30.2934 34.7744 30.7908C35.2826 31.1468 35.9069 31.2968 36.5213 31.2106C36.7465 31.1886 36.9732 31.1886 37.1984 31.2106C37.7465 31.2625 38.2716 31.4565 38.7216 31.7736C39.1717 32.0907 39.5312 32.5198 39.7645 33.0184C40.0159 33.544 40.1274 34.1254 40.0882 34.7066C40.0491 35.2878 39.8606 35.8491 39.5411 36.3362L37.0765 40.0263C36.8983 40.3009 36.7892 40.6144 36.7583 40.9403L35.4041 55.545C35.3886 55.7186 35.3068 55.8795 35.1756 55.9943C35.0444 56.1091 34.8741 56.1688 34.7 56.1612Z" fill="#1A1A1A"/>
<path d="M33.8008 64.4833H31.2008C30.3555 64.4815 29.5454 64.145 28.9478 63.5473C28.3501 62.9496 28.0135 62.1395 28.0117 61.2943C28.0117 61.1147 28.0831 60.9425 28.21 60.8155C28.337 60.6885 28.5092 60.6172 28.6888 60.6172H36.3128C36.4923 60.6172 36.6646 60.6885 36.7915 60.8155C36.9185 60.9425 36.9898 61.1147 36.9898 61.2943C36.9881 62.1395 36.6515 62.9496 36.0538 63.5473C35.4561 64.145 34.646 64.4815 33.8008 64.4833ZM29.4945 61.9714C29.631 62.3125 29.8664 62.6051 30.1704 62.8114C30.4745 63.0178 30.8333 63.1284 31.2008 63.1292H33.8008C34.1682 63.1284 34.5271 63.0178 34.8311 62.8114C35.1352 62.6051 35.3706 62.3125 35.507 61.9714H29.4945Z" fill="#1A1A1A"/>
<path d="M37.8764 59.0651H27.1243C26.9448 59.0651 26.7726 58.9938 26.6456 58.8668C26.5186 58.7398 26.4473 58.5676 26.4473 58.388C26.4473 58.2084 26.5186 58.0362 26.6456 57.9093C26.7726 57.7823 26.9448 57.7109 27.1243 57.7109H37.8764C38.056 57.7109 38.2282 57.7823 38.3552 57.9093C38.4822 58.0362 38.5535 58.2084 38.5535 58.388C38.5535 58.5676 38.4822 58.7398 38.3552 58.8668C38.2282 58.9938 38.056 59.0651 37.8764 59.0651Z" fill="#1A1A1A"/>
<path d="M32.4993 9.5474C32.3198 9.5474 32.1476 9.47606 32.0206 9.34908C31.8936 9.2221 31.8223 9.04989 31.8223 8.87031V2.86458C31.8223 2.68501 31.8936 2.51279 32.0206 2.38581C32.1476 2.25884 32.3198 2.1875 32.4993 2.1875C32.6789 2.1875 32.8511 2.25884 32.9781 2.38581C33.1051 2.51279 33.1764 2.68501 33.1764 2.86458V8.87031C33.1764 9.04989 33.1051 9.2221 32.9781 9.34908C32.8511 9.47606 32.6789 9.5474 32.4993 9.5474Z" fill="#1A1A1A"/>
<path d="M17.9634 15.5688C17.8743 15.5693 17.786 15.5522 17.7035 15.5185C17.621 15.4848 17.546 15.4352 17.4827 15.3724L13.2374 11.1271C13.1739 11.0642 13.1236 10.9893 13.0892 10.9068C13.0548 10.8243 13.0371 10.7358 13.0371 10.6464C13.0371 10.557 13.0548 10.4685 13.0892 10.386C13.1236 10.3035 13.1739 10.2286 13.2374 10.1656C13.3642 10.0395 13.5359 9.96875 13.7147 9.96875C13.8936 9.96875 14.0652 10.0395 14.1921 10.1656L18.4442 14.4177C18.5703 14.5446 18.6411 14.7162 18.6411 14.8951C18.6411 15.0739 18.5703 15.2456 18.4442 15.3724C18.3809 15.4352 18.3059 15.4848 18.2234 15.5185C18.1409 15.5522 18.0525 15.5693 17.9634 15.5688Z" fill="#1A1A1A"/>
<path d="M11.9445 30.1042H5.9388C5.75923 30.1042 5.58701 30.0328 5.46003 29.9059C5.33305 29.7789 5.26172 29.6067 5.26172 29.4271C5.26172 29.2475 5.33305 29.0753 5.46003 28.9483C5.58701 28.8213 5.75923 28.75 5.9388 28.75H11.9445C12.1241 28.75 12.2963 28.8213 12.4233 28.9483C12.5503 29.0753 12.6216 29.2475 12.6216 29.4271C12.6216 29.6067 12.5503 29.7789 12.4233 29.9059C12.2963 30.0328 12.1241 30.1042 11.9445 30.1042Z" fill="#1A1A1A"/>
<path d="M13.7186 48.906C13.6295 48.9065 13.5412 48.8894 13.4587 48.8558C13.3762 48.8221 13.3012 48.7724 13.2379 48.7097C13.1118 48.5828 13.041 48.4112 13.041 48.2323C13.041 48.0534 13.1118 47.8818 13.2379 47.755L17.4832 43.4893C17.5462 43.4259 17.621 43.3755 17.7036 43.3411C17.7861 43.3068 17.8746 43.2891 17.9639 43.2891C18.0533 43.2891 18.1418 43.3068 18.2243 43.3411C18.3068 43.3755 18.3817 43.4259 18.4447 43.4893C18.5708 43.6162 18.6416 43.7878 18.6416 43.9667C18.6416 44.1456 18.5708 44.3172 18.4447 44.444L14.2197 48.6893C14.1558 48.7583 14.0782 48.8131 13.992 48.8504C13.9057 48.8877 13.8126 48.9066 13.7186 48.906Z" fill="#1A1A1A"/>
<path d="M47.037 15.5688C46.9479 15.5693 46.8595 15.5522 46.7771 15.5185C46.6946 15.4848 46.6195 15.4352 46.5563 15.3724C46.4302 15.2456 46.3594 15.0739 46.3594 14.8951C46.3594 14.7162 46.4302 14.5446 46.5563 14.4177L50.7813 10.1656C50.9081 10.0395 51.0797 9.96875 51.2586 9.96875C51.4375 9.96875 51.6091 10.0395 51.736 10.1656C51.7994 10.2286 51.8498 10.3035 51.8842 10.386C51.9185 10.4685 51.9362 10.557 51.9362 10.6464C51.9362 10.7358 51.9185 10.8243 51.8842 10.9068C51.8498 10.9893 51.7994 11.0642 51.736 11.1271L47.4906 15.3724C47.3696 15.4927 47.2076 15.5628 47.037 15.5688Z" fill="#1A1A1A"/>
<path d="M59.0617 30.1042H53.056C52.8764 30.1042 52.7042 30.0328 52.5772 29.9059C52.4502 29.7789 52.3789 29.6067 52.3789 29.4271C52.3789 29.2475 52.4502 29.0753 52.5772 28.9483C52.7042 28.8213 52.8764 28.75 53.056 28.75H59.0617C59.2413 28.75 59.4135 28.8213 59.5405 28.9483C59.6675 29.0753 59.7388 29.2475 59.7388 29.4271C59.7388 29.6067 59.6675 29.7789 59.5405 29.9059C59.4135 30.0328 59.2413 30.1042 59.0617 30.1042Z" fill="#1A1A1A"/>
<path d="M51.2823 48.9091C51.1047 48.9084 50.9345 48.8379 50.8083 48.7128L46.5563 44.4675C46.4302 44.3406 46.3594 44.169 46.3594 43.9901C46.3594 43.8112 46.4302 43.6396 46.5563 43.5128C46.6192 43.4493 46.6941 43.3989 46.7766 43.3646C46.8591 43.3302 46.9476 43.3125 47.037 43.3125C47.1264 43.3125 47.2149 43.3302 47.2974 43.3646C47.3799 43.3989 47.4548 43.4493 47.5177 43.5128L51.763 47.7581C51.8891 47.885 51.9599 48.0566 51.9599 48.2354C51.9599 48.4143 51.8891 48.5859 51.763 48.7128C51.6998 48.7755 51.6247 48.8252 51.5422 48.8589C51.4598 48.8926 51.3714 48.9096 51.2823 48.9091Z" fill="#1A1A1A"/>
</svg>
