<svg width="65" height="66" viewBox="0 0 65 66" fill="none" xmlns="http://www.w3.org/2000/svg">
<path d="M55.7035 56.2589C55.5531 56.2565 55.4078 56.204 55.2905 56.1099L41.7895 45.588H14.0832C12.1767 45.5862 10.3488 44.8281 9.00064 43.48C7.65253 42.1318 6.89437 40.3039 6.89258 38.3974V12.9797C6.89616 11.0737 7.65489 9.24683 9.00262 7.8991C10.3503 6.55137 12.1772 5.79264 14.0832 5.78906H56.4551C58.3616 5.79086 60.1895 6.54901 61.5376 7.89713C62.8858 9.24524 63.6439 11.0732 63.6457 12.9797V38.3974C63.6439 40.3039 62.8858 42.1318 61.5376 43.48C60.1895 44.8281 58.3616 45.5862 56.4551 45.588H56.3806V55.5818C56.3796 55.7075 56.3436 55.8305 56.2766 55.9369C56.2096 56.0434 56.1144 56.129 56.0014 56.1844C55.9091 56.2317 55.8072 56.2572 55.7035 56.2589ZM14.0832 7.14323C12.5358 7.14502 11.0523 7.76051 9.95818 8.85467C8.86402 9.94883 8.24854 11.4323 8.24674 12.9797V38.3974C8.24854 39.9448 8.86402 41.4283 9.95818 42.5224C11.0523 43.6166 12.5358 44.2321 14.0832 44.2339H42.0264C42.176 44.2343 42.3213 44.2843 42.4395 44.376L55.0264 54.1937V44.9109C55.0264 44.7314 55.0978 44.5591 55.2247 44.4322C55.3517 44.3052 55.5239 44.2339 55.7035 44.2339H56.4551C58.0024 44.2321 59.4859 43.6166 60.5801 42.5224C61.6743 41.4283 62.2897 39.9448 62.2915 38.3974V12.9797C62.2897 11.4323 61.6743 9.94883 60.5801 8.85467C59.4859 7.76051 58.0024 7.14502 56.4551 7.14323H14.0832Z" fill="white"/>
<path d="M9.29571 60.8803C9.19287 60.878 9.09154 60.8549 8.9978 60.8126C8.88384 60.7567 8.78787 60.67 8.72083 60.5623C8.65379 60.4545 8.61838 60.3301 8.61863 60.2032V50.2162H8.55092C6.6426 50.2144 4.81296 49.4556 3.46357 48.1062C2.11419 46.7568 1.35532 44.9271 1.35353 43.0188V17.6011C1.35045 15.8292 2.00418 14.119 3.18842 12.801C4.37266 11.4829 6.00337 10.6506 7.76551 10.4647C7.85442 10.4553 7.94431 10.4636 8.03003 10.489C8.11575 10.5144 8.19562 10.5564 8.2651 10.6127C8.33457 10.669 8.39228 10.7384 8.43494 10.817C8.47759 10.8955 8.50435 10.9817 8.51368 11.0706C8.52302 11.1596 8.51475 11.2494 8.48935 11.3352C8.46395 11.4209 8.42191 11.5008 8.36564 11.5702C8.30937 11.6397 8.23996 11.6974 8.16139 11.7401C8.08281 11.7827 7.99661 11.8095 7.90769 11.8188C6.48011 11.9709 5.15922 12.6456 4.19922 13.7131C3.23923 14.7806 2.70797 16.1655 2.70769 17.6011V43.0188C2.70949 44.568 3.32568 46.0532 4.42111 47.1486C5.51654 48.2441 7.00175 48.8603 8.55092 48.8621H9.29571C9.47529 48.8621 9.64751 48.9334 9.77448 49.0604C9.90146 49.1873 9.9728 49.3596 9.9728 49.5391V58.8152L22.553 49.0042C22.673 48.9111 22.8209 48.861 22.9728 48.8621H47.9436C48.1232 48.8621 48.2954 48.9334 48.4224 49.0604C48.5494 49.1873 48.6207 49.3596 48.6207 49.5391C48.6207 49.7187 48.5494 49.8909 48.4224 50.0179C48.2954 50.1449 48.1232 50.2162 47.9436 50.2162H23.203L9.71551 60.7381C9.59549 60.8312 9.44763 60.8813 9.29571 60.8803Z" fill="white"/>
<path d="M27.7598 37.4376H24.8483C24.194 37.4377 23.5665 37.1782 23.1032 36.7162C22.6399 36.2542 22.3787 35.6273 22.377 34.9731V23.8554C22.3787 23.2011 22.6399 22.5742 23.1032 22.1122C23.5665 21.6502 24.194 21.3908 24.8483 21.3908H27.7598C28.086 21.3872 28.4097 21.4483 28.7123 21.5704C29.0148 21.6926 29.2901 21.8735 29.5224 22.1026C29.7547 22.3317 29.9393 22.6046 30.0656 22.9054C30.1919 23.2062 30.2573 23.5291 30.2582 23.8554V34.9731C30.2573 35.2993 30.1919 35.6222 30.0656 35.923C29.9393 36.2239 29.7547 36.4967 29.5224 36.7258C29.2901 36.955 29.0148 37.1358 28.7123 37.258C28.4097 37.3802 28.086 37.4412 27.7598 37.4376ZM24.8483 22.7179C24.6996 22.7169 24.5522 22.7458 24.4149 22.8029C24.2776 22.86 24.1532 22.9441 24.049 23.0502C23.9448 23.1563 23.863 23.2822 23.8084 23.4205C23.7538 23.5588 23.7275 23.7067 23.7311 23.8554V34.9731C23.7311 35.1195 23.7601 35.2644 23.8163 35.3996C23.8725 35.5347 23.9549 35.6575 24.0587 35.7607C24.1626 35.8639 24.2858 35.9455 24.4213 36.0009C24.5568 36.0563 24.7019 36.0844 24.8483 36.0835H27.7598C27.9062 36.0844 28.0513 36.0563 28.1868 36.0009C28.3223 35.9455 28.4455 35.8639 28.5493 35.7607C28.6532 35.6575 28.7356 35.5347 28.7918 35.3996C28.848 35.2644 28.877 35.1195 28.877 34.9731V23.8554C28.8806 23.7067 28.8543 23.5588 28.7997 23.4205C28.7451 23.2822 28.6633 23.1563 28.5591 23.0502C28.4549 22.9441 28.3305 22.86 28.1931 22.8029C28.0558 22.7458 27.9085 22.7169 27.7598 22.7179H24.8483Z" fill="white"/>
<path d="M43.3337 38.4382C40.1311 38.4382 34.0509 38.0049 29.3045 35.4929C29.15 35.407 29.0351 35.2641 28.9846 35.0946C28.9341 34.9252 28.9518 34.7427 29.034 34.5862C29.1163 34.4296 29.2565 34.3115 29.4247 34.257C29.5929 34.2025 29.7758 34.2159 29.9342 34.2945C34.3894 36.6711 40.2259 37.0638 43.3337 37.0841C43.8929 37.0821 44.4316 36.8737 44.8465 36.4988C45.2614 36.1239 45.5232 35.6089 45.5816 35.0528L46.8004 24.8966C46.8397 24.5765 46.8106 24.2517 46.7149 23.9438C46.6191 23.6358 46.4591 23.3517 46.2452 23.1103C46.0314 22.869 45.7686 22.6758 45.4745 22.5437C45.1803 22.4116 44.8614 22.3435 44.5389 22.344H37.5853C37.4863 22.345 37.3884 22.3243 37.2983 22.2833C37.2082 22.2424 37.1282 22.1822 37.0639 22.107C37.0008 22.0318 36.9548 21.9439 36.9291 21.8492C36.9034 21.7545 36.8985 21.6553 36.9149 21.5586C36.9149 21.369 37.2873 20.1096 37.8358 18.1731C38.005 16.4533 37.741 15.2414 37.0707 14.6658C36.6656 14.3542 36.1578 14.2067 35.6488 14.2528C35.6738 16.198 35.1396 18.1095 34.1097 19.7599C33.0799 21.4103 31.5977 22.7303 29.8394 23.5627C29.7568 23.5969 29.6682 23.6144 29.5787 23.6142C29.4893 23.614 29.4008 23.5961 29.3183 23.5614C29.2358 23.5268 29.161 23.4762 29.0982 23.4125C29.0354 23.3488 28.9859 23.2733 28.9524 23.1903C28.8851 23.025 28.8857 22.8398 28.9541 22.675C29.0226 22.5102 29.1534 22.379 29.3181 22.3101C30.9259 21.5552 32.2637 20.3254 33.1511 18.7867C34.0385 17.248 34.4329 15.4742 34.2811 13.7044C34.2755 13.5524 34.3212 13.403 34.4108 13.2802C34.5005 13.1573 34.6289 13.0683 34.7754 13.0273C35.3161 12.8949 35.8799 12.8871 36.4241 13.0044C36.9683 13.1217 37.4788 13.361 37.917 13.7044C38.9733 14.5981 39.3931 16.1961 39.1561 18.444V18.5591C38.804 19.7914 38.5873 20.5903 38.479 21.0643H44.5728C45.0861 21.0646 45.5935 21.1735 46.0617 21.384C46.5299 21.5945 46.9482 21.9017 47.2891 22.2855C47.63 22.6692 47.8858 23.1208 48.0396 23.6106C48.1934 24.1003 48.2418 24.617 48.1816 25.1268L46.9629 35.283C46.8486 36.1618 46.4162 36.9683 45.7474 37.5497C45.0786 38.1312 44.2199 38.4473 43.3337 38.4382Z" fill="white"/>
</svg>
