<svg width="65" height="66" viewBox="0 0 65 66" fill="none" xmlns="http://www.w3.org/2000/svg">
<path d="M35.4107 63.737H8.8013C8.20823 63.737 7.62097 63.6202 7.07305 63.3932C6.52512 63.1663 6.02727 62.8336 5.60791 62.4142C5.18854 61.9949 4.85589 61.497 4.62893 60.9491C4.40197 60.4012 4.28516 59.8139 4.28516 59.2209V5.96148C4.28516 4.76372 4.76096 3.61502 5.60791 2.76808C6.45485 1.92114 7.60355 1.44533 8.8013 1.44533H35.4107C36.0052 1.44355 36.5943 1.559 37.1441 1.78508C37.694 2.01116 38.1939 2.34342 38.6152 2.76288C39.0366 3.18233 39.3711 3.68073 39.5996 4.22958C39.8282 4.77843 39.9462 5.36695 39.9471 5.96148V59.2209C39.9462 59.8154 39.8282 60.4039 39.5996 60.9527C39.3711 61.5016 39.0366 62 38.6152 62.4195C38.1939 62.8389 37.694 63.1712 37.1441 63.3973C36.5943 63.6233 36.0052 63.7388 35.4107 63.737ZM8.8013 2.7995C7.96387 2.80129 7.16134 3.13522 6.56982 3.72801C5.9783 4.3208 5.64609 5.12404 5.64609 5.96148V59.2209C5.64609 60.0583 5.9783 60.8615 6.56982 61.4543C7.16134 62.0471 7.96387 62.381 8.8013 62.3828H35.4107C35.8274 62.3846 36.2403 62.3042 36.6259 62.1462C37.0115 61.9881 37.3621 61.7556 37.6577 61.4619C37.9533 61.1682 38.188 60.8191 38.3485 60.4345C38.509 60.05 38.5921 59.6376 38.593 59.2209V5.96148C38.5921 5.54478 38.509 5.13235 38.3485 4.7478C38.188 4.36324 37.9533 4.01412 37.6577 3.72041C37.3621 3.42671 37.0115 3.19419 36.6259 3.03616C36.2403 2.87814 35.8274 2.79772 35.4107 2.7995H8.8013Z" fill="#EA4723"/>
<path d="M27.8205 5.70417H16.3981C15.8968 5.70261 15.4077 5.54905 14.9955 5.26376C14.5833 4.97848 14.2673 4.57487 14.0892 4.10625L13.4121 2.35937C13.3809 2.25295 13.3763 2.14049 13.3988 2.03187C13.4212 1.92325 13.47 1.82181 13.5408 1.73646C13.5996 1.6513 13.6772 1.58078 13.7676 1.53031C13.858 1.47983 13.9588 1.45076 14.0621 1.44531H30.1496C30.2588 1.44549 30.3663 1.47206 30.463 1.52276C30.5596 1.57345 30.6426 1.64677 30.7048 1.73646C30.7677 1.826 30.8079 1.92944 30.8221 2.03792C30.8362 2.14641 30.8239 2.25671 30.7861 2.35937L30.109 4.10625C29.9322 4.57166 29.6193 4.97303 29.2111 5.25805C28.8029 5.54307 28.3183 5.69853 27.8205 5.70417ZM15.0439 2.79948L15.3554 3.63229C15.437 3.84281 15.5801 4.02388 15.7661 4.15189C15.9521 4.27991 16.1723 4.34894 16.3981 4.35H27.8205C28.0455 4.34945 28.2651 4.28052 28.4501 4.15235C28.6351 4.02418 28.7768 3.84281 28.8564 3.63229L29.1746 2.79948H15.0439Z" fill="#EA4723"/>
<path d="M29.4193 61.2214H14.7943C14.6147 61.2214 14.4425 61.15 14.3155 61.023C14.1885 60.8961 14.1172 60.7238 14.1172 60.5443C14.1172 60.3647 14.1885 60.1925 14.3155 60.0655C14.4425 59.9385 14.6147 59.8672 14.7943 59.8672H29.4193C29.5988 59.8672 29.7711 59.9385 29.898 60.0655C30.025 60.1925 30.0964 60.3647 30.0964 60.5443C30.0964 60.7238 30.025 60.8961 29.898 61.023C29.7711 61.15 29.5988 61.2214 29.4193 61.2214Z" fill="#EA4723"/>
<path d="M31.4837 42.5948H14.3197C14.1401 42.5948 13.9679 42.5235 13.8409 42.3965C13.7139 42.2695 13.6426 42.0973 13.6426 41.9177C13.6471 40.4094 14.1424 38.9435 15.0536 37.7415C15.9648 36.5396 17.2425 35.6668 18.6936 35.2552L19.3707 35.0656C21.6775 34.4156 24.1191 34.4156 26.4259 35.0656L27.103 35.2552C28.5559 35.6646 29.8357 36.5365 30.7484 37.7388C31.6612 38.9411 32.157 40.4082 32.1608 41.9177C32.1608 42.0973 32.0895 42.2695 31.9625 42.3965C31.8355 42.5235 31.6633 42.5948 31.4837 42.5948ZM15.0374 41.2406H30.7592C30.6229 40.1511 30.1688 39.1258 29.4535 38.2926C28.7383 37.4594 27.7937 36.8551 26.7374 36.5552L26.0603 36.3656C23.9893 35.7901 21.8006 35.7901 19.7296 36.3656L19.0525 36.5552C17.9974 36.8563 17.0542 37.461 16.3403 38.2941C15.6264 39.1272 15.1733 40.1519 15.0374 41.2406Z" fill="#EA4723"/>
<path d="M22.8996 33.5266C21.6126 33.5248 20.3788 33.0127 19.4688 32.1027C18.5588 31.1926 18.0467 29.9589 18.0449 28.6719V23.2552C18.0449 23.0756 18.1163 22.9034 18.2432 22.7764C18.3702 22.6495 18.5424 22.5781 18.722 22.5781H23.2991C23.8859 22.579 24.4669 22.6955 25.0087 22.9209C25.5505 23.1463 26.0427 23.4762 26.457 23.8918C26.8713 24.3074 27.1997 24.8005 27.4235 25.343C27.6473 25.8855 27.762 26.4668 27.7611 27.0536V28.6719C27.7593 29.96 27.2463 31.1948 26.3348 32.1051C25.4233 33.0153 24.1878 33.5266 22.8996 33.5266ZM19.3991 23.9458V28.6854C19.4388 29.5881 19.8253 30.4406 20.478 31.0653C21.1308 31.69 21.9995 32.0386 22.903 32.0386C23.8065 32.0386 24.6752 31.69 25.3279 31.0653C25.9807 30.4406 26.3672 29.5881 26.4069 28.6854V27.0536C26.4051 26.23 26.0771 25.4405 25.4947 24.8581C24.9122 24.2756 24.1228 23.9476 23.2991 23.9458H19.3991Z" fill="#EA4723"/>
<path d="M54.0862 16.0963C53.3089 16.0977 52.5487 15.8683 51.9019 15.4373C51.255 15.0063 50.7506 14.3931 50.4526 13.6752C50.1545 12.9574 50.0762 12.1672 50.2275 11.4048C50.3788 10.6424 50.7529 9.94203 51.3026 9.39241C51.8522 8.84279 52.5525 8.46863 53.315 8.31732C54.0774 8.16601 54.8675 8.24435 55.5854 8.54242C56.3032 8.84049 56.9165 9.34488 57.3475 9.99172C57.7785 10.6386 58.0078 11.3988 58.0065 12.176C58.0047 13.2152 57.5911 14.2113 56.8563 14.9461C56.1215 15.681 55.1254 16.0946 54.0862 16.0963ZM54.0862 9.60312C53.577 9.60178 53.0789 9.75154 52.6549 10.0334C52.2309 10.3153 51.9001 10.7167 51.7043 11.1867C51.5085 11.6567 51.4566 12.1743 51.5551 12.6738C51.6536 13.1734 51.8981 13.6325 52.2577 13.993C52.6173 14.3535 53.0757 14.5992 53.575 14.699C54.0743 14.7988 54.5919 14.7483 55.0625 14.5537C55.533 14.3592 55.9352 14.0294 56.2183 13.6062C56.5013 13.1829 56.6523 12.6852 56.6523 12.176C56.6559 11.8365 56.5922 11.4995 56.465 11.1847C56.3377 10.8698 56.1493 10.5833 55.9108 10.3416C55.6722 10.0999 55.3882 9.90779 55.075 9.7764C54.7619 9.64501 54.4258 9.57691 54.0862 9.57604V9.60312Z" fill="#EA4723"/>
<path d="M60.0308 20.9444H48.1344C48.035 20.9446 47.9367 20.9228 47.8466 20.8807C47.7565 20.8386 47.6768 20.7771 47.6131 20.7007C47.5483 20.6226 47.5019 20.5309 47.4772 20.4325C47.4526 20.334 47.4505 20.2313 47.4709 20.1319C47.8033 18.6259 48.6398 17.2786 49.8421 16.3127C51.0444 15.3468 52.5404 14.8203 54.0826 14.8203C55.6248 14.8203 57.1208 15.3468 58.3231 16.3127C59.5254 17.2786 60.362 18.6259 60.6943 20.1319C60.7148 20.2313 60.7126 20.334 60.688 20.4325C60.6634 20.5309 60.617 20.6226 60.5522 20.7007C60.4885 20.7771 60.4088 20.8386 60.3187 20.8807C60.2286 20.9228 60.1303 20.9446 60.0308 20.9444ZM49.035 19.5902H59.1303C58.7344 18.5735 58.0408 17.6999 57.1401 17.084C56.2394 16.4682 55.1737 16.1386 54.0826 16.1386C52.9915 16.1386 51.9258 16.4682 51.0252 17.084C50.1245 17.6999 49.4308 18.5735 49.035 19.5902Z" fill="#EA4723"/>
<path d="M54.0862 34.0885C53.3089 34.0899 52.5487 33.8605 51.9019 33.4295C51.255 32.9985 50.7506 32.3853 50.4526 31.6674C50.1545 30.9496 50.0762 30.1594 50.2275 29.397C50.3788 28.6346 50.7529 27.9342 51.3026 27.3846C51.8522 26.835 52.5525 26.4608 53.315 26.3095C54.0774 26.1582 54.8675 26.2365 55.5854 26.5346C56.3032 26.8327 56.9165 27.3371 57.3475 27.9839C57.7785 28.6308 58.0078 29.3909 58.0065 30.1682C58.0047 31.2074 57.5911 32.2035 56.8563 32.9383C56.1215 33.6731 55.1254 34.0867 54.0862 34.0885ZM54.0862 27.5953C53.577 27.594 53.0789 27.7437 52.6549 28.0256C52.2309 28.3075 51.9001 28.7089 51.7043 29.1789C51.5085 29.6489 51.4566 30.1665 51.5551 30.666C51.6536 31.1656 51.8981 31.6246 52.2577 31.9851C52.6173 32.3457 53.0757 32.5914 53.575 32.6912C54.0743 32.791 54.5919 32.7405 55.0625 32.5459C55.533 32.3514 55.9352 32.0216 56.2183 31.5984C56.5013 31.1751 56.6523 30.6774 56.6523 30.1682C56.6523 29.487 56.3822 28.8336 55.9011 28.3513C55.4201 27.869 54.7674 27.5971 54.0862 27.5953Z" fill="#EA4723"/>
<path d="M60.0305 38.9444H48.1341C48.0326 38.9465 47.9319 38.9257 47.8395 38.8835C47.7471 38.8414 47.6653 38.779 47.6003 38.7009C47.5353 38.6229 47.4886 38.5312 47.4638 38.4327C47.4391 38.3342 47.4367 38.2314 47.4571 38.1319C47.7894 36.6259 48.626 35.2786 49.8283 34.3127C51.0306 33.3468 52.5266 32.8203 54.0688 32.8203C55.611 32.8203 57.107 33.3468 58.3093 34.3127C59.5116 35.2786 60.3481 36.6259 60.6805 38.1319C60.7008 38.2314 60.6985 38.3342 60.6737 38.4327C60.6489 38.5312 60.6023 38.6229 60.5373 38.7009C60.4723 38.779 60.3905 38.8414 60.2981 38.8835C60.2057 38.9257 60.105 38.9465 60.0034 38.9444H60.0305ZM49.0347 37.5902H59.13C58.7342 36.5735 58.0405 35.6999 57.1398 35.084C56.2391 34.4682 55.1734 34.1386 54.0823 34.1386C52.9912 34.1386 51.9255 34.4682 51.0249 35.084C50.1242 35.6999 49.4305 36.5735 49.0347 37.5902Z" fill="#EA4723"/>
<path d="M54.0863 52.0906C53.311 52.0906 52.553 51.8607 51.9083 51.4299C51.2636 50.9992 50.7612 50.3869 50.4644 49.6706C50.1677 48.9542 50.0901 48.166 50.2413 47.4055C50.3926 46.645 50.766 45.9465 51.3142 45.3982C51.8625 44.85 52.561 44.4766 53.3215 44.3253C54.082 44.1741 54.8702 44.2517 55.5866 44.5484C56.3029 44.8451 56.9152 45.3476 57.3459 45.9923C57.7767 46.637 58.0066 47.395 58.0066 48.1703C58.0048 49.2095 57.5912 50.2056 56.8564 50.9404C56.1216 51.6752 55.1255 52.0888 54.0863 52.0906ZM54.0863 45.6042C53.5788 45.6042 53.0827 45.7547 52.6607 46.0366C52.2387 46.3186 51.9097 46.7194 51.7155 47.1883C51.5213 47.6572 51.4705 48.1732 51.5695 48.6709C51.6685 49.1687 51.9129 49.626 52.2718 49.9849C52.6307 50.3437 53.0879 50.5881 53.5857 50.6872C54.0835 50.7862 54.5994 50.7354 55.0683 50.5411C55.5373 50.3469 55.938 50.018 56.22 49.596C56.502 49.174 56.6525 48.6779 56.6525 48.1703C56.6507 47.4903 56.3798 46.8386 55.8989 46.3578C55.418 45.8769 54.7664 45.606 54.0863 45.6042Z" fill="#EA4723"/>
<path d="M60.0305 56.9678H48.1341C48.0326 56.9699 47.9319 56.9491 47.8395 56.9069C47.7471 56.8648 47.6653 56.8024 47.6003 56.7244C47.5353 56.6463 47.4886 56.5547 47.4638 56.4562C47.4391 56.3577 47.4367 56.2549 47.4571 56.1554C47.7894 54.6494 48.626 53.302 49.8283 52.3361C51.0306 51.3702 52.5266 50.8438 54.0688 50.8438C55.611 50.8438 57.107 51.3702 58.3093 52.3361C59.5116 53.302 60.3481 54.6494 60.6805 56.1554C60.7008 56.2549 60.6985 56.3577 60.6737 56.4562C60.6489 56.5547 60.6023 56.6463 60.5373 56.7244C60.4723 56.8024 60.3905 56.8648 60.2981 56.9069C60.2057 56.9491 60.105 56.9699 60.0034 56.9678H60.0305ZM49.0347 55.6137H59.13C58.7342 54.5969 58.0405 53.7234 57.1398 53.1075C56.2391 52.4916 55.1734 52.1621 54.0823 52.1621C52.9912 52.1621 51.9255 52.4916 51.0249 53.1075C50.1242 53.7234 49.4305 54.5969 49.0347 55.6137Z" fill="#EA4723"/>
<path d="M47.0841 33.2682H33.7591C33.5795 33.2682 33.4073 33.1969 33.2803 33.0699C33.1534 32.9429 33.082 32.7707 33.082 32.5911C33.082 32.4116 33.1534 32.2394 33.2803 32.1124C33.4073 31.9854 33.5795 31.9141 33.7591 31.9141H47.0841C47.2637 31.9141 47.4359 31.9854 47.5629 32.1124C47.6899 32.2394 47.7612 32.4116 47.7612 32.5911C47.7612 32.7707 47.6899 32.9429 47.5629 33.0699C47.4359 33.1969 47.2637 33.2682 47.0841 33.2682Z" fill="#EA4723"/>
<path d="M47.084 53.8318H43.2923C43.1127 53.8318 42.9405 53.7604 42.8135 53.6335C42.6866 53.5065 42.6152 53.3343 42.6152 53.1547V12.0286C42.6152 11.8491 42.6866 11.6769 42.8135 11.5499C42.9405 11.4229 43.1127 11.3516 43.2923 11.3516H47.084C47.2636 11.3516 47.4358 11.4229 47.5628 11.5499C47.6897 11.6769 47.7611 11.8491 47.7611 12.0286C47.7611 12.2082 47.6897 12.3804 47.5628 12.5074C47.4358 12.6344 47.2636 12.7057 47.084 12.7057H43.9694V52.4776H47.084C47.2636 52.4776 47.4358 52.5489 47.5628 52.6759C47.6897 52.8029 47.7611 52.9751 47.7611 53.1547C47.7611 53.3343 47.6897 53.5065 47.5628 53.6335C47.4358 53.7604 47.2636 53.8318 47.084 53.8318Z" fill="#EA4723"/>
</svg>
