<svg width="65" height="65" viewBox="0 0 65 65" fill="none" xmlns="http://www.w3.org/2000/svg">
<path d="M23.5296 63.6432H2.9056C2.72603 63.6432 2.55381 63.5719 2.42683 63.4449C2.29985 63.3179 2.22852 63.1457 2.22852 62.9661V2.02865C2.22852 1.84907 2.29985 1.67685 2.42683 1.54988C2.55381 1.4229 2.72603 1.35156 2.9056 1.35156H49.7327C49.9123 1.35156 50.0845 1.4229 50.2114 1.54988C50.3384 1.67685 50.4098 1.84907 50.4098 2.02865V27.988C50.4098 28.1676 50.3384 28.3398 50.2114 28.4668C50.0845 28.5938 49.9123 28.6651 49.7327 28.6651C49.5531 28.6651 49.3809 28.5938 49.2539 28.4668C49.1269 28.3398 49.0556 28.1676 49.0556 27.988V2.70573H3.58268V62.2891H23.5296C23.7091 62.2891 23.8813 62.3604 24.0083 62.4874C24.1353 62.6144 24.2066 62.7866 24.2066 62.9661C24.2066 63.1457 24.1353 63.3179 24.0083 63.4449C23.8813 63.5719 23.7091 63.6432 23.5296 63.6432Z" fill="white"/>
<path d="M23.528 10.5182H8.63216C8.45259 10.5182 8.28037 10.4469 8.15339 10.3199C8.02641 10.1929 7.95508 10.0207 7.95508 9.84115C7.95508 9.66157 8.02641 9.48935 8.15339 9.36238C8.28037 9.2354 8.45259 9.16406 8.63216 9.16406H23.528C23.7076 9.16406 23.8798 9.2354 24.0068 9.36238C24.1337 9.48935 24.2051 9.66157 24.2051 9.84115C24.2051 10.0207 24.1337 10.1929 24.0068 10.3199C23.8798 10.4469 23.7076 10.5182 23.528 10.5182Z" fill="white"/>
<path d="M44.0098 18.0729H8.63216C8.45259 18.0729 8.28037 18.0016 8.15339 17.8746C8.02641 17.7476 7.95508 17.5754 7.95508 17.3958C7.95508 17.2163 8.02641 17.044 8.15339 16.9171C8.28037 16.7901 8.45259 16.7188 8.63216 16.7188H44.0098C44.1893 16.7188 44.3616 16.7901 44.4885 16.9171C44.6155 17.044 44.6868 17.2163 44.6868 17.3958C44.6868 17.5754 44.6155 17.7476 44.4885 17.8746C44.3616 18.0016 44.1893 18.0729 44.0098 18.0729Z" fill="white"/>
<path d="M44.0098 25.6198H8.63216C8.45259 25.6198 8.28037 25.5485 8.15339 25.4215C8.02641 25.2945 7.95508 25.1223 7.95508 24.9427C7.95508 24.7631 8.02641 24.5909 8.15339 24.4639C8.28037 24.337 8.45259 24.2656 8.63216 24.2656H44.0098C44.1893 24.2656 44.3616 24.337 44.4885 24.4639C44.6155 24.5909 44.6868 24.7631 44.6868 24.9427C44.6868 25.1223 44.6155 25.2945 44.4885 25.4215C44.3616 25.5485 44.1893 25.6198 44.0098 25.6198Z" fill="white"/>
<path d="M44.0098 33.1745H8.63216C8.45259 33.1745 8.28037 33.1031 8.15339 32.9762C8.02641 32.8492 7.95508 32.677 7.95508 32.4974C7.95508 32.3178 8.02641 32.1456 8.15339 32.0186C8.28037 31.8916 8.45259 31.8203 8.63216 31.8203H44.0098C44.1893 31.8203 44.3616 31.8916 44.4885 32.0186C44.6155 32.1456 44.6868 32.3178 44.6868 32.4974C44.6868 32.677 44.6155 32.8492 44.4885 32.9762C44.3616 33.1031 44.1893 33.1745 44.0098 33.1745Z" fill="white"/>
<path d="M24.6249 40.737H8.63216C8.45259 40.737 8.28037 40.6656 8.15339 40.5387C8.02641 40.4117 7.95508 40.2395 7.95508 40.0599C7.95508 39.8803 8.02641 39.7081 8.15339 39.5811C8.28037 39.4541 8.45259 39.3828 8.63216 39.3828H24.6249C24.8044 39.3828 24.9767 39.4541 25.1036 39.5811C25.2306 39.7081 25.302 39.8803 25.302 40.0599C25.302 40.2395 25.2306 40.4117 25.1036 40.5387C24.9767 40.6656 24.8044 40.737 24.6249 40.737Z" fill="white"/>
<path d="M24.6249 48.2839H8.63216C8.45259 48.2839 8.28037 48.2125 8.15339 48.0855C8.02641 47.9586 7.95508 47.7863 7.95508 47.6068C7.95508 47.4272 8.02641 47.255 8.15339 47.128C8.28037 47.001 8.45259 46.9297 8.63216 46.9297H24.6249C24.8044 46.9297 24.9767 47.001 25.1036 47.128C25.2306 47.255 25.302 47.4272 25.302 47.6068C25.302 47.7863 25.2306 47.9586 25.1036 48.0855C24.9767 48.2125 24.8044 48.2839 24.6249 48.2839Z" fill="white"/>
<path d="M24.6249 55.8385H8.63216C8.45259 55.8385 8.28037 55.7672 8.15339 55.6402C8.02641 55.5133 7.95508 55.341 7.95508 55.1615C7.95508 54.9819 8.02641 54.8097 8.15339 54.6827C8.28037 54.5557 8.45259 54.4844 8.63216 54.4844H24.6249C24.8044 54.4844 24.9767 54.5557 25.1036 54.6827C25.2306 54.8097 25.302 54.9819 25.302 55.1615C25.302 55.341 25.2306 55.5133 25.1036 55.6402C24.9767 55.7672 24.8044 55.8385 24.6249 55.8385Z" fill="white"/>
<path d="M32.4197 63.6474H27.5853C27.4057 63.6474 27.2335 63.5761 27.1065 63.4491C26.9795 63.3221 26.9082 63.1499 26.9082 62.9703V58.1224C26.9082 57.9428 26.9795 57.7706 27.1065 57.6436C27.2335 57.5167 27.4057 57.4453 27.5853 57.4453H32.4197C32.5992 57.4453 32.7715 57.5167 32.8984 57.6436C33.0254 57.7706 33.0967 57.9428 33.0967 58.1224V62.9703C33.0967 63.1499 33.0254 63.3221 32.8984 63.4491C32.7715 63.5761 32.5992 63.6474 32.4197 63.6474ZM28.2624 62.2932H31.7426V58.7995H28.2624V62.2932Z" fill="white"/>
<path d="M42.0875 63.6458H37.2396C37.06 63.6458 36.8878 63.5745 36.7608 63.4475C36.6338 63.3205 36.5625 63.1483 36.5625 62.9688V51.4583C36.5625 51.2788 36.6338 51.1065 36.7608 50.9796C36.8878 50.8526 37.06 50.7812 37.2396 50.7812H42.074C42.2535 50.7812 42.4258 50.8526 42.5527 50.9796C42.6797 51.1065 42.751 51.2788 42.751 51.4583V62.9688C42.7511 63.146 42.6816 63.3162 42.5575 63.4428C42.4335 63.5694 42.2647 63.6423 42.0875 63.6458ZM37.9167 62.2917H41.3969V52.1354H37.9167V62.2917Z" fill="white"/>
<path d="M51.7556 63.6437H46.9212C46.7417 63.6437 46.5694 63.5724 46.4425 63.4454C46.3155 63.3185 46.2441 63.1462 46.2441 62.9667V43.4193C46.2441 43.2397 46.3155 43.0675 46.4425 42.9405C46.5694 42.8135 46.7417 42.7422 46.9212 42.7422H51.7556C51.9352 42.7422 52.1074 42.8135 52.2344 42.9405C52.3613 43.0675 52.4327 43.2397 52.4327 43.4193V62.9667C52.4327 63.1462 52.3613 63.3185 52.2344 63.4454C52.1074 63.5724 51.9352 63.6437 51.7556 63.6437ZM47.5983 62.2896H51.0785V44.0964H47.5983V62.2896Z" fill="white"/>
<path d="M62.0954 63.6464H57.2611C57.0815 63.6464 56.9093 63.575 56.7823 63.448C56.6553 63.3211 56.584 63.1488 56.584 62.9693V34.8568C56.584 34.6772 56.6553 34.505 56.7823 34.378C56.9093 34.251 57.0815 34.1797 57.2611 34.1797H62.0954C62.275 34.1797 62.4472 34.251 62.5742 34.378C62.7012 34.505 62.7725 34.6772 62.7725 34.8568V62.9693C62.7725 63.1488 62.7012 63.3211 62.5742 63.448C62.4472 63.575 62.275 63.6464 62.0954 63.6464ZM57.9382 62.2922H61.4184V35.5339H57.9382V62.2922Z" fill="white"/>
<path d="M30.0013 50.1068C29.8962 50.1068 29.7925 50.0823 29.6985 50.0353C29.6045 49.9883 29.5227 49.92 29.4596 49.8359C29.4063 49.7648 29.3675 49.6839 29.3454 49.5977C29.3233 49.5116 29.3184 49.422 29.331 49.3339C29.3436 49.2459 29.3734 49.1612 29.4187 49.0847C29.464 49.0082 29.5239 48.9414 29.5951 48.888L51.6747 32.2995C51.8184 32.1917 51.999 32.1455 52.1767 32.1709C52.3545 32.1963 52.5149 32.2912 52.6227 32.4349C52.7304 32.5786 52.7767 32.7591 52.7513 32.9369C52.7259 33.1147 52.6309 33.2751 52.4872 33.3828L30.4076 49.9781C30.2895 50.0636 30.147 50.1087 30.0013 50.1068Z" fill="white"/>
<path d="M51.4915 36.3429H51.3493C51.1746 36.3055 51.0217 36.2005 50.924 36.0509C50.8264 35.9012 50.7919 35.719 50.828 35.544L51.2749 33.3976L49.1285 32.9507C49.0413 32.9323 48.9585 32.8967 48.8851 32.8462C48.8116 32.7956 48.7489 32.7311 48.7004 32.6562C48.652 32.5813 48.6188 32.4976 48.6028 32.4099C48.5868 32.3222 48.5883 32.2322 48.6071 32.145C48.6232 32.0545 48.6574 31.9683 48.7078 31.8915C48.7583 31.8146 48.8238 31.7489 48.9004 31.6982C48.9771 31.6475 49.0632 31.613 49.1537 31.5967C49.2441 31.5804 49.3369 31.5826 49.4264 31.6033L52.2363 32.1924C52.3235 32.2102 52.4063 32.2449 52.48 32.2947C52.5537 32.3445 52.6168 32.4083 52.6659 32.4825C52.7149 32.5567 52.7489 32.6398 52.7658 32.7271C52.7827 32.8144 52.7822 32.9042 52.7644 32.9914L52.1348 35.8013C52.1043 35.9508 52.0242 36.0857 51.9074 36.1841C51.7907 36.2824 51.6441 36.3384 51.4915 36.3429Z" fill="white"/>
</svg>
