<svg width="30" height="30" viewBox="0 0 30 30" fill="none" xmlns="http://www.w3.org/2000/svg">
<path d="M20.6473 27.3844H1.04102C0.958135 27.3844 0.87865 27.3514 0.820045 27.2928C0.76144 27.2342 0.728516 27.1548 0.728516 27.0719V2.92188C0.728516 2.83899 0.76144 2.75951 0.820045 2.7009C0.87865 2.6423 0.958135 2.60938 1.04102 2.60938H15.9379C16.0208 2.60938 16.1003 2.6423 16.1589 2.7009C16.2175 2.75951 16.2504 2.83899 16.2504 2.92188C16.2504 3.00476 16.2175 3.08424 16.1589 3.14285C16.1003 3.20145 16.0208 3.23438 15.9379 3.23438H1.35352V26.7594H20.3348V18.1688C20.3348 18.0859 20.3677 18.0064 20.4263 17.9478C20.4849 17.8892 20.5644 17.8563 20.6473 17.8563C20.7301 17.8563 20.8096 17.8892 20.8682 17.9478C20.9268 18.0064 20.9598 18.0859 20.9598 18.1688V27.0719C20.9598 27.1548 20.9268 27.2342 20.8682 27.2928C20.8096 27.3514 20.7301 27.3844 20.6473 27.3844Z" fill="#1A1A1A"/>
<path d="M20.6465 11.3609C20.5636 11.3609 20.4841 11.328 20.4255 11.2694C20.3669 11.2108 20.334 11.1313 20.334 11.0484V7.63281C20.334 7.54993 20.3669 7.47045 20.4255 7.41184C20.4841 7.35324 20.5636 7.32031 20.6465 7.32031C20.7294 7.32031 20.8089 7.35324 20.8675 7.41184C20.9261 7.47045 20.959 7.54993 20.959 7.63281V11.0484C20.959 11.1313 20.9261 11.2108 20.8675 11.2694C20.8089 11.328 20.7294 11.3609 20.6465 11.3609Z" fill="#1A1A1A"/>
<path d="M20.6469 7.95182H15.9375C15.8546 7.95182 15.7751 7.91889 15.7165 7.86029C15.6579 7.80168 15.625 7.7222 15.625 7.63932V2.92369C15.6246 2.86162 15.6428 2.80085 15.6771 2.74913C15.7114 2.6974 15.7603 2.65707 15.8177 2.63326C15.875 2.60946 15.9381 2.60327 15.999 2.61548C16.0598 2.62769 16.1157 2.65775 16.1594 2.70182L20.8688 7.41744C20.9128 7.46115 20.9429 7.517 20.9551 7.57785C20.9673 7.63871 20.9611 7.70183 20.9373 7.75916C20.9135 7.81648 20.8732 7.86542 20.8214 7.89973C20.7697 7.93405 20.709 7.95218 20.6469 7.95182ZM16.25 7.32682H19.8938L16.25 3.67682V7.32682Z" fill="#1A1A1A"/>
<path d="M17.7277 12.1875H3.95898C3.8761 12.1875 3.79662 12.1546 3.73801 12.096C3.67941 12.0374 3.64648 11.9579 3.64648 11.875C3.64648 11.7921 3.67941 11.7126 3.73801 11.654C3.79662 11.5954 3.8761 11.5625 3.95898 11.5625H17.7277C17.8106 11.5625 17.8901 11.5954 17.9487 11.654C18.0073 11.7126 18.0402 11.7921 18.0402 11.875C18.0402 11.9579 18.0073 12.0374 17.9487 12.096C17.8901 12.1546 17.8106 12.1875 17.7277 12.1875Z" fill="#1A1A1A"/>
<path d="M15.0777 15.2344H3.95898C3.8761 15.2344 3.79662 15.2015 3.73801 15.1428C3.67941 15.0842 3.64648 15.0048 3.64648 14.9219C3.64648 14.839 3.67941 14.7595 3.73801 14.7009C3.79662 14.6423 3.8761 14.6094 3.95898 14.6094H15.0777C15.1606 14.6094 15.2401 14.6423 15.2987 14.7009C15.3573 14.7595 15.3902 14.839 15.3902 14.9219C15.3902 15.0048 15.3573 15.0842 15.2987 15.1428C15.2401 15.2015 15.1606 15.2344 15.0777 15.2344Z" fill="#1A1A1A"/>
<path d="M14.5371 18.2656H3.95898C3.8761 18.2656 3.79662 18.2327 3.73801 18.1741C3.67941 18.1155 3.64648 18.036 3.64648 17.9531C3.64648 17.8702 3.67941 17.7908 3.73801 17.7322C3.79662 17.6735 3.8761 17.6406 3.95898 17.6406H14.5371C14.62 17.6406 14.6995 17.6735 14.7581 17.7322C14.8167 17.7908 14.8496 17.8702 14.8496 17.9531C14.8496 18.036 14.8167 18.1155 14.7581 18.1741C14.6995 18.2327 14.62 18.2656 14.5371 18.2656Z" fill="#1A1A1A"/>
<path d="M17.5309 21.2969H3.95898C3.8761 21.2969 3.79662 21.2639 3.73801 21.2053C3.67941 21.1467 3.64648 21.0673 3.64648 20.9844C3.64648 20.9015 3.67941 20.822 3.73801 20.7634C3.79662 20.7048 3.8761 20.6719 3.95898 20.6719H17.5309C17.6137 20.6719 17.6932 20.7048 17.7518 20.7634C17.8104 20.822 17.8434 20.9015 17.8434 20.9844C17.8434 21.0673 17.8104 21.1467 17.7518 21.2053C17.6932 21.2639 17.6137 21.2969 17.5309 21.2969Z" fill="#1A1A1A"/>
<path d="M17.7277 24.3359H3.95898C3.8761 24.3359 3.79662 24.303 3.73801 24.2444C3.67941 24.1858 3.64648 24.1063 3.64648 24.0234C3.64648 23.9406 3.67941 23.8611 3.73801 23.8025C3.79662 23.7439 3.8761 23.7109 3.95898 23.7109H17.7277C17.8106 23.7109 17.8901 23.7439 17.9487 23.8025C18.0073 23.8611 18.0402 23.9406 18.0402 24.0234C18.0402 24.1063 18.0073 24.1858 17.9487 24.2444C17.8901 24.303 17.8106 24.3359 17.7277 24.3359Z" fill="#1A1A1A"/>
<path d="M23.7777 18.8755H23.7496L18.7496 18.2568C18.6915 18.2493 18.6368 18.2258 18.5915 18.1888C18.5462 18.1518 18.5122 18.1028 18.4933 18.0474L17.2089 14.213C17.1924 14.1587 17.1909 14.101 17.2046 14.0459C17.2184 13.9909 17.2469 13.9406 17.2871 13.9005L20.8808 10.3943C20.9185 10.3573 20.9649 10.3304 21.0157 10.3162C21.0665 10.302 21.1201 10.3009 21.1714 10.313C21.2229 10.3258 21.2702 10.3514 21.309 10.3875C21.3479 10.4235 21.3769 10.4689 21.3933 10.5193L24.0621 18.463C24.0819 18.5151 24.0874 18.5715 24.0781 18.6265C24.0687 18.6814 24.0449 18.7329 24.0089 18.7755C23.9795 18.8073 23.9437 18.8326 23.9038 18.8498C23.864 18.8671 23.8211 18.8758 23.7777 18.8755ZM19.0277 17.6599L23.3246 18.1911L20.9621 11.1786L17.8621 14.2005L19.0277 17.6599Z" fill="#1A1A1A"/>
<path d="M15.938 19.141C15.592 19.1376 15.2556 19.0266 14.9756 18.8233C14.6956 18.62 14.4859 18.3346 14.3755 18.0066L13.9474 16.7378C13.8075 16.3193 13.8391 15.8623 14.0353 15.467C14.2315 15.0717 14.5763 14.7702 14.9943 14.6285L17.4224 13.8128C17.5003 13.7869 17.5853 13.7927 17.659 13.829C17.7327 13.8652 17.7891 13.929 17.8161 14.0066L19.0911 17.841C19.118 17.9193 19.1127 18.0051 19.0764 18.0795C19.0401 18.1539 18.9757 18.2109 18.8974 18.2378L16.4693 19.0597C16.2978 19.1157 16.1184 19.1432 15.938 19.141ZM17.3099 14.5035L15.1786 15.2222C15.0493 15.2656 14.9298 15.3341 14.8269 15.4237C14.724 15.5133 14.6399 15.6224 14.5792 15.7446C14.5185 15.8668 14.4826 15.9997 14.4733 16.1359C14.4641 16.272 14.4819 16.4086 14.5255 16.5378L14.9536 17.8097C15.0426 18.07 15.2308 18.2846 15.4771 18.4069C15.7235 18.5292 16.0082 18.5493 16.2693 18.4629L18.4005 17.7441L17.3099 14.5035Z" fill="#1A1A1A"/>
<path d="M18.6507 22.5453C18.4162 22.5452 18.1868 22.4764 17.9908 22.3476C17.7948 22.2188 17.6408 22.0356 17.5476 21.8203L16.2663 18.8235C16.2491 18.784 16.2402 18.7415 16.2402 18.6985C16.2402 18.6555 16.2491 18.6129 16.2663 18.5735C16.2838 18.5342 16.3092 18.4989 16.3409 18.4699C16.3726 18.4408 16.41 18.4186 16.4507 18.4047L18.3663 17.7578C18.4447 17.7321 18.53 17.7383 18.6037 17.7752C18.6775 17.8121 18.7337 17.8766 18.7601 17.9547L19.7757 20.9703C19.8287 21.1198 19.8514 21.2784 19.8424 21.4368C19.8335 21.5951 19.7931 21.7501 19.7235 21.8927C19.654 22.0352 19.5567 22.1625 19.4375 22.2671C19.3182 22.3716 19.1793 22.4513 19.0288 22.5016C18.9059 22.536 18.7783 22.5508 18.6507 22.5453ZM16.9757 18.8891L18.1257 21.5641C18.1836 21.6946 18.288 21.7988 18.4186 21.8566C18.5491 21.9143 18.6964 21.9215 18.8319 21.8766C18.9746 21.8275 19.0922 21.7242 19.1594 21.5892C19.2266 21.4542 19.2381 21.2981 19.1913 21.1547L18.2726 18.4391L16.9757 18.8891Z" fill="#1A1A1A"/>
<path d="M23.0103 16.5837C22.9448 16.5839 22.8809 16.5634 22.8276 16.5253C22.7744 16.4872 22.7344 16.4333 22.7135 16.3712C22.6877 16.2929 22.6939 16.2075 22.7308 16.1338C22.7677 16.06 22.8322 16.0038 22.9103 15.9774C23.2804 15.8531 23.5859 15.5869 23.7597 15.2373C23.9335 14.8877 23.9612 14.4834 23.8369 14.1134C23.7126 13.7433 23.4464 13.4378 23.0968 13.264C22.7472 13.0903 22.3429 13.0625 21.9728 13.1868C21.9331 13.202 21.8907 13.2089 21.8482 13.2072C21.8057 13.2054 21.7641 13.195 21.7257 13.1766C21.6874 13.1581 21.6533 13.1321 21.6254 13.1C21.5975 13.0679 21.5764 13.0305 21.5635 12.9899C21.5502 12.951 21.5448 12.9098 21.5476 12.8687C21.5503 12.8276 21.5611 12.7875 21.5794 12.7506C21.5977 12.7137 21.6231 12.6808 21.6542 12.6538C21.6852 12.6267 21.7213 12.6061 21.7603 12.5931C22.2875 12.4165 22.8631 12.4562 23.361 12.7034C23.859 12.9506 24.2386 13.3852 24.4166 13.9118C24.5925 14.4345 24.5558 15.0055 24.3143 15.5013C24.0728 15.9971 23.646 16.3781 23.126 16.5618C23.0893 16.5769 23.05 16.5844 23.0103 16.5837Z" fill="#1A1A1A"/>
<path d="M25.1413 12.4199C25.0951 12.4196 25.0496 12.4091 25.008 12.3891C24.9664 12.3691 24.9297 12.3401 24.9006 12.3043C24.8507 12.2407 24.8274 12.1602 24.8356 12.0798C24.8437 11.9994 24.8827 11.9253 24.9444 11.873L27.26 9.99801C27.3247 9.95058 27.4051 9.92983 27.4846 9.94005C27.5642 9.95026 27.6367 9.99066 27.6873 10.0529C27.7379 10.1151 27.7626 10.1944 27.7564 10.2743C27.7501 10.3543 27.7134 10.4288 27.6538 10.4824L25.3381 12.3574C25.2815 12.3999 25.2121 12.422 25.1413 12.4199Z" fill="#1A1A1A"/>
<path d="M29.0629 15.3094L26.0879 15.2188C26.005 15.2188 25.9255 15.1858 25.8669 15.1272C25.8083 15.0686 25.7754 14.9891 25.7754 14.9062C25.7754 14.8234 25.8083 14.7439 25.8669 14.6853C25.9255 14.6267 26.005 14.5938 26.0879 14.5938L29.0629 14.6844C29.1458 14.6844 29.2253 14.7173 29.2839 14.7759C29.3425 14.8345 29.3754 14.914 29.3754 14.9969C29.3754 15.0798 29.3425 15.1592 29.2839 15.2178C29.2253 15.2765 29.1458 15.3094 29.0629 15.3094Z" fill="#1A1A1A"/>
<path d="M25.426 13.8914C25.352 13.8928 25.2798 13.8679 25.2225 13.8212C25.1651 13.7744 25.1262 13.7088 25.1127 13.636C25.0992 13.5632 25.1119 13.488 25.1487 13.4237C25.1855 13.3595 25.2439 13.3104 25.3135 13.2851L28.1478 12.3289C28.2266 12.3024 28.3126 12.3082 28.3871 12.3451C28.4615 12.3821 28.5182 12.447 28.5447 12.5258C28.5712 12.6045 28.5654 12.6905 28.5285 12.765C28.4916 12.8394 28.4266 12.8961 28.3478 12.9226L25.5135 13.8601C25.4863 13.8754 25.4567 13.886 25.426 13.8914Z" fill="#1A1A1A"/>
</svg>
