<svg width="47" height="66" viewBox="0 0 47 66" fill="none" xmlns="http://www.w3.org/2000/svg">
<path d="M18.6149 42.141C18.4275 42.141 18.2478 42.0665 18.1153 41.934C17.9828 41.8015 17.9083 41.6218 17.9083 41.4344V35.7733H15.8613C14.988 35.7722 14.1508 35.4248 13.5333 34.8073C12.9158 34.1899 12.5685 33.3527 12.5674 32.4794V13.0673C12.5685 12.1941 12.9158 11.3569 13.5333 10.7394C14.1508 10.1219 14.988 9.77452 15.8613 9.77344H43.0734C43.9466 9.77452 44.7838 10.1219 45.4013 10.7394C46.0188 11.3569 46.3662 12.1941 46.3672 13.0673V32.4794C46.3662 33.3527 46.0188 34.1899 45.4013 34.8073C44.7838 35.4248 43.9466 35.7722 43.0734 35.7733H25.2761L19.1147 41.9342C19.0491 41.9998 18.9711 42.0518 18.8854 42.0873C18.7996 42.1228 18.7077 42.141 18.6149 42.141ZM15.8613 11.1865C15.3626 11.1871 14.8846 11.3854 14.532 11.738C14.1794 12.0906 13.981 12.5687 13.9804 13.0673V32.4794C13.981 32.9781 14.1794 33.4561 14.5319 33.8087C14.8845 34.1613 15.3626 34.3597 15.8613 34.3603H18.6149C18.7077 34.3602 18.7996 34.3784 18.8853 34.4139C18.971 34.4494 19.0489 34.5014 19.1146 34.5671C19.1802 34.6327 19.2322 34.7106 19.2677 34.7963C19.3032 34.8821 19.3214 34.974 19.3214 35.0668V39.7289L24.4837 34.5673C24.5493 34.5016 24.6272 34.4496 24.7129 34.414C24.7986 34.3785 24.8905 34.3602 24.9832 34.3603H43.0734C43.572 34.3597 44.0501 34.1613 44.4027 33.8087C44.7553 33.4561 44.9536 32.9781 44.9542 32.4794V13.0673C44.9536 12.5687 44.7552 12.0906 44.4027 11.738C44.0501 11.3854 43.572 11.1871 43.0734 11.1865H15.8613Z" fill="#EA4723"/>
<path d="M29.4676 26.2556C28.2603 26.2556 27.0801 25.8976 26.0763 25.2268C25.0724 24.5561 24.29 23.6028 23.828 22.4874C23.366 21.372 23.245 20.1446 23.4805 18.9605C23.716 17.7764 24.2974 16.6887 25.1511 15.8349C26.0047 14.9812 27.0924 14.3998 28.2765 14.1642C29.4606 13.9286 30.6879 14.0495 31.8034 14.5114C32.9188 14.9734 33.8722 15.7557 34.543 16.7595C35.2138 17.7633 35.5719 18.9435 35.572 20.1508C35.5702 21.7693 34.9265 23.321 33.7821 24.4654C32.6377 25.6099 31.0861 26.2537 29.4676 26.2556ZM29.4676 15.4599C28.5398 15.4599 27.6328 15.7351 26.8613 16.2505C26.0898 16.766 25.4885 17.4987 25.1334 18.3559C24.7784 19.2132 24.6855 20.1564 24.8665 21.0665C25.0475 21.9765 25.4943 22.8124 26.1504 23.4685C26.8065 24.1246 27.6424 24.5714 28.5524 24.7524C29.4624 24.9334 30.4057 24.8405 31.2629 24.4854C32.1201 24.1304 32.8528 23.5291 33.3683 22.7576C33.8838 21.9861 34.1589 21.0791 34.1589 20.1512C34.1576 18.9074 33.663 17.7149 32.7835 16.8353C31.904 15.9558 30.7115 15.4613 29.4676 15.4599Z" fill="#EA4723"/>
<path d="M28.4067 23.129C28.2193 23.129 28.0396 23.0545 27.9071 22.922C27.7746 22.7895 27.7002 22.6098 27.7002 22.4224V17.8707C27.7002 17.7406 27.7361 17.6129 27.804 17.5019C27.872 17.3908 27.9693 17.3007 28.0852 17.2415C28.2011 17.1822 28.3311 17.1562 28.4609 17.1661C28.5907 17.1761 28.7152 17.2218 28.8207 17.298L31.9683 19.5735C32.0589 19.639 32.1327 19.7251 32.1836 19.8246C32.2345 19.9242 32.261 20.0344 32.261 20.1462C32.261 20.258 32.2345 20.3682 32.1836 20.4678C32.1327 20.5673 32.0589 20.6534 31.9683 20.7189L28.8207 22.9951C28.7001 23.082 28.5553 23.1288 28.4067 23.129ZM29.1132 19.2534V21.0397L30.3482 20.1462L29.1132 19.2534Z" fill="#EA4723"/>
<path d="M41.6005 30.413H17.3315C17.1441 30.413 16.9644 30.3386 16.8319 30.2061C16.6994 30.0736 16.625 29.8939 16.625 29.7065C16.625 29.5191 16.6994 29.3394 16.8319 29.2069C16.9644 29.0744 17.1441 29 17.3315 29H41.6005C41.7879 29 41.9676 29.0744 42.1001 29.2069C42.2326 29.3394 42.3071 29.5191 42.3071 29.7065C42.3071 29.8939 42.2326 30.0736 42.1001 30.2061C41.9676 30.3386 41.7879 30.413 41.6005 30.413Z" fill="#EA4723"/>
<path d="M20.5014 31.4969C20.4086 31.4969 20.3167 31.4787 20.231 31.4432C20.1452 31.4077 20.0673 31.3557 20.0017 31.2901C19.9361 31.2245 19.8841 31.1466 19.8486 31.0608C19.8131 30.9751 19.7949 30.8832 19.7949 30.7904V28.6284C19.7949 28.441 19.8694 28.2613 20.0019 28.1288C20.1344 27.9963 20.3141 27.9219 20.5014 27.9219C20.6888 27.9219 20.8685 27.9963 21.001 28.1288C21.1335 28.2613 21.208 28.441 21.208 28.6284V30.7904C21.208 30.8832 21.1898 30.975 21.1543 31.0608C21.1188 31.1465 21.0668 31.2244 21.0012 31.2901C20.9355 31.3557 20.8576 31.4077 20.7719 31.4432C20.6861 31.4787 20.5942 31.4969 20.5014 31.4969Z" fill="#EA4723"/>
<path d="M33.1037 65.0938H5.34249C4.09383 65.0924 2.89671 64.5957 2.01377 63.7128C1.13084 62.8299 0.634196 61.6327 0.632812 60.3841V4.80342C0.634196 3.55477 1.13084 2.35765 2.01377 1.47471C2.89671 0.591775 4.09383 0.0951338 5.34249 0.09375H33.1038C34.3525 0.0951338 35.5496 0.591775 36.4326 1.47471C37.3155 2.35765 37.8121 3.55477 37.8135 4.80342V10.4756C37.8135 10.663 37.7391 10.8427 37.6066 10.9752C37.4741 11.1077 37.2944 11.1821 37.107 11.1821C36.9196 11.1821 36.7399 11.1077 36.6074 10.9752C36.4749 10.8427 36.4005 10.663 36.4005 10.4756V4.80342C36.3996 3.92935 36.0519 3.09134 35.4339 2.4733C34.8158 1.85525 33.9778 1.50765 33.1037 1.50679H5.34249C4.46844 1.50769 3.63045 1.8553 3.01241 2.47335C2.39436 3.09139 2.04675 3.92938 2.04586 4.80342V60.3841C2.04675 61.2581 2.39436 62.0961 3.01241 62.7142C3.63045 63.3322 4.46844 63.6798 5.34249 63.6807H33.1038C33.9779 63.6798 34.8159 63.3322 35.4339 62.7142C36.052 62.0961 36.3996 61.2581 36.4005 60.3841V35.0623C36.4005 34.875 36.4749 34.6952 36.6074 34.5628C36.7399 34.4303 36.9196 34.3558 37.107 34.3558C37.2944 34.3558 37.4741 34.4303 37.6066 34.5628C37.7391 34.6952 37.8135 34.875 37.8135 35.0623V60.3841C37.8121 61.6328 37.3155 62.8299 36.4325 63.7128C35.5495 64.5958 34.3524 65.0924 33.1037 65.0938Z" fill="#EA4723"/>
<path d="M25.1818 4.53777H13.262C12.7394 4.53603 12.2295 4.37595 11.7996 4.07862C11.3698 3.78129 11.0401 3.36067 10.8541 2.87222L10.1676 1.04939C10.1272 0.942492 10.1134 0.827392 10.1273 0.713974C10.1412 0.600555 10.1824 0.492206 10.2474 0.398226C10.3124 0.304246 10.3993 0.227443 10.5005 0.174411C10.6017 0.121378 10.7143 0.0936988 10.8286 0.0937501H27.6155C27.7297 0.0937857 27.8423 0.121518 27.9434 0.17457C28.0446 0.227622 28.1314 0.304412 28.1964 0.398358C28.2613 0.492305 28.3026 0.600606 28.3165 0.713981C28.3305 0.827356 28.3167 0.942423 28.2765 1.04932L27.5899 2.87215C27.4039 3.36064 27.0742 3.78128 26.6443 4.07863C26.2144 4.37597 25.7045 4.53606 25.1818 4.53777ZM11.8497 1.50679L12.176 2.37405C12.26 2.59424 12.4087 2.78382 12.6026 2.91782C12.7965 3.05182 13.0264 3.12396 13.262 3.12473H25.1818C25.4175 3.12398 25.6474 3.05185 25.8413 2.91785C26.0351 2.78384 26.1838 2.59425 26.2678 2.37405L26.5942 1.50679H11.8497Z" fill="#EA4723"/>
<path d="M26.8531 62.4677H11.5923C11.4049 62.4677 11.2252 62.3933 11.0927 62.2608C10.9602 62.1283 10.8857 61.9486 10.8857 61.7612C10.8857 61.5738 10.9602 61.3941 11.0927 61.2616C11.2252 61.1291 11.4049 61.0547 11.5923 61.0547H26.8531C27.0405 61.0547 27.2202 61.1291 27.3527 61.2616C27.4852 61.3941 27.5597 61.5738 27.5597 61.7612C27.5597 61.9486 27.4852 62.1283 27.3527 62.2608C27.2202 62.3933 27.0405 62.4677 26.8531 62.4677Z" fill="#EA4723"/>
</svg>
