<svg width="65" height="66" viewBox="0 0 65 66" fill="none" xmlns="http://www.w3.org/2000/svg">
<path d="M36.8531 64.4792H10.2437C9.04717 64.4774 7.90021 64.0008 7.05473 63.154C6.20925 62.3073 5.73437 61.1596 5.73438 59.963V6.70365C5.73437 5.50706 6.20925 4.35939 7.05473 3.51264C7.90021 2.66589 9.04717 2.18929 10.2437 2.1875H36.8531C38.0497 2.18929 39.1967 2.66589 40.0421 3.51264C40.8876 4.35939 41.3625 5.50706 41.3625 6.70365V12.5672C41.3625 12.7468 41.2912 12.919 41.1642 13.046C41.0372 13.1729 40.865 13.2443 40.6854 13.2443C40.5058 13.2443 40.3336 13.1729 40.2066 13.046C40.0797 12.919 40.0083 12.7468 40.0083 12.5672V6.70365C40.0083 5.86621 39.6761 5.06297 39.0846 4.47018C38.4931 3.87739 37.6906 3.54346 36.8531 3.54167H10.2437C9.40631 3.54346 8.60379 3.87739 8.01227 4.47018C7.42075 5.06297 7.08854 5.86621 7.08854 6.70365V59.963C7.08854 60.8005 7.42075 61.6037 8.01227 62.1965C8.60379 62.7893 9.40631 63.1232 10.2437 63.125H36.8531C37.6906 63.1232 38.4931 62.7893 39.0846 62.1965C39.6761 61.6037 40.0083 60.8005 40.0083 59.963V40.4224C40.0083 40.2428 40.0797 40.0706 40.2066 39.9436C40.3336 39.8167 40.5058 39.7453 40.6854 39.7453C40.865 39.7453 41.0372 39.8167 41.1642 39.9436C41.2912 40.0706 41.3625 40.2428 41.3625 40.4224V59.963C41.3625 61.1596 40.8876 62.3073 40.0421 63.154C39.1967 64.0008 38.0497 64.4774 36.8531 64.4792Z" fill="white"/>
<path d="M29.2633 6.44635H17.8342C17.334 6.44343 16.8464 6.28924 16.4356 6.00404C16.0247 5.71884 15.7097 5.31599 15.5321 4.84844L14.8956 3.10156C14.8569 2.99943 14.8434 2.88943 14.8564 2.78096C14.8693 2.67249 14.9083 2.56877 14.9701 2.47865C15.0303 2.39171 15.1101 2.3201 15.203 2.26954C15.2958 2.21898 15.3993 2.19088 15.505 2.1875H31.5925C31.7016 2.18768 31.8091 2.21425 31.9058 2.26494C32.0025 2.31564 32.0855 2.38896 32.1477 2.47865C32.2106 2.56819 32.2508 2.67163 32.2649 2.78011C32.2791 2.8886 32.2667 2.99889 32.2289 3.10156L31.5519 4.84844C31.3735 5.3128 31.0602 5.71314 30.6523 5.99792C30.2445 6.2827 29.7607 6.43888 29.2633 6.44635ZM16.4868 3.54167L16.7982 4.37448C16.8794 4.58393 17.0215 4.76426 17.2061 4.89219C17.3908 5.02011 17.6095 5.08978 17.8342 5.09219H29.2633C29.4882 5.0907 29.7073 5.0214 29.8921 4.89335C30.077 4.7653 30.2189 4.58446 30.2993 4.37448L30.6175 3.54167H16.4868Z" fill="white"/>
<path d="M30.8608 61.9635H16.2493C16.0698 61.9635 15.8976 61.8922 15.7706 61.7652C15.6436 61.6383 15.5723 61.466 15.5723 61.2865C15.5723 61.1069 15.6436 60.9347 15.7706 60.8077C15.8976 60.6807 16.0698 60.6094 16.2493 60.6094H30.8743C31.0539 60.6094 31.2261 60.6807 31.3531 60.8077C31.4801 60.9347 31.5514 61.1069 31.5514 61.2865C31.5514 61.466 31.4801 61.6383 31.3531 61.7652C31.2261 61.8922 31.0539 61.9635 30.8743 61.9635H30.8608Z" fill="white"/>
<path d="M44.9311 42.7419C44.8223 42.7402 44.7154 42.7123 44.6197 42.6606C36.4947 38.4559 22.3368 39.5664 18.2134 40.0065C17.6395 40.0735 17.0592 39.9552 16.5573 39.669C16.0554 39.3827 15.6583 38.9434 15.4238 38.4153C14.3908 36.1217 13.7171 33.6827 13.4264 31.1841C13.3558 30.6088 13.4716 30.026 13.7568 29.5215C14.042 29.0169 14.4815 28.6171 15.0108 28.3809C18.7957 26.6341 31.5384 20.3236 36.3457 12.5575C36.3903 12.4777 36.4506 12.4078 36.5229 12.352C36.5953 12.2962 36.6782 12.2556 36.7666 12.2326C36.8551 12.2097 36.9473 12.2049 37.0376 12.2185C37.128 12.2322 37.2147 12.2639 37.2924 12.312C37.3702 12.36 37.4374 12.4232 37.49 12.4979C37.5427 12.5726 37.5797 12.6572 37.5988 12.7466C37.6179 12.8359 37.6187 12.9283 37.6011 13.0179C37.5836 13.1076 37.5481 13.1928 37.4967 13.2684C32.4999 21.3528 19.4254 27.819 15.5728 29.6132C15.3044 29.7295 15.0809 29.9295 14.9356 30.1834C14.7904 30.4372 14.7313 30.7313 14.767 31.0216C15.0424 33.3837 15.6772 35.6898 16.6493 37.8601C16.767 38.1284 16.9686 38.3514 17.2237 38.4954C17.4789 38.6395 17.7739 38.6969 18.0644 38.6591C22.3098 38.2122 36.8197 37.0815 45.2629 41.4622C45.3983 41.5316 45.5065 41.6446 45.5698 41.783C45.6332 41.9213 45.648 42.077 45.612 42.2249C45.5761 42.3728 45.4913 42.5042 45.3714 42.598C45.2516 42.6918 45.1036 42.7425 44.9514 42.7419H44.9311Z" fill="white"/>
<path d="M15.3832 39.6849C14.9334 39.6884 14.492 39.5626 14.1115 39.3225C13.731 39.0825 13.4274 38.7382 13.2369 38.3307C12.3913 36.4516 11.8409 34.4533 11.6051 32.4063C11.5449 31.9127 11.6437 31.4127 11.8873 30.9792C12.1308 30.5457 12.5064 30.2012 12.9593 29.9958L13.8869 29.5625L14.4759 30.7812L13.5415 31.201C13.3497 31.2891 13.1904 31.4352 13.0859 31.6186C12.9815 31.802 12.9372 32.0135 12.9593 32.2234C13.1862 34.1313 13.6998 35.9939 14.4827 37.7484C14.5702 37.9403 14.7163 38.0994 14.9001 38.2029C15.0838 38.3063 15.2957 38.3487 15.5051 38.324L16.5546 38.2224C16.6435 38.2144 16.7331 38.224 16.8183 38.2506C16.9035 38.2773 16.9827 38.3204 17.0512 38.3776C17.1197 38.4348 17.1763 38.505 17.2177 38.5841C17.2592 38.6632 17.2846 38.7496 17.2926 38.8385C17.3006 38.9275 17.291 39.0171 17.2644 39.1023C17.2377 39.1875 17.1946 39.2666 17.1374 39.3352C17.0802 39.4037 17.01 39.4603 16.9309 39.5017C16.8518 39.5431 16.7654 39.5686 16.6764 39.5766L15.654 39.6781L15.3832 39.6849Z" fill="white"/>
<path d="M46.0411 43.0028C44.4905 43.0028 42.7369 41.696 41.0307 39.2314C38.9371 35.9978 37.38 32.4469 36.4197 28.7163C34.3072 21.0382 34.1447 12.3038 38.0176 11.234C41.8905 10.1643 46.2307 17.7544 48.3499 25.4528C49.438 29.1468 49.9182 32.9932 49.7718 36.8413C49.5416 40.2945 48.465 42.4544 46.752 42.9351C46.5195 42.9916 46.2801 43.0144 46.0411 43.0028ZM38.7557 12.4934C38.6344 12.492 38.5135 12.508 38.3968 12.5408C36.1963 13.1502 35.3838 19.7924 37.7197 28.3575C38.6394 31.9411 40.1324 35.3525 42.1411 38.4596C43.7119 40.7278 45.2963 41.9059 46.3864 41.608C47.4765 41.3101 48.228 39.482 48.4176 36.7262C48.5584 33.0321 48.1012 29.3395 47.0635 25.7913C44.8223 17.6731 41.0239 12.4934 38.7557 12.4934Z" fill="white"/>
<path d="M38.3642 33.1117C38.1846 33.135 38.0031 33.0861 37.8596 32.9756C37.7161 32.8651 37.6224 32.7022 37.5991 32.5226C37.5757 32.343 37.6247 32.1615 37.7351 32.0181C37.8456 31.8746 38.0085 31.7808 38.1881 31.7575L38.8178 31.5815C39.2504 31.4623 39.6553 31.2591 40.0093 30.9835C40.3634 30.7079 40.6597 30.3652 40.8813 29.9751C41.1029 29.585 41.2455 29.155 41.301 28.7098C41.3565 28.2645 41.3237 27.8127 41.2045 27.3802C41.0854 26.9476 40.8822 26.5427 40.6066 26.1887C40.331 25.8346 39.9883 25.5383 39.5982 25.3167C39.2081 25.0951 38.7781 24.9524 38.3329 24.897C37.8876 24.8415 37.4358 24.8743 37.0032 24.9934L36.3668 25.1695C36.281 25.193 36.1914 25.1995 36.1031 25.1884C36.0148 25.1773 35.9295 25.149 35.8522 25.105C35.696 25.0161 35.5815 24.8688 35.534 24.6955C35.5104 24.6097 35.504 24.5201 35.515 24.4318C35.5261 24.3435 35.5544 24.2583 35.5985 24.181C35.6425 24.1036 35.7013 24.0357 35.7715 23.9811C35.8418 23.9265 35.9221 23.8863 36.0079 23.8627L36.6444 23.6867C37.2486 23.5204 37.8796 23.4748 38.5014 23.5523C39.1232 23.6299 39.7237 23.8293 40.2685 24.1389C40.8133 24.4486 41.2917 24.8625 41.6766 25.357C42.0614 25.8516 42.345 26.4171 42.5113 27.0213C42.6776 27.6255 42.7232 28.2565 42.6456 28.8783C42.568 29.5001 42.3687 30.1006 42.0591 30.6454C41.7494 31.1902 41.3355 31.6687 40.8409 32.0535C40.3464 32.4383 39.7808 32.722 39.1767 32.8882L38.547 33.0575C38.4895 33.0857 38.4277 33.104 38.3642 33.1117Z" fill="white"/>
<path d="M27.0828 54.7348C26.8044 54.735 26.5269 54.7009 26.2568 54.6332C25.8034 54.5188 25.3786 54.3118 25.0092 54.0251C24.6398 53.7385 24.3338 53.3784 24.1104 52.9676C20.7927 46.7587 21.1922 39.3108 21.2125 38.9993C21.2233 38.8198 21.305 38.6518 21.4396 38.5325C21.5742 38.4131 21.7507 38.3521 21.9302 38.3629C22.1098 38.3737 22.2777 38.4553 22.3971 38.5899C22.5165 38.7245 22.5775 38.901 22.5667 39.0806C22.5667 39.1483 22.174 46.4608 25.275 52.3244C25.408 52.5757 25.5923 52.7963 25.816 52.9719C26.0397 53.1475 26.2977 53.2742 26.5734 53.3437C26.8491 53.4133 27.1364 53.4242 27.4166 53.3757C27.6968 53.3273 27.9637 53.2205 28.2 53.0624L30.0891 51.8098C28.2136 50.2186 27.2792 48.7832 27.1099 46.041V45.7499C27.1321 45.2865 27.0512 44.824 26.8729 44.3957C26.741 44.1777 26.5817 43.9775 26.399 43.7999C26.0135 43.4393 25.7209 42.991 25.5459 42.4931C25.2005 41.2743 26.0604 40.2113 26.6834 39.4395C26.8953 39.179 27.0728 38.8922 27.2115 38.5863C27.2904 38.4376 27.4218 38.3236 27.5802 38.2666C27.7386 38.2096 27.9125 38.2136 28.0681 38.2778C28.2237 38.3421 28.3497 38.462 28.4217 38.6142C28.4937 38.7664 28.5064 38.9399 28.4573 39.1009C28.2879 39.5234 28.06 39.92 27.7802 40.279C27.286 40.8952 26.7308 41.579 26.8865 42.1275C27.0078 42.414 27.1904 42.6705 27.4214 42.879C27.6835 43.14 27.911 43.4336 28.0985 43.7525C28.3764 44.345 28.5132 44.994 28.4979 45.6483V45.9259C28.6537 48.5191 29.561 49.6363 31.6802 51.302C31.7643 51.3684 31.8315 51.4539 31.8761 51.5513C31.9208 51.6488 31.9416 51.7554 31.937 51.8625C31.9324 51.9696 31.9024 52.0741 31.8495 52.1673C31.7966 52.2605 31.7224 52.3399 31.6328 52.3988L28.9787 54.1592C28.4183 54.5359 27.758 54.7363 27.0828 54.7348Z" fill="white"/>
<path d="M43.8274 23.5529C43.6479 23.5762 43.4664 23.5272 43.3229 23.4168C43.1794 23.3063 43.0857 23.1434 43.0623 22.9638C43.039 22.7842 43.0879 22.6027 43.1984 22.4592C43.3089 22.3158 43.4718 22.222 43.6514 22.1987C43.7597 22.1987 43.9087 21.9617 43.9561 21.657C43.984 21.4889 44.0021 21.3194 44.0103 21.1492C44.022 20.8249 44.0674 20.5027 44.1457 20.1877C44.4707 19.0638 45.4389 18.4002 46.292 17.818C47.1452 17.2357 47.741 16.8226 47.8832 16.1388C47.9175 15.9535 47.9334 15.7652 47.9306 15.5768C47.9369 15.2516 47.9847 14.9285 48.0728 14.6154C48.2102 14.2017 48.4411 13.8252 48.7476 13.5152C49.0541 13.2052 49.4279 12.97 49.8399 12.8279C50.5321 12.5954 51.2562 12.4721 51.9863 12.4622C52.0752 12.4567 52.1644 12.4688 52.2487 12.4979C52.3329 12.5269 52.4106 12.5723 52.4773 12.6314C52.544 12.6906 52.5983 12.7623 52.6372 12.8425C52.6761 12.9226 52.6988 13.0097 52.704 13.0987C52.7095 13.1876 52.6974 13.2768 52.6684 13.3611C52.6393 13.4453 52.5939 13.523 52.5348 13.5897C52.4757 13.6564 52.404 13.7107 52.3238 13.7496C52.2436 13.7885 52.1565 13.8112 52.0676 13.8164C51.4771 13.8178 50.8904 13.9091 50.3274 14.0872C50.113 14.1564 49.9166 14.2725 49.7526 14.4271C49.5887 14.5817 49.4612 14.7709 49.3795 14.981C49.3331 15.1875 49.3126 15.3991 49.3186 15.6107C49.3192 15.8832 49.2942 16.1552 49.2441 16.4232C48.9868 17.6351 47.978 18.3258 47.091 18.9419C46.3597 19.4362 45.6759 19.9101 45.4863 20.5669C45.4308 20.7884 45.4012 21.0156 45.3983 21.244C45.3983 21.4607 45.3983 21.6841 45.3238 21.9211C45.2827 22.2867 45.1369 22.6326 44.9039 22.9173C44.6708 23.202 44.3605 23.4133 44.0103 23.5258C43.9514 23.5456 43.8895 23.5548 43.8274 23.5529Z" fill="white"/>
<path d="M46.0746 26.767H45.8783C45.6987 26.767 45.5265 26.6956 45.3995 26.5686C45.2725 26.4417 45.2012 26.2694 45.2012 26.0899C45.2012 25.9103 45.2725 25.7381 45.3995 25.6111C45.5265 25.4841 45.6987 25.4128 45.8783 25.4128C46.9387 25.3725 47.9654 25.0294 48.8371 24.4242C49.0673 24.2888 49.2975 24.1534 49.5142 24.0112C50.3162 23.4572 51.1824 23.0025 52.0939 22.6571L52.5949 22.5013C53.0736 22.418 53.522 22.2102 53.8949 21.8987C53.9886 21.7817 54.0724 21.6572 54.1454 21.5263C54.2487 21.3493 54.3641 21.1797 54.4908 21.0185C54.6877 20.7442 54.9692 20.542 55.292 20.4429C55.6149 20.3438 55.9613 20.3534 56.2783 20.4701C56.4471 20.532 56.5843 20.6585 56.6599 20.8217C56.7354 20.9848 56.7431 21.1713 56.6811 21.3401C56.6192 21.5089 56.4927 21.6462 56.3295 21.7218C56.1664 21.7973 55.9799 21.805 55.8111 21.743C55.7277 21.7739 55.6549 21.8279 55.6012 21.8987C55.5152 22.0074 55.4382 22.1229 55.371 22.244C55.2553 22.4454 55.1216 22.6357 54.9715 22.8128C54.4415 23.3418 53.7684 23.7042 53.035 23.8555L52.5814 23.9909C51.7761 24.296 51.0101 24.6961 50.2996 25.1826L49.5887 25.6091C48.5417 26.302 47.3284 26.7018 46.0746 26.767Z" fill="white"/>
<path d="M57.4227 32.8278C56.4327 32.7875 55.4509 32.6307 54.4977 32.3606C53.1435 32.0288 51.8435 31.6835 50.6925 32.1439L50.5435 32.1981C50.1077 32.4236 49.6051 32.4837 49.1284 32.3674C48.8456 32.261 48.5892 32.0947 48.3768 31.8799L48.2549 31.7648C47.9843 31.562 47.6553 31.4525 47.3172 31.4525C46.9791 31.4525 46.65 31.562 46.3794 31.7648C46.3092 31.8195 46.2289 31.8598 46.143 31.8834C46.0572 31.907 45.9676 31.9135 45.8792 31.9025C45.7909 31.8915 45.7056 31.8632 45.6282 31.8193C45.5508 31.7753 45.4828 31.7165 45.4281 31.6463C45.3734 31.576 45.3331 31.4957 45.3095 31.4099C45.2859 31.3241 45.2794 31.2344 45.2904 31.1461C45.3014 31.0578 45.3297 30.9724 45.3736 30.895C45.4176 30.8176 45.4764 30.7497 45.5466 30.695C46.0638 30.3037 46.6975 30.0976 47.3458 30.1099C47.9942 30.1222 48.6197 30.3521 49.1216 30.7627L49.2977 30.9184C49.3687 30.9956 49.4509 31.0618 49.5414 31.1148C49.7165 31.1026 49.8871 31.0542 50.0425 30.9726L50.2185 30.9049C51.7555 30.3361 53.3128 30.7085 54.8227 31.0809C56.0956 31.3856 57.3076 31.6835 58.418 31.3856C58.5708 31.3801 58.7209 31.4264 58.844 31.5171C58.9672 31.6077 59.0559 31.7374 59.096 31.885C59.136 32.0325 59.1249 32.1893 59.0645 32.3298C59.0041 32.4702 58.8979 32.5861 58.7633 32.6585C58.3254 32.7715 57.8749 32.8283 57.4227 32.8278Z" fill="white"/>
</svg>
