<svg width="65" height="66" viewBox="0 0 65 66" fill="none" xmlns="http://www.w3.org/2000/svg">
<path d="M41.5046 41.3153C41.1407 41.3148 40.7801 41.2459 40.4416 41.1122C27.8478 36.2101 22.4583 37.395 18.89 38.1398C18.715 38.1781 18.5319 38.1454 18.3808 38.049C18.2298 37.9525 18.1232 37.8001 18.0843 37.6252C18.0654 37.538 18.0639 37.448 18.0799 37.3603C18.096 37.2726 18.1291 37.1889 18.1776 37.114C18.226 37.0391 18.2888 36.9746 18.3622 36.924C18.4357 36.8735 18.5184 36.8379 18.6057 36.8194C22.3296 36.0137 27.9562 34.7882 40.9494 39.8528C41.2433 39.9648 41.5645 39.9839 41.8696 39.9077C42.1747 39.8314 42.4491 39.6633 42.6557 39.4262C42.8658 39.2093 43.0029 38.9322 43.0478 38.6335C43.0927 38.3349 43.0432 38.0297 42.9062 37.7606C39.3535 30.4374 37.6097 22.3687 37.8213 14.2319C37.8328 13.9281 37.7498 13.6281 37.5836 13.3735C37.4175 13.1188 37.1764 12.922 36.8937 12.8101C36.6049 12.686 36.2849 12.6539 35.9771 12.7181C35.6694 12.7823 35.389 12.9397 35.1739 13.1689C25.5999 23.0814 20.5421 24.1783 16.0801 25.1398C15.9006 25.1775 15.7134 25.1423 15.5597 25.042C15.4061 24.9417 15.2986 24.7844 15.2609 24.6049C15.2232 24.4253 15.2583 24.2381 15.3586 24.0844C15.4589 23.9308 15.6162 23.8233 15.7958 23.7856C20.0682 22.8918 24.9161 21.822 34.1853 12.2549C34.5887 11.828 35.1128 11.5344 35.6875 11.4134C36.2623 11.2924 36.8602 11.3498 37.4015 11.5778C37.9385 11.7925 38.3959 12.168 38.711 12.6529C39.0262 13.1377 39.1837 13.7082 39.1619 14.2861C38.9554 22.2081 40.6552 30.0638 44.1182 37.1918C44.3711 37.7071 44.4607 38.2873 44.3747 38.8548C44.2888 39.4224 44.0316 39.9501 43.6374 40.3674C43.3673 40.6649 43.0382 40.9029 42.6709 41.0661C42.3037 41.2293 41.9065 41.3142 41.5046 41.3153Z" fill="#1A1A1A"/>
<path d="M6.93952 40.632C5.95639 40.6309 5.00293 40.2951 4.23619 39.6797C3.46945 39.0643 2.93515 38.2062 2.72129 37.2466L1.45515 31.3492C1.21102 30.2316 1.41946 29.0628 2.03486 28.0984C2.65026 27.1341 3.62254 26.4527 4.739 26.2034L15.7687 23.82C15.8558 23.8012 15.9459 23.7997 16.0336 23.8157C16.1213 23.8317 16.205 23.8649 16.2799 23.9133C16.3547 23.9618 16.4193 24.0245 16.4698 24.098C16.5204 24.1714 16.5559 24.2542 16.5744 24.3414L19.3843 37.3482C19.4211 37.5233 19.387 37.7059 19.2895 37.856C19.1914 38.0056 19.038 38.1102 18.863 38.1471L7.86036 40.5305C7.55801 40.5976 7.24925 40.6317 6.93952 40.632ZM5.05046 27.5305C4.6693 27.6124 4.30803 27.7687 3.98733 27.9904C3.66664 28.2121 3.3928 28.4949 3.1815 28.8225C2.97019 29.1502 2.82557 29.5163 2.7559 29.8999C2.68622 30.2835 2.69287 30.677 2.77546 31.0581L4.06192 36.9284C4.14306 37.3108 4.29903 37.6735 4.52086 37.9955C4.74269 38.3174 5.02599 38.5924 5.35448 38.8044C5.68296 39.0165 6.05013 39.1615 6.43487 39.2312C6.81961 39.3008 7.21432 39.2936 7.5963 39.2101L17.9421 36.969L15.4166 25.2893L5.05046 27.5305Z" fill="#1A1A1A"/>
<path d="M40.8957 31.6742C40.7429 31.6794 40.5928 31.6327 40.4698 31.5418C40.3469 31.4508 40.2583 31.3208 40.2187 31.1731C40.1952 31.0869 40.189 30.9968 40.2004 30.9082C40.2119 30.8195 40.2408 30.734 40.2855 30.6566C40.3302 30.5791 40.3898 30.5113 40.4608 30.457C40.5319 30.4028 40.6129 30.3631 40.6994 30.3403C41.7599 30.044 42.6672 29.3539 43.2359 28.4111C43.8046 27.4683 43.9918 26.3438 43.7593 25.2676C43.5267 24.1913 42.892 23.2445 41.9847 22.6206C41.0775 21.9966 39.9662 21.7427 38.878 21.9106C38.6985 21.9403 38.5145 21.8973 38.3665 21.7913C38.2186 21.6853 38.1189 21.5248 38.0892 21.3453C38.0596 21.1657 38.1025 20.9817 38.2086 20.8338C38.3146 20.6858 38.475 20.5861 38.6546 20.5565C40.089 20.3256 41.5573 20.6538 42.7568 21.4734C43.9564 22.293 44.7959 23.5415 45.1024 24.9616C45.4088 26.3818 45.1588 27.8654 44.4039 29.1067C43.649 30.348 42.4466 31.2524 41.0447 31.6335C40.9966 31.6524 40.9467 31.666 40.8957 31.6742Z" fill="#1A1A1A"/>
<path d="M17.9832 55.8489C17.4372 55.8513 16.8991 55.7183 16.417 55.4619C15.9349 55.2056 15.5239 54.8337 15.2207 54.3796C11.666 48.9629 9.80401 42.7947 9.05922 39.5853C9.02916 39.4157 9.06489 39.241 9.15913 39.0968C9.25338 38.9525 9.39906 38.8497 9.56649 38.8091C9.73392 38.7686 9.91052 38.7933 10.0603 38.8784C10.2101 38.9635 10.3219 39.1025 10.3728 39.2671C11.1311 42.3952 12.9051 48.4145 16.3514 53.6348C16.4959 53.8504 16.6814 54.0355 16.8974 54.1794C17.1134 54.3233 17.3557 54.4233 17.6103 54.4736C17.865 54.5239 18.127 54.5235 18.3815 54.4725C18.636 54.4216 18.878 54.321 19.0936 54.1765C19.3092 54.032 19.4943 53.8464 19.6382 53.6304C19.7821 53.4144 19.8821 53.1722 19.9324 52.9176C19.9826 52.6629 19.9823 52.4009 19.9313 52.1464C19.8804 51.8919 19.7797 51.6499 19.6353 51.4343L18.3488 49.5452C18.2396 49.3804 18.1047 49.2341 17.9493 49.1119L16.3717 47.839C15.9496 47.499 15.6172 47.0609 15.4035 46.5628C15.1899 46.0647 15.1016 45.5218 15.1462 44.9817L15.3155 43.0858C15.3464 42.6804 15.2493 42.2754 15.0379 41.928L14.029 40.2421C13.6882 39.6973 13.5184 39.0629 13.5415 38.4207C13.5496 38.2412 13.6287 38.0722 13.7614 37.9509C13.8941 37.8296 14.0695 37.766 14.2491 37.7741C14.4286 37.7822 14.5976 37.8613 14.7189 37.994C14.8402 38.1267 14.9038 38.3021 14.8957 38.4817C14.8763 38.8553 14.9707 39.2259 15.1665 39.5447L16.1754 41.2239C16.5361 41.8145 16.6997 42.5045 16.6426 43.1942L16.4733 45.0968C16.4485 45.4171 16.5021 45.7387 16.6295 46.0336C16.7569 46.3285 16.9543 46.588 17.2045 46.7895L18.7821 48.0556C19.0441 48.2657 19.2724 48.5146 19.4592 48.7937L20.7186 50.6759C20.9553 51.0238 21.1209 51.415 21.2061 51.827C21.3113 52.3113 21.3066 52.813 21.1925 53.2952C21.0784 53.7774 20.8577 54.228 20.5466 54.6138C20.2355 54.9995 19.842 55.3107 19.3949 55.5244C18.9477 55.7382 18.4584 55.849 17.9629 55.8489H17.9832Z" fill="#1A1A1A"/>
<path d="M48.7494 19.9742C48.6095 19.9734 48.4733 19.9293 48.3595 19.8479C48.2457 19.7665 48.1599 19.6519 48.1138 19.5198C48.0678 19.3877 48.0639 19.2446 48.1025 19.1101C48.1411 18.9757 48.2204 18.8565 48.3296 18.769L58.1879 10.9893C58.3282 10.8786 58.5066 10.8278 58.6842 10.8481C58.8617 10.8684 59.0241 10.9581 59.1358 11.0976C59.1917 11.1673 59.2332 11.2473 59.258 11.3331C59.2828 11.4189 59.2904 11.5088 59.2803 11.5975C59.2703 11.6862 59.2427 11.7721 59.1993 11.8502C59.1559 11.9282 59.0975 11.9969 59.0275 12.0523L49.1488 19.832C49.0343 19.9209 48.8943 19.9708 48.7494 19.9742Z" fill="#1A1A1A"/>
<path d="M62.968 32.3765C62.9141 32.383 62.8595 32.383 62.8055 32.3765L50.618 29.3432C50.4499 29.2946 50.3071 29.1828 50.2196 29.0312C50.1321 28.8796 50.1067 28.7 50.1487 28.5301C50.1908 28.3602 50.297 28.2132 50.4451 28.1198C50.5932 28.0265 50.7716 27.9942 50.943 28.0296L63.1305 31.063C63.2195 31.0736 63.3054 31.1017 63.3835 31.1456C63.4615 31.1895 63.5302 31.2483 63.5855 31.3187C63.6408 31.3892 63.6818 31.4698 63.7059 31.556C63.7301 31.6422 63.737 31.7324 63.7264 31.8213C63.7157 31.9102 63.6876 31.9962 63.6437 32.0742C63.5999 32.1523 63.541 32.221 63.4706 32.2763C63.4002 32.3316 63.3196 32.3725 63.2333 32.3967C63.1471 32.4209 63.057 32.4278 62.968 32.4171V32.3765Z" fill="#1A1A1A"/>
<path d="M49.4277 24.7306C49.2481 24.7495 49.0684 24.6963 48.9281 24.5826C48.7878 24.469 48.6984 24.3042 48.6795 24.1247C48.6607 23.9451 48.7139 23.7654 48.8276 23.6251C48.9412 23.4848 49.1059 23.3953 49.2855 23.3765L60.0173 21.0609C60.1923 21.0247 60.3745 21.0593 60.5242 21.1569C60.6738 21.2546 60.7788 21.4075 60.8162 21.5822C60.8525 21.7563 60.8189 21.9376 60.7227 22.0871C60.6264 22.2366 60.4751 22.3422 60.3016 22.3812L49.5699 24.7171L49.4277 24.7306Z" fill="#1A1A1A"/>
</svg>
