<svg width="30" height="30" viewBox="0 0 30 30" fill="none" xmlns="http://www.w3.org/2000/svg">
<path d="M24.8594 22.9344H5.14063C4.77532 22.9352 4.42442 22.792 4.16407 22.5357C3.90372 22.2795 3.75494 21.9309 3.75 21.5656V12.3438C3.75 12.2609 3.78292 12.1814 3.84153 12.1228C3.90013 12.0642 3.97962 12.0312 4.0625 12.0312C4.14538 12.0312 4.22487 12.0642 4.28347 12.1228C4.34208 12.1814 4.375 12.2609 4.375 12.3438V21.5656C4.375 21.6656 4.39474 21.7646 4.4331 21.8569C4.47146 21.9493 4.52767 22.0331 4.59852 22.1037C4.66937 22.1742 4.75345 22.2301 4.84594 22.2681C4.93843 22.3061 5.03751 22.3254 5.1375 22.325H24.8563C24.9568 22.3262 25.0565 22.3075 25.1497 22.2699C25.2429 22.2323 25.3278 22.1766 25.3993 22.1059C25.4708 22.0353 25.5276 21.9512 25.5663 21.8584C25.6051 21.7657 25.625 21.6661 25.625 21.5656V12.3469C25.625 12.264 25.6579 12.1845 25.7165 12.1259C25.7751 12.0673 25.8546 12.0344 25.9375 12.0344C26.0204 12.0344 26.0999 12.0673 26.1585 12.1259C26.2171 12.1845 26.25 12.264 26.25 12.3469V21.5656C26.2451 21.9309 26.0963 22.2795 25.8359 22.5357C25.5756 22.792 25.2247 22.9352 24.8594 22.9344Z" fill="#1A1A1A"/>
<path d="M5.75625 13.3891C5.05977 13.3899 4.39144 13.1142 3.89807 12.6226C3.40471 12.131 3.12666 11.4637 3.125 10.7672V8.08594C3.125 8.00306 3.15792 7.92357 3.21653 7.86497C3.27513 7.80636 3.35462 7.77344 3.4375 7.77344H8.06562C8.14851 7.77344 8.22799 7.80636 8.2866 7.86497C8.3452 7.92357 8.37812 8.00306 8.37812 8.08594V10.7672C8.3773 11.4623 8.1008 12.1287 7.60928 12.6202C7.11776 13.1117 6.45136 13.3882 5.75625 13.3891ZM3.75625 8.38906V10.7578C3.77667 11.2742 3.99615 11.7626 4.3687 12.1207C4.74125 12.4788 5.23794 12.6788 5.75469 12.6788C6.27144 12.6788 6.76813 12.4788 7.14067 12.1207C7.51322 11.7626 7.7327 11.2742 7.75312 10.7578V8.39844L3.75625 8.38906Z" fill="#1A1A1A"/>
<path d="M10.3789 13.3891C9.68351 13.3882 9.01678 13.1118 8.52477 12.6204C8.03275 12.129 7.75556 11.4626 7.75391 10.7672V8.08594C7.75391 8.00306 7.78683 7.92357 7.84544 7.86497C7.90404 7.80636 7.98353 7.77344 8.06641 7.77344H12.6883C12.7712 7.77344 12.8506 7.80636 12.9093 7.86497C12.9679 7.92357 13.0008 8.00306 13.0008 8.08594V10.7672C13 11.4623 12.7235 12.1287 12.2319 12.6202C11.7404 13.1117 11.074 13.3882 10.3789 13.3891ZM8.37891 8.38906V10.7578C8.39933 11.2742 8.61881 11.7626 8.99136 12.1207C9.3639 12.4788 9.8606 12.6788 10.3773 12.6788C10.8941 12.6788 11.3908 12.4788 11.7633 12.1207C12.1359 11.7626 12.3554 11.2742 12.3758 10.7578V8.39844L8.37891 8.38906Z" fill="#1A1A1A"/>
<path d="M15 13.3891C14.3046 13.3882 13.6379 13.1118 13.1459 12.6204C12.6538 12.129 12.3767 11.4626 12.375 10.7672V8.08594C12.375 8.00306 12.4079 7.92357 12.4665 7.86497C12.5251 7.80636 12.6046 7.77344 12.6875 7.77344H17.3125C17.3954 7.77344 17.4749 7.80636 17.5335 7.86497C17.5921 7.92357 17.625 8.00306 17.625 8.08594V10.7672C17.6233 11.4626 17.3462 12.129 16.8541 12.6204C16.3621 13.1118 15.6954 13.3882 15 13.3891ZM13 8.38906V10.7578C13 11.2882 13.2107 11.797 13.5858 12.172C13.9609 12.5471 14.4696 12.7578 15 12.7578C15.5304 12.7578 16.0391 12.5471 16.4142 12.172C16.7893 11.797 17 11.2882 17 10.7578V8.39844L13 8.38906Z" fill="#1A1A1A"/>
<path d="M19.6219 13.3891C18.9268 13.3882 18.2604 13.1117 17.7688 12.6202C17.2773 12.1287 17.0008 11.4623 17 10.7672V8.08594C17 8.00306 17.0329 7.92357 17.0915 7.86497C17.1501 7.80636 17.2296 7.77344 17.3125 7.77344H21.9344C22.0173 7.77344 22.0967 7.80636 22.1553 7.86497C22.214 7.92357 22.2469 8.00306 22.2469 8.08594V10.7672C22.2452 11.4626 21.968 12.129 21.476 12.6204C20.984 13.1118 20.3173 13.3882 19.6219 13.3891ZM17.625 8.38906V10.7578C17.6454 11.2742 17.8649 11.7626 18.2375 12.1207C18.61 12.4788 19.1067 12.6788 19.6234 12.6788C20.1402 12.6788 20.6369 12.4788 21.0094 12.1207C21.382 11.7626 21.6015 11.2742 21.6219 10.7578V8.39844L17.625 8.38906Z" fill="#1A1A1A"/>
<path d="M24.243 13.3891C23.5479 13.3882 22.8815 13.1117 22.3899 12.6202C21.8984 12.1287 21.6219 11.4623 21.6211 10.7672V8.08594C21.6211 8.00306 21.654 7.92357 21.7126 7.86497C21.7712 7.80636 21.8507 7.77344 21.9336 7.77344H26.5617C26.6446 7.77344 26.7241 7.80636 26.7827 7.86497C26.8413 7.92357 26.8742 8.00306 26.8742 8.08594V10.7672C26.8726 11.4637 26.5945 12.131 26.1011 12.6226C25.6078 13.1142 24.9395 13.3899 24.243 13.3891ZM22.2461 8.38906V10.7578C22.2665 11.2742 22.486 11.7626 22.8585 12.1207C23.2311 12.4788 23.7278 12.6788 24.2445 12.6788C24.7613 12.6788 25.258 12.4788 25.6305 12.1207C26.0031 11.7626 26.2225 11.2742 26.243 10.7578V8.39844L22.2461 8.38906Z" fill="#1A1A1A"/>
<path d="M26.5623 8.47982H3.43734C3.37844 8.47966 3.32079 8.46285 3.27102 8.43133C3.22126 8.39981 3.18142 8.35488 3.15609 8.3017C3.13044 8.24857 3.12035 8.18927 3.12698 8.13066C3.13362 8.07204 3.15671 8.01649 3.19359 7.97045L6.56234 3.7767C6.74987 3.5434 6.98798 3.35578 7.25867 3.22802C7.52935 3.10025 7.82554 3.03569 8.12484 3.0392H21.9061C22.2001 3.04039 22.4902 3.10722 22.7551 3.23481C23.02 3.3624 23.2531 3.54753 23.4373 3.7767L26.7998 7.97045C26.8367 8.01649 26.8598 8.07204 26.8665 8.13066C26.8731 8.18927 26.863 8.24857 26.8373 8.3017C26.8125 8.35393 26.7736 8.39824 26.7251 8.42969C26.6765 8.46114 26.6202 8.47849 26.5623 8.47982ZM4.10297 7.85482H25.903L22.9467 4.17045C22.82 4.01216 22.6592 3.88445 22.4764 3.7968C22.2935 3.70916 22.0932 3.66384 21.8905 3.6642H8.12484C7.92207 3.66384 7.72181 3.70916 7.53895 3.7968C7.35609 3.88445 7.19533 4.01216 7.06859 4.17045L4.10297 7.85482Z" fill="#1A1A1A"/>
<path d="M22.1465 22.9328H16.5215C16.4386 22.9328 16.3591 22.8999 16.3005 22.8413C16.2419 22.7827 16.209 22.7032 16.209 22.6203V16.5109C16.2098 16.0918 16.3767 15.6901 16.673 15.3937C16.9694 15.0974 17.3711 14.9305 17.7902 14.9297H20.8777C21.2969 14.9305 21.6986 15.0974 21.9949 15.3937C22.2913 15.6901 22.4582 16.0918 22.459 16.5109V22.6203C22.459 22.7032 22.4261 22.7827 22.3675 22.8413C22.3089 22.8999 22.2294 22.9328 22.1465 22.9328ZM16.834 22.3078H21.834V16.5109C21.834 16.2573 21.7332 16.0141 21.5539 15.8348C21.3746 15.6554 21.1313 15.5547 20.8777 15.5547H17.7902C17.5366 15.5547 17.2934 15.6554 17.1141 15.8348C16.9347 16.0141 16.834 16.2573 16.834 16.5109V22.3078Z" fill="#1A1A1A"/>
<path d="M28.4164 26.9594H1.58518C1.38022 26.9606 1.18027 26.896 1.01482 26.775C0.849367 26.654 0.727175 26.4831 0.666256 26.2873C0.605338 26.0916 0.608917 25.8815 0.676466 25.688C0.744015 25.4945 0.871959 25.3278 1.04143 25.2125L2.42893 24.25C2.972 23.8727 3.61767 23.6709 4.27893 23.6719H25.7227C26.3839 23.6709 27.0296 23.8727 27.5727 24.25L28.9602 25.2125C29.1297 25.3278 29.2576 25.4945 29.3252 25.688C29.3927 25.8815 29.3963 26.0916 29.3354 26.2873C29.2744 26.4831 29.1522 26.654 28.9868 26.775C28.8214 26.896 28.6214 26.9606 28.4164 26.9594ZM4.27893 24.2969C3.74526 24.2966 3.22419 24.4591 2.78518 24.7625L1.39456 25.7281C1.33725 25.7691 1.29437 25.8272 1.27204 25.8941C1.24971 25.9609 1.24906 26.0331 1.2702 26.1003C1.29134 26.1676 1.33318 26.2264 1.38975 26.2684C1.44631 26.3104 1.51471 26.3335 1.58518 26.3344H28.4164C28.4869 26.3335 28.5553 26.3104 28.6119 26.2684C28.6684 26.2264 28.7103 26.1676 28.7314 26.1003C28.7526 26.0331 28.7519 25.9609 28.7296 25.8941C28.7072 25.8272 28.6644 25.7691 28.6071 25.7281L27.2164 24.7625C26.7774 24.4591 26.2564 24.2966 25.7227 24.2969H4.27893Z" fill="#1A1A1A"/>
</svg>
