<svg width="30" height="30" viewBox="0 0 30 30" fill="none" xmlns="http://www.w3.org/2000/svg">
<path d="M28.9732 8.11857L21.3303 0.176836C21.2215 0.0638672 21.0714 0 20.9146 0H9.5234C8.24857 0 7.21141 1.03676 7.21141 2.31105V10.3846H2.59498C1.64119 10.3846 0.865234 11.1604 0.865234 12.1139V20.7708C0.865234 21.7243 1.64119 22.5 2.59498 22.5H7.21141V27.693C7.21141 28.9651 8.24857 30 9.5234 30H26.8225C28.0973 30 29.1345 28.9656 29.1345 27.6943V8.51865C29.1345 8.36947 29.0767 8.22609 28.9732 8.11857ZM21.0576 1.55748L27.3317 8.07691H21.0576V1.55748ZM2.59498 21.3462C2.2774 21.3462 2.01912 21.0881 2.01912 20.7708V12.1139C2.01912 11.7966 2.27746 11.5385 2.59498 11.5385H18.174C18.4916 11.5385 18.7499 11.7966 18.7499 12.1139V20.7708C18.7499 21.0881 18.4915 21.3462 18.174 21.3462H2.59498ZM27.9806 27.6943C27.9806 28.3294 27.4611 28.8462 26.8224 28.8462H9.5234C8.88479 28.8462 8.36523 28.3289 8.36523 27.693V22.5H18.174C19.1278 22.5 19.9037 21.7243 19.9037 20.7708V12.1139C19.9037 11.1604 19.1278 10.3846 18.174 10.3846H8.36523V2.31105C8.36523 1.67291 8.88479 1.15383 9.5234 1.15383H19.9037V8.65383C19.9037 8.97246 20.162 9.23074 20.4806 9.23074H27.9806V27.6943Z" fill="#EA4723"/>
<path d="M7.76279 14.6376C7.57125 14.3886 7.33348 14.2268 7.04953 14.1525C6.86473 14.1029 6.46811 14.0781 5.85961 14.0781H4.25391V19.0338H5.25451V17.1644H5.90695C6.35994 17.1644 6.70588 17.1408 6.94477 17.0934C7.12055 17.0551 7.29352 16.9768 7.46367 16.8585C7.63383 16.7402 7.7741 16.5773 7.88455 16.37C7.995 16.1627 8.0502 15.9069 8.0502 15.6027C8.05014 15.2083 7.95434 14.8866 7.76279 14.6376ZM6.90586 16.0016C6.83039 16.112 6.72615 16.1931 6.59314 16.245C6.46014 16.2968 6.19652 16.3227 5.80213 16.3227H5.25451V14.9165H5.73791C6.0985 14.9165 6.3385 14.9277 6.45791 14.9503C6.62016 14.9796 6.75428 15.0528 6.86016 15.17C6.96609 15.2872 7.01906 15.436 7.01906 15.6162C7.01912 15.7627 6.98133 15.8911 6.90586 16.0016Z" fill="#EA4723"/>
<path d="M12.8595 15.432C12.7513 15.1154 12.5935 14.8478 12.3862 14.6291C12.1789 14.4105 11.9298 14.2584 11.6391 14.1728C11.4228 14.1096 11.1084 14.0781 10.696 14.0781H8.86719V19.0338H10.7501C11.1197 19.0338 11.4149 18.9989 11.6357 18.929C11.931 18.8344 12.1654 18.7025 12.3389 18.5335C12.5687 18.3104 12.7456 18.0186 12.8696 17.658C12.971 17.3627 13.0217 17.0112 13.0217 16.6033C13.0217 16.139 12.9676 15.7486 12.8595 15.432ZM11.8859 17.467C11.8183 17.689 11.731 17.8485 11.6239 17.9453C11.5169 18.0422 11.3822 18.111 11.22 18.1515C11.096 18.1831 10.8943 18.1988 10.6149 18.1988H9.86779V14.9165H10.3174C10.7253 14.9165 10.9991 14.9322 11.1388 14.9638C11.3258 15.0044 11.4802 15.0821 11.6019 15.1971C11.7236 15.3121 11.8183 15.472 11.8859 15.6771C11.9535 15.8822 11.9873 16.1762 11.9873 16.5594C11.9873 16.9425 11.9535 17.245 11.8859 17.467Z" fill="#EA4723"/>
<path d="M17.2743 14.9165V14.0781H13.877V19.0338H14.8776V16.9278H16.9464V16.0895H14.8776V14.9165H17.2743Z" fill="#EA4723"/>
</svg>
