<svg width="257" height="207" viewBox="0 0 257 207" fill="none" xmlns="http://www.w3.org/2000/svg">
<g opacity="0.3">
<path d="M201.603 124.803C202.728 118.058 201.086 113.546 197.507 110.582C194.052 107.72 188.969 106.467 183.606 105.687C181.088 105.321 178.452 105.053 175.832 104.787C175.638 104.767 175.443 104.747 175.248 104.728C172.426 104.44 169.629 104.146 166.963 103.723C161.598 102.872 156.975 101.527 153.883 98.8718C147.562 93.2082 145.301 83.4931 144.884 73.0086C144.541 64.3593 145.457 55.4419 146.192 48.2801C146.345 46.7962 146.489 45.3876 146.613 44.0724C146.689 43.3416 146.764 42.6065 146.838 41.8682C147.475 35.5739 148.135 29.0543 149.919 23.0857C151.903 16.4521 155.245 10.6191 161.4 6.66438C164.44 4.7114 168.539 3.44937 173.285 2.6978C178.018 1.94823 183.314 1.71837 188.69 1.77562C196.241 1.85602 203.841 2.49762 210.212 3.03545C212.942 3.26587 215.446 3.47725 217.624 3.61726C231.714 4.52249 245.04 11.2834 249.618 24.5076C256.719 45.9539 257.677 72.0188 252.927 96.283L252.901 96.4137L252.906 96.5467C253.612 114.451 247.025 132.893 236.753 149.658C226.486 166.415 212.589 181.411 198.814 192.397C193.421 196.69 185.31 201.221 176.87 203.48C168.41 205.745 159.844 205.674 153.306 201.111L153.303 201.11C147.442 197.043 143.719 192.623 142.267 187.777C140.823 182.961 141.56 177.52 145.041 171.259L145.089 171.172L145.122 171.077C145.434 170.175 145.98 169.885 146.931 169.427L147.095 169.348L147.227 169.221C147.92 168.553 149.042 168.157 150.262 168.157H150.275L150.288 168.157C160.917 167.919 172.875 162.229 182.559 154.122C192.239 146.018 199.868 135.311 201.603 124.803ZM201.603 124.803C201.603 124.803 201.603 124.803 201.603 124.804L200.48 124.616L201.604 124.802C201.604 124.802 201.603 124.802 201.603 124.803Z" stroke="white" stroke-width="2.27837"/>
<path d="M10.0182 168.157H10.031L10.0438 168.157C20.6731 167.919 32.6315 162.229 42.3149 154.122C51.9919 146.021 59.6193 135.318 61.3576 124.813C62.6034 118.075 61.0303 113.556 57.4678 110.584C54.0325 107.719 48.9304 106.466 43.5398 105.687C41.0064 105.321 38.3514 105.053 35.7115 104.786C35.5173 104.767 35.3233 104.747 35.1293 104.728C32.2871 104.44 29.4697 104.146 26.7851 103.723C21.3803 102.872 16.7296 101.526 13.6392 98.8718C7.3175 93.2082 5.0564 83.4931 4.64024 73.0086C4.29694 64.3593 5.21268 55.4419 5.94813 48.2801C6.10051 46.7962 6.24516 45.3876 6.36926 44.0724C6.44501 43.3423 6.51932 42.6079 6.59393 41.8703C7.23072 35.5754 7.89033 29.055 9.67519 23.0857C11.6587 16.4521 15.0009 10.6192 21.1556 6.66438C24.1958 4.7114 28.2949 3.44937 33.0407 2.6978C37.774 1.94823 43.0699 1.71837 48.4462 1.77562C55.9963 1.85602 63.597 2.49762 69.9682 3.03545C72.6979 3.26587 75.202 3.47725 77.3796 3.61726C91.4704 4.52248 104.796 11.2834 109.374 24.5075C116.474 45.9538 117.433 72.0187 112.682 96.283L112.657 96.4137L112.662 96.5467C113.368 114.451 106.78 132.893 96.5085 149.658C86.2418 166.415 72.345 181.411 58.5694 192.397C53.1763 196.69 45.0649 201.221 36.625 203.48C28.1653 205.745 19.5993 205.674 13.0607 201.111L13.0582 201.11C7.19662 197.043 3.47444 192.623 2.02174 187.777C0.578178 182.961 1.31518 177.52 4.79577 171.259L4.844 171.172L4.8765 171.078C5.1894 170.175 5.7357 169.885 6.68633 169.427L6.85103 169.348L6.98265 169.221C7.67532 168.553 8.79797 168.157 10.0182 168.157Z" stroke="white" stroke-width="2.27837"/>
</g>
</svg>
