<svg width="30" height="30" viewBox="0 0 30 30" fill="none" xmlns="http://www.w3.org/2000/svg">
<path d="M23.9844 29.375H6.01563C5.53078 29.375 5.06579 29.1824 4.72295 28.8396C4.38011 28.4967 4.1875 28.0317 4.1875 27.5469V2.45312C4.18833 1.96853 4.3812 1.50402 4.72386 1.16136C5.06652 0.818697 5.53103 0.625826 6.01563 0.625H23.9844C24.469 0.625826 24.9335 0.818697 25.2761 1.16136C25.6188 1.50402 25.8117 1.96853 25.8125 2.45312V27.5469C25.8125 28.0317 25.6199 28.4967 25.2771 28.8396C24.9342 29.1824 24.4692 29.375 23.9844 29.375ZM6.01563 1.25C5.69654 1.25 5.39052 1.37676 5.16489 1.60239C4.93926 1.82802 4.8125 2.13404 4.8125 2.45312V27.5469C4.8125 27.866 4.93926 28.172 5.16489 28.3976C5.39052 28.6232 5.69654 28.75 6.01563 28.75H23.9844C24.3035 28.75 24.6095 28.6232 24.8351 28.3976C25.0607 28.172 25.1875 27.866 25.1875 27.5469V2.45312C25.1875 2.13404 25.0607 1.82802 24.8351 1.60239C24.6095 1.37676 24.3035 1.25 23.9844 1.25H6.01563Z" fill="#1A1A1A"/>
<path d="M23.4867 17.4531H6.51172C6.42884 17.4531 6.34935 17.4202 6.29075 17.3616C6.23214 17.303 6.19922 17.2235 6.19922 17.1406C6.19922 17.0577 6.23214 16.9783 6.29075 16.9197C6.34935 16.861 6.42884 16.8281 6.51172 16.8281H23.4867C23.5696 16.8281 23.6491 16.861 23.7077 16.9197C23.7663 16.9783 23.7992 17.0577 23.7992 17.1406C23.7992 17.2235 23.7663 17.303 23.7077 17.3616C23.6491 17.4202 23.5696 17.4531 23.4867 17.4531Z" fill="#1A1A1A"/>
<path d="M10.0477 17.4469H8.03516C7.95228 17.4469 7.87279 17.414 7.81419 17.3553C7.75558 17.2967 7.72266 17.2173 7.72266 17.1344V13.8594C7.72266 13.7765 7.75558 13.697 7.81419 13.6384C7.87279 13.5798 7.95228 13.5469 8.03516 13.5469H10.0477C10.1305 13.5469 10.21 13.5798 10.2686 13.6384C10.3272 13.697 10.3602 13.7765 10.3602 13.8594V17.1344C10.3602 17.2173 10.3272 17.2967 10.2686 17.3553C10.21 17.414 10.1305 17.4469 10.0477 17.4469ZM8.34766 16.8219H9.73516V14.1719H8.34766V16.8219Z" fill="#1A1A1A"/>
<path d="M14.0184 17.45H12.0059C11.923 17.45 11.8435 17.4171 11.7849 17.3585C11.7263 17.2999 11.6934 17.2204 11.6934 17.1375V10.1875C11.6934 10.1046 11.7263 10.0251 11.7849 9.96653C11.8435 9.90792 11.923 9.875 12.0059 9.875H14.0184C14.1012 9.875 14.1807 9.90792 14.2393 9.96653C14.2979 10.0251 14.3309 10.1046 14.3309 10.1875V17.1375C14.3309 17.2204 14.2979 17.2999 14.2393 17.3585C14.1807 17.4171 14.1012 17.45 14.0184 17.45ZM12.3184 16.825H13.7059V10.5H12.3184V16.825Z" fill="#1A1A1A"/>
<path d="M17.993 17.4484H15.9805C15.8976 17.4484 15.8181 17.4155 15.7595 17.3569C15.7009 17.2983 15.668 17.2188 15.668 17.1359V8.27344C15.668 8.19056 15.7009 8.11107 15.7595 8.05247C15.8181 7.99386 15.8976 7.96094 15.9805 7.96094H17.993C18.0758 7.96094 18.1553 7.99386 18.2139 8.05247C18.2725 8.11107 18.3055 8.19056 18.3055 8.27344V17.1359C18.3055 17.2188 18.2725 17.2983 18.2139 17.3569C18.1553 17.4155 18.0758 17.4484 17.993 17.4484ZM16.293 16.8234H17.6805V8.58594H16.293V16.8234Z" fill="#1A1A1A"/>
<path d="M21.9656 17.4484H19.9531C19.8702 17.4484 19.7908 17.4155 19.7322 17.3569C19.6735 17.2983 19.6406 17.2188 19.6406 17.1359V4.92969C19.6406 4.84681 19.6735 4.76732 19.7322 4.70872C19.7908 4.65011 19.8702 4.61719 19.9531 4.61719H21.9656C22.0485 4.61719 22.128 4.65011 22.1866 4.70872C22.2452 4.76732 22.2781 4.84681 22.2781 4.92969V17.1359C22.2781 17.2188 22.2452 17.2983 22.1866 17.3569C22.128 17.4155 22.0485 17.4484 21.9656 17.4484ZM20.2656 16.8234H21.6531V5.24219H20.2656V16.8234Z" fill="#1A1A1A"/>
<path d="M19.357 27.0109C18.5641 27.0109 17.7889 26.7758 17.1295 26.3352C16.4702 25.8947 15.9563 25.2685 15.6529 24.5359C15.3494 23.8033 15.27 22.9971 15.4247 22.2194C15.5794 21.4416 15.9613 20.7272 16.522 20.1665C17.0827 19.6058 17.7971 19.2239 18.5748 19.0692C19.3526 18.9145 20.1587 18.9939 20.8914 19.2974C21.624 19.6008 22.2502 20.1147 22.6907 20.7741C23.1313 21.4334 23.3664 22.2086 23.3664 23.0016C23.3648 24.0644 22.9418 25.0832 22.1903 25.8348C21.4387 26.5863 20.4199 27.0093 19.357 27.0109ZM19.357 19.6172C18.6877 19.6172 18.0333 19.8157 17.4768 20.1876C16.9202 20.5594 16.4864 21.088 16.2303 21.7064C15.9741 22.3248 15.9071 23.0053 16.0377 23.6618C16.1683 24.3183 16.4906 24.9214 16.9639 25.3947C17.4372 25.868 18.0403 26.1903 18.6968 26.3209C19.3533 26.4515 20.0338 26.3845 20.6522 26.1283C21.2706 25.8722 21.7992 25.4384 22.171 24.8818C22.5429 24.3253 22.7414 23.6709 22.7414 23.0016C22.7398 22.1045 22.3827 21.2446 21.7483 20.6103C21.114 19.9759 20.2541 19.6188 19.357 19.6172Z" fill="#1A1A1A"/>
<path d="M9.58477 21.5078H6.94727C6.86439 21.5078 6.7849 21.4749 6.7263 21.4163C6.66769 21.3577 6.63477 21.2782 6.63477 21.1953C6.63477 21.1124 6.66769 21.0329 6.7263 20.9743C6.7849 20.9157 6.86439 20.8828 6.94727 20.8828H9.58477C9.66765 20.8828 9.74713 20.9157 9.80574 20.9743C9.86434 21.0329 9.89727 21.1124 9.89727 21.1953C9.89727 21.2782 9.86434 21.3577 9.80574 21.4163C9.74713 21.4749 9.66765 21.5078 9.58477 21.5078Z" fill="#1A1A1A"/>
<path d="M13.6535 23.3125H6.94727C6.86439 23.3125 6.7849 23.2796 6.7263 23.221C6.66769 23.1624 6.63477 23.0829 6.63477 23C6.63477 22.9171 6.66769 22.8376 6.7263 22.779C6.7849 22.7204 6.86439 22.6875 6.94727 22.6875H13.6535C13.7364 22.6875 13.8159 22.7204 13.8745 22.779C13.9331 22.8376 13.966 22.9171 13.966 23C13.966 23.0829 13.9331 23.1624 13.8745 23.221C13.8159 23.2796 13.7364 23.3125 13.6535 23.3125Z" fill="#1A1A1A"/>
<path d="M13.6535 25.1172H6.94727C6.86439 25.1172 6.7849 25.0843 6.7263 25.0257C6.66769 24.9671 6.63477 24.8876 6.63477 24.8047C6.63477 24.7218 6.66769 24.6423 6.7263 24.5837C6.7849 24.5251 6.86439 24.4922 6.94727 24.4922H13.6535C13.7364 24.4922 13.8159 24.5251 13.8745 24.5837C13.9331 24.6423 13.966 24.7218 13.966 24.8047C13.966 24.8876 13.9331 24.9671 13.8745 25.0257C13.8159 25.0843 13.7364 25.1172 13.6535 25.1172Z" fill="#1A1A1A"/>
<path d="M17.2711 26.3641C17.2079 26.3634 17.1462 26.345 17.0929 26.311C17.0246 26.2641 16.9776 26.1921 16.9624 26.1106C16.9471 26.0292 16.9649 25.945 17.0117 25.8766L19.0961 22.811C19.119 22.7766 19.1486 22.7471 19.183 22.7242C19.2174 22.7012 19.2561 22.6854 19.2967 22.6776C19.3373 22.6697 19.3791 22.67 19.4196 22.6784C19.4601 22.6868 19.4985 22.7032 19.5326 22.7265C19.5667 22.7499 19.5959 22.7798 19.6184 22.8145C19.6408 22.8493 19.6562 22.8881 19.6636 22.9288C19.6709 22.9695 19.6701 23.0113 19.6612 23.0516C19.6523 23.092 19.6355 23.1303 19.6117 23.1641L17.5273 26.2172C17.5 26.2609 17.4623 26.2972 17.4176 26.3228C17.3729 26.3485 17.3226 26.3626 17.2711 26.3641Z" fill="#1A1A1A"/>
<path d="M23.0149 23.8266H22.9711L19.3117 23.3109C19.2366 23.3003 19.168 23.2628 19.1185 23.2053C19.0691 23.1478 19.0422 23.0743 19.043 22.9984V19.3047C19.043 19.2218 19.0759 19.1423 19.1345 19.0837C19.1931 19.0251 19.2726 18.9922 19.3555 18.9922C19.4384 18.9922 19.5178 19.0251 19.5765 19.0837C19.6351 19.1423 19.668 19.2218 19.668 19.3047V22.7422L23.0586 23.2172C23.1415 23.223 23.2187 23.2615 23.2732 23.3242C23.3277 23.3869 23.355 23.4687 23.3492 23.5516C23.3434 23.6344 23.3049 23.7116 23.2422 23.7661C23.1795 23.8206 23.0977 23.848 23.0149 23.8422V23.8266Z" fill="#1A1A1A"/>
<path d="M8.71 10.2593C8.65989 10.2596 8.61046 10.2478 8.56586 10.2249C8.52126 10.2021 8.48281 10.1689 8.45375 10.1281C8.42961 10.0947 8.41232 10.0568 8.40287 10.0167C8.39341 9.97659 8.39198 9.93501 8.39867 9.89435C8.40535 9.85369 8.42 9.81475 8.44179 9.77977C8.46358 9.7448 8.49207 9.71448 8.52563 9.69055L17.5662 3.12805C17.6335 3.08029 17.7169 3.06104 17.7982 3.07451C17.8796 3.08797 17.9524 3.13305 18.0006 3.19993C18.0487 3.26678 18.0685 3.34992 18.0556 3.43126C18.0427 3.5126 17.9983 3.58557 17.9319 3.6343L8.89125 10.1968C8.8384 10.2352 8.77529 10.257 8.71 10.2593Z" fill="#1A1A1A"/>
<path d="M17.4094 5.83679H17.3594C17.3188 5.83033 17.2798 5.8159 17.2447 5.79432C17.2096 5.77274 17.1791 5.74443 17.155 5.71104C17.1309 5.67764 17.1137 5.6398 17.1042 5.59971C17.0948 5.55962 17.0934 5.51806 17.1001 5.47741L17.3907 3.66179L15.5751 3.37116C15.4922 3.3579 15.418 3.31226 15.3687 3.24428C15.3195 3.1763 15.2993 3.09154 15.3126 3.00866C15.3258 2.92578 15.3715 2.85157 15.4395 2.80234C15.5074 2.75311 15.5922 2.7329 15.6751 2.74616L17.8126 3.09304C17.8894 3.10963 17.9571 3.15454 18.0023 3.21882C18.0474 3.2831 18.0667 3.36204 18.0563 3.43991L17.7157 5.56491C17.7059 5.6395 17.6696 5.70806 17.6133 5.75801C17.5571 5.80795 17.4847 5.83592 17.4094 5.83679Z" fill="#1A1A1A"/>
</svg>
