<svg width="65" height="66" viewBox="0 0 65 66" fill="none" xmlns="http://www.w3.org/2000/svg">
<path d="M32.1689 63.0599C25.3535 63.0565 18.7315 60.7932 13.3398 56.6242C7.94806 52.4553 4.09099 46.6161 2.37244 40.0208C0.653888 33.4256 1.17088 26.4466 3.84246 20.1766C6.51405 13.9065 11.1894 8.69938 17.1366 5.37039C23.0837 2.04139 29.9669 0.778479 36.7085 1.77937C43.4501 2.78027 49.6695 5.98846 54.3929 10.9017C59.1164 15.8149 62.0773 22.1558 62.812 28.9315C63.5467 35.7073 62.0139 42.5354 58.4533 48.3469C58.3599 48.4918 58.2147 48.5956 58.0473 48.6371C57.88 48.6786 57.7031 48.6548 57.5528 48.5704C57.4766 48.5239 57.4102 48.4628 57.3577 48.3906C57.3052 48.3184 57.2674 48.2365 57.2467 48.1497C57.2259 48.0628 57.2225 47.9727 57.2367 47.8846C57.2509 47.7964 57.2824 47.7119 57.3294 47.636C61.1026 41.489 62.4914 34.1721 61.2329 27.0701C59.9745 19.9681 56.1561 13.5738 50.5005 9.09764C44.8449 4.62145 37.7445 2.37391 30.5433 2.78043C23.3422 3.18695 16.5399 6.21933 11.424 11.3036C6.30809 16.3879 3.2336 23.1712 2.78243 30.3697C2.33127 37.5682 4.53474 44.6824 8.97578 50.3656C13.4168 56.0489 19.7873 59.9069 26.8813 61.2093C33.9754 62.5118 41.3008 61.1684 47.471 57.4334C47.5471 57.3735 47.6351 57.3306 47.7291 57.3075C47.8231 57.2845 47.9209 57.2819 48.0161 57.2999C48.1112 57.3179 48.2013 57.3561 48.2804 57.4119C48.3595 57.4677 48.4257 57.5398 48.4746 57.6234C48.5234 57.707 48.5538 57.8 48.5637 57.8963C48.5735 57.9926 48.5626 58.0899 48.5316 58.1816C48.5007 58.2733 48.4505 58.3573 48.3843 58.428C48.3181 58.4986 48.2376 58.5543 48.1481 58.5912C43.3313 61.5157 37.804 63.0615 32.1689 63.0599Z" fill="#EA4723"/>
<path d="M12.2484 55.5397C12.1523 55.5395 12.0573 55.5189 11.9697 55.4792C11.8822 55.4395 11.8041 55.3817 11.7406 55.3094C11.6223 55.1747 11.5622 54.9985 11.5736 54.8195C11.5851 54.6405 11.667 54.4734 11.8016 54.3548C17.4258 49.393 24.6682 46.6554 32.1682 46.6563C34.2264 46.652 36.2797 46.8585 38.2958 47.2725C38.4754 47.3084 38.6334 47.4142 38.7349 47.5665C38.8365 47.7189 38.8734 47.9054 38.8375 48.085C38.8016 48.2645 38.6958 48.4225 38.5434 48.5241C38.3911 48.6257 38.2046 48.6625 38.025 48.6266C36.0979 48.2317 34.1354 48.0343 32.1682 48.0376C25.001 48.0293 18.077 50.6367 12.6953 55.3704C12.5719 55.4792 12.413 55.5394 12.2484 55.5397Z" fill="#EA4723"/>
<path d="M32.1685 17.8705C24.6678 17.8677 17.426 15.1279 11.8018 10.1653C11.676 10.0445 11.6017 9.87972 11.5943 9.70541C11.587 9.53109 11.6473 9.36069 11.7625 9.22972C11.8778 9.09874 12.0392 9.01731 12.213 9.00241C12.3868 8.9875 12.5597 9.04027 12.6956 9.14971C18.0726 13.8951 24.9969 16.5146 32.1685 16.5164C39.3403 16.5159 46.265 13.8962 51.6414 9.14971C51.7073 9.08639 51.7854 9.03708 51.8708 9.00474C51.9563 8.9724 52.0475 8.9577 52.1388 8.96153C52.2301 8.96537 52.3197 8.98765 52.4022 9.02704C52.4847 9.06643 52.5583 9.1221 52.6187 9.19072C52.6791 9.25934 52.725 9.33947 52.7535 9.42628C52.7821 9.5131 52.7928 9.6048 52.785 9.69587C52.7772 9.78694 52.751 9.87548 52.7081 9.95616C52.6652 10.0368 52.6063 10.108 52.5351 10.1653C46.9116 15.129 39.6693 17.8689 32.1685 17.8705Z" fill="#EA4723"/>
<path d="M32.168 63.0599C23.4878 63.0599 16.4258 49.2474 16.4258 32.2594C16.4258 15.2714 23.4878 1.44531 32.168 1.44531C40.8482 1.44531 47.9169 15.2714 47.9169 32.2594C47.9167 34.3149 47.8128 36.369 47.6055 38.4141C47.597 38.5031 47.571 38.5897 47.5289 38.6686C47.4868 38.7476 47.4294 38.8174 47.3602 38.8741C47.2909 38.9308 47.2111 38.9731 47.1254 38.9988C47.0396 39.0244 46.9497 39.0328 46.8607 39.0234C46.7722 39.0141 46.6864 38.9875 46.6082 38.945C46.53 38.9026 46.461 38.8451 46.405 38.7759C46.349 38.7068 46.3073 38.6272 46.282 38.5419C46.2568 38.4566 46.2487 38.3671 46.2581 38.2786C46.4629 36.2788 46.5646 34.2697 46.5628 32.2594C46.5628 16.0161 40.1034 2.79948 32.168 2.79948C24.2326 2.79948 17.7799 16.0161 17.7799 32.2594C17.7799 48.5026 24.2326 61.7057 32.168 61.7057C35.3706 61.7057 38.5258 59.4375 41.0716 55.3208C41.1683 55.1776 41.3162 55.0767 41.4849 55.0389C41.6536 55.0012 41.8303 55.0293 41.9789 55.1177C42.1299 55.2126 42.2374 55.3633 42.2779 55.537C42.3185 55.7107 42.2889 55.8933 42.1956 56.0453C39.4263 60.575 35.8852 63.0599 32.168 63.0599Z" fill="#EA4723"/>
<path d="M62.291 32.9401H2.0306C1.85103 32.9401 1.67881 32.8688 1.55183 32.7418C1.42485 32.6148 1.35352 32.4426 1.35352 32.263C1.35352 32.0834 1.42485 31.9112 1.55183 31.7843C1.67881 31.6573 1.85103 31.5859 2.0306 31.5859H62.291C62.4706 31.5859 62.6428 31.6573 62.7698 31.7843C62.8968 31.9112 62.9681 32.0834 62.9681 32.263C62.9681 32.4426 62.8968 32.6148 62.7698 32.7418C62.6428 32.8688 62.4706 32.9401 62.291 32.9401Z" fill="#EA4723"/>
<path d="M32.1673 63.0599C31.9877 63.0599 31.8155 62.9886 31.6885 62.8616C31.5616 62.7346 31.4902 62.5624 31.4902 62.3828V2.1224C31.4902 1.94282 31.5616 1.7706 31.6885 1.64363C31.8155 1.51665 31.9877 1.44531 32.1673 1.44531C32.3469 1.44531 32.5191 1.51665 32.6461 1.64363C32.7731 1.7706 32.8444 1.94282 32.8444 2.1224V62.3828C32.8444 62.5624 32.7731 62.7346 32.6461 62.8616C32.5191 62.9886 32.3469 63.0599 32.1673 63.0599Z" fill="#EA4723"/>
<path d="M48.0186 58.6995C45.9314 58.7008 43.8906 58.0829 42.1547 56.924C40.4187 55.7651 39.0656 54.1172 38.2665 52.189C37.4675 50.2608 37.2584 48.1388 37.6658 46.0917C38.0731 44.0446 39.0786 42.1643 40.555 40.6889C42.0314 39.2135 43.9123 38.2092 45.9597 37.8031C48.007 37.3971 50.1289 37.6075 52.0566 38.4078C53.9843 39.2081 55.6313 40.5623 56.7891 42.299C57.9469 44.0357 58.5635 46.0768 58.5608 48.1641C58.5554 50.9578 57.4428 53.6354 55.4667 55.6102C53.4907 57.585 50.8123 58.6959 48.0186 58.6995ZM48.0186 38.9625C46.2001 38.9612 44.4219 39.4991 42.9091 40.5083C41.3963 41.5176 40.2167 42.9527 39.5196 44.6323C38.8224 46.312 38.6389 48.1606 38.9924 49.9445C39.3459 51.7283 40.2204 53.3673 41.5054 54.6542C42.7903 55.9411 44.428 56.818 46.2114 57.1741C47.9947 57.5302 49.8436 57.3495 51.5243 56.6548C53.2049 55.9601 54.6418 54.7826 55.6533 53.2713C56.6647 51.7599 57.2053 49.9826 57.2066 48.1641C57.2066 45.726 56.2391 43.3876 54.5164 41.6624C52.7937 39.9371 50.4567 38.9661 48.0186 38.9625Z" fill="#EA4723"/>
<path d="M60.7078 63.7378C59.9305 63.7372 59.1853 63.4279 58.636 62.8779L52.7589 57.0008C52.6954 56.9379 52.645 56.863 52.6107 56.7805C52.5763 56.698 52.5586 56.6095 52.5586 56.5201C52.5586 56.4307 52.5763 56.3422 52.6107 56.2597C52.645 56.1772 52.6954 56.1023 52.7589 56.0394C52.8857 55.9133 53.0573 55.8425 53.2362 55.8425C53.4151 55.8425 53.5867 55.9133 53.7136 56.0394L59.5839 61.9165C59.8849 62.2037 60.285 62.364 60.7011 62.364C61.1171 62.364 61.5172 62.2037 61.8183 61.9165C61.9661 61.7704 62.0834 61.5964 62.1635 61.4046C62.2436 61.2128 62.2848 61.0071 62.2848 60.7993C62.2848 60.5914 62.2436 60.3857 62.1635 60.1939C62.0834 60.0021 61.9661 59.8282 61.8183 59.6821L55.9344 53.7982C55.8356 53.6685 55.787 53.5076 55.7974 53.3449C55.8077 53.1822 55.8765 53.0288 55.9909 52.9127C56.1053 52.7966 56.2578 52.7257 56.4203 52.713C56.5828 52.7003 56.7445 52.7466 56.8755 52.8435L62.7594 58.7274C63.0323 58.9997 63.2488 59.3232 63.3965 59.6793C63.5442 60.0354 63.6203 60.4171 63.6203 60.8027C63.6203 61.1882 63.5442 61.5699 63.3965 61.926C63.2488 62.2821 63.0323 62.6056 62.7594 62.8779C62.2134 63.4205 61.4775 63.7289 60.7078 63.7378Z" fill="#EA4723"/>
</svg>
