<svg width="63" height="63" viewBox="0 0 63 63" fill="none" xmlns="http://www.w3.org/2000/svg">
<path d="M57.0063 27.9128C56.843 27.9146 56.6845 27.8574 56.5601 27.7516C56.4357 27.6459 56.3537 27.4987 56.3292 27.3373C55.5028 22.1089 53.0417 17.2767 49.2988 13.5338C45.5559 9.79093 40.7237 7.32977 35.4953 6.5034C35.4064 6.48918 35.3212 6.45758 35.2445 6.41041C35.1678 6.36324 35.1011 6.30142 35.0483 6.22849C34.9955 6.15555 34.9575 6.07293 34.9367 5.98534C34.9158 5.89775 34.9124 5.8069 34.9266 5.71799C34.9408 5.62907 34.9724 5.54383 35.0196 5.46712C35.0667 5.39042 35.1286 5.32376 35.2015 5.27095C35.2744 5.21813 35.3571 5.1802 35.4446 5.15932C35.5322 5.13844 35.6231 5.13501 35.712 5.14924C41.2263 6.02043 46.3227 8.61689 50.2691 12.5657C54.2155 16.5145 56.8088 21.6125 57.6766 27.1274C57.7039 27.3042 57.6601 27.4846 57.5548 27.6292C57.4495 27.7738 57.2912 27.8709 57.1146 27.8992L57.0063 27.9128Z" fill="#1A1A1A"/>
<path d="M27.438 57.5182H27.3297C21.808 56.6549 16.7025 54.0619 12.7482 50.1125C8.79389 46.163 6.19461 41.0608 5.32449 35.5401C5.31071 35.4512 5.31458 35.3604 5.33587 35.273C5.35716 35.1856 5.39547 35.1032 5.44859 35.0306C5.50172 34.958 5.56863 34.8965 5.64551 34.8498C5.72238 34.803 5.80771 34.7719 5.89663 34.7581C5.98554 34.7443 6.0763 34.7482 6.16372 34.7695C6.25115 34.7908 6.33352 34.8291 6.40614 34.8822C6.47875 34.9353 6.5402 35.0022 6.58696 35.0791C6.63372 35.156 6.66488 35.2413 6.67866 35.3302C7.50332 40.5588 9.96292 45.3919 13.7046 49.136C17.4462 52.88 22.2777 55.3428 27.5057 56.1708C27.6853 56.1843 27.8522 56.2686 27.9696 56.4051C28.0871 56.5416 28.1455 56.7191 28.132 56.8987C28.1186 57.0783 28.0343 57.2452 27.8978 57.3626C27.7613 57.4801 27.5838 57.5385 27.4042 57.525L27.438 57.5182Z" fill="#1A1A1A"/>
<path d="M5.99375 27.9065H5.88542C5.79728 27.8925 5.71277 27.8613 5.63677 27.8145C5.56076 27.7677 5.49474 27.7064 5.44251 27.6341C5.39029 27.5617 5.35288 27.4797 5.33244 27.3929C5.31201 27.306 5.30895 27.2159 5.32344 27.1279C6.19293 21.6133 8.78782 16.5161 12.7354 12.5685C16.683 8.62091 21.7802 6.02601 27.2948 5.15653C27.4744 5.12869 27.6576 5.17333 27.8043 5.28063C27.951 5.38793 28.049 5.54909 28.0768 5.72866C28.1047 5.90823 28.06 6.09151 27.9527 6.23817C27.8454 6.38483 27.6843 6.48286 27.5047 6.51069C22.2771 7.33497 17.4447 9.79357 13.7007 13.5339C9.95675 17.2743 7.49343 22.1042 6.66406 27.331C6.63974 27.4913 6.55871 27.6375 6.43571 27.7432C6.3127 27.8488 6.15588 27.9067 5.99375 27.9065Z" fill="#1A1A1A"/>
<path d="M35.6026 57.5182C35.5136 57.5254 35.4242 57.5149 35.3393 57.4874C35.2545 57.46 35.1758 57.4161 35.1079 57.3582C35.04 57.3004 34.9842 57.2297 34.9436 57.1503C34.903 57.0709 34.8784 56.9842 34.8713 56.8953C34.8642 56.8064 34.8747 56.717 34.9021 56.6321C34.9296 56.5472 34.9735 56.4686 35.0313 56.4007C35.1481 56.2636 35.3146 56.1784 35.4942 56.1641C40.7238 55.339 45.5575 52.8784 49.3017 49.1354C53.0459 45.3925 55.5081 40.5595 56.3348 35.3302C56.3486 35.2413 56.3798 35.156 56.4265 35.0791C56.4733 35.0022 56.5348 34.9353 56.6074 34.8822C56.68 34.8291 56.7624 34.7908 56.8498 34.7695C56.9372 34.7482 57.028 34.7443 57.1169 34.7581C57.2058 34.7719 57.2911 34.803 57.368 34.8498C57.4449 34.8965 57.5118 34.958 57.5649 35.0306C57.618 35.1032 57.6563 35.1856 57.6776 35.273C57.6989 35.3604 57.7028 35.4512 57.689 35.5401C56.8191 41.0557 54.2232 46.1536 50.2743 50.1013C46.3254 54.049 41.2267 56.6433 35.7109 57.5115L35.6026 57.5182Z" fill="#1A1A1A"/>
<path d="M31.4997 33.8276C30.2691 33.8276 29.066 33.4627 28.0428 32.7789C27.0195 32.0952 26.222 31.1234 25.751 29.9864C25.28 28.8494 25.1568 27.5983 25.3969 26.3913C25.637 25.1843 26.2296 24.0755 27.0998 23.2053C27.9701 22.3351 29.0788 21.7425 30.2858 21.5024C31.4928 21.2623 32.744 21.3855 33.8809 21.8565C35.0179 22.3274 35.9897 23.125 36.6735 24.1482C37.3572 25.1715 37.7221 26.3745 37.7221 27.6052C37.7203 29.2549 37.0642 30.8366 35.8977 32.0031C34.7311 33.1697 33.1495 33.8258 31.4997 33.8276ZM31.4997 22.7438C30.5366 22.7438 29.5951 23.0294 28.7944 23.5647C27.9937 24.0999 27.3697 24.8606 27.0014 25.7506C26.6332 26.6405 26.5372 27.6197 26.7256 28.5642C26.9139 29.5087 27.3783 30.3762 28.0598 31.0567C28.7413 31.7373 29.6094 32.2004 30.5542 32.3875C31.4989 32.5746 32.478 32.4772 33.3674 32.1077C34.2569 31.7382 35.0167 31.1132 35.5508 30.3117C36.0849 29.5102 36.3693 28.5683 36.368 27.6052C36.3644 26.3158 35.8501 25.0803 34.9377 24.1692C34.0253 23.2581 32.7892 22.7455 31.4997 22.7438Z" fill="#1A1A1A"/>
<path d="M40.7144 41.1839C40.5624 41.1895 40.413 41.1438 40.2901 41.0541C40.1673 40.9644 40.0782 40.836 40.0373 40.6896C38.9472 36.6542 35.4128 33.8307 31.4993 33.8307C27.5857 33.8307 24.0514 36.6542 22.9409 40.6896C22.9168 40.7756 22.8758 40.8559 22.8204 40.926C22.7651 40.996 22.6964 41.0545 22.6184 41.0979C22.5403 41.1413 22.4545 41.1689 22.3657 41.179C22.277 41.1891 22.1872 41.1815 22.1014 41.1568C21.9292 41.1079 21.7835 40.9928 21.6959 40.8367C21.6084 40.6807 21.5862 40.4963 21.6342 40.324C22.9274 35.7062 26.9831 32.4766 31.4993 32.4766C36.0154 32.4766 40.0711 35.7062 41.3644 40.324C41.4123 40.4963 41.3901 40.6807 41.3026 40.8367C41.215 40.9928 41.0693 41.1079 40.8972 41.1568C40.8374 41.1724 40.7761 41.1815 40.7144 41.1839Z" fill="#1A1A1A"/>
<path d="M42.7064 35.8698C41.769 35.8698 40.8526 35.5918 40.0732 35.071C39.2938 34.5502 38.6863 33.81 38.3276 32.944C37.9689 32.0779 37.875 31.125 38.0579 30.2056C38.2407 29.2862 38.6921 28.4417 39.355 27.7788C40.0178 27.116 40.8623 26.6646 41.7817 26.4817C42.7011 26.2988 43.6541 26.3927 44.5201 26.7514C45.3862 27.1101 46.1264 27.7176 46.6472 28.497C47.168 29.2765 47.446 30.1928 47.446 31.1302C47.446 32.3872 46.9466 33.5928 46.0578 34.4816C45.1689 35.3704 43.9634 35.8698 42.7064 35.8698ZM42.7064 27.7042C42.0368 27.7042 41.3823 27.9027 40.8255 28.2747C40.2688 28.6467 39.8349 29.1754 39.5787 29.794C39.3224 30.4126 39.2554 31.0933 39.386 31.75C39.5166 32.4068 39.8391 33.01 40.3125 33.4834C40.786 33.9569 41.3892 34.2793 42.0459 34.41C42.7026 34.5406 43.3833 34.4735 44.0019 34.2173C44.6205 33.9611 45.1493 33.5272 45.5213 32.9704C45.8933 32.4137 46.0918 31.7592 46.0918 31.0896C46.0918 30.1917 45.7351 29.3306 45.1002 28.6957C44.4653 28.0608 43.6043 27.7042 42.7064 27.7042Z" fill="#1A1A1A"/>
<path d="M49.4974 41.2865C49.3445 41.2917 49.1944 41.245 49.0715 41.154C48.9485 41.0631 48.86 40.9331 48.8203 40.7854C48.4697 39.4114 47.6817 38.1887 46.575 37.3019C45.4684 36.4151 44.1034 35.9125 42.6859 35.8698C41.3664 35.8712 40.084 36.3066 39.0365 37.1089C38.8928 37.2166 38.7122 37.2629 38.5345 37.2375C38.3567 37.2121 38.1963 37.1171 38.0885 36.9734C37.9808 36.8298 37.9345 36.6492 37.9599 36.4714C37.9853 36.2937 38.0803 36.1333 38.224 36.0255C39.5057 35.047 41.0734 34.5165 42.6859 34.5156C44.3999 34.5585 46.0533 35.1577 47.3968 36.2227C48.7403 37.2878 49.701 38.7609 50.1339 40.4198C50.1586 40.5056 50.1662 40.5954 50.1561 40.6842C50.146 40.7729 50.1184 40.8588 50.075 40.9368C50.0316 41.0148 49.9731 41.0835 49.9031 41.1389C49.833 41.1942 49.7526 41.2352 49.6667 41.2594C49.6113 41.2741 49.5546 41.2831 49.4974 41.2865Z" fill="#1A1A1A"/>
<path d="M20.2943 35.8698C19.3569 35.8698 18.4405 35.5918 17.6611 35.071C16.8817 34.5502 16.2742 33.81 15.9155 32.944C15.5567 32.0779 15.4629 31.125 15.6458 30.2056C15.8286 29.2862 16.28 28.4417 16.9429 27.7788C17.6057 27.116 18.4502 26.6646 19.3696 26.4817C20.289 26.2988 21.242 26.3927 22.108 26.7514C22.9741 27.1101 23.7143 27.7176 24.2351 28.497C24.7559 29.2765 25.0339 30.1928 25.0339 31.1302C25.0339 32.3872 24.5345 33.5928 23.6457 34.4816C22.7568 35.3704 21.5513 35.8698 20.2943 35.8698ZM20.2943 27.7042C19.6247 27.7042 18.9702 27.9027 18.4134 28.2747C17.8567 28.6467 17.4228 29.1754 17.1666 29.794C16.9103 30.4126 16.8433 31.0933 16.9739 31.75C17.1045 32.4068 17.427 33.01 17.9004 33.4834C18.3739 33.9569 18.9771 34.2793 19.6338 34.41C20.2905 34.5406 20.9712 34.4735 21.5898 34.2173C22.2084 33.9611 22.7372 33.5272 23.1091 32.9704C23.4811 32.4137 23.6797 31.7592 23.6797 31.0896C23.6797 30.1917 23.323 29.3306 22.6881 28.6957C22.0532 28.0608 21.1921 27.7042 20.2943 27.7042Z" fill="#1A1A1A"/>
<path d="M13.5027 41.2906C13.442 41.2972 13.3807 41.2972 13.3199 41.2906C13.234 41.2664 13.1536 41.2255 13.0835 41.1701C13.0135 41.1148 12.955 41.0461 12.9116 40.9681C12.8682 40.89 12.8406 40.8042 12.8305 40.7154C12.8204 40.6267 12.828 40.5368 12.8527 40.451C13.2856 38.7921 14.2462 37.319 15.5898 36.254C16.9333 35.1889 18.5867 34.5898 20.3007 34.5469C21.8985 34.5474 23.4528 35.0678 24.7288 36.0297C24.7999 36.083 24.8598 36.1499 24.9051 36.2264C24.9504 36.3029 24.9802 36.3876 24.9928 36.4756C25.0054 36.5636 25.0005 36.6533 24.9784 36.7394C24.9564 36.8255 24.9175 36.9065 24.8642 36.9776C24.8108 37.0487 24.744 37.1087 24.6675 37.154C24.591 37.1993 24.5063 37.2291 24.4183 37.2416C24.3303 37.2542 24.2406 37.2493 24.1545 37.2273C24.0684 37.2052 23.9874 37.1664 23.9163 37.113C22.8687 36.3107 21.5863 35.8753 20.2668 35.874C18.8505 35.924 17.4889 36.4332 16.3872 37.3248C15.2856 38.2164 14.5037 39.4419 14.1595 40.8167C14.1157 40.9559 14.0282 41.0773 13.9098 41.1627C13.7915 41.2481 13.6487 41.293 13.5027 41.2906Z" fill="#1A1A1A"/>
<path d="M61.9678 32.0104H52.6986C52.519 32.0104 52.3468 31.9391 52.2198 31.8121C52.0928 31.6851 52.0215 31.5129 52.0215 31.3333C52.0215 31.1538 52.0928 30.9815 52.2198 30.8546C52.3468 30.7276 52.519 30.6562 52.6986 30.6562H61.9678C62.1474 30.6562 62.3196 30.7276 62.4466 30.8546C62.5736 30.9815 62.6449 31.1538 62.6449 31.3333C62.6449 31.5129 62.5736 31.6851 62.4466 31.8121C62.3196 31.9391 62.1474 32.0104 61.9678 32.0104Z" fill="#1A1A1A"/>
<path d="M31.4993 10.8109C31.3198 10.8109 31.1476 10.7396 31.0206 10.6126C30.8936 10.4856 30.8223 10.3134 30.8223 10.1339V0.864583C30.8223 0.68501 30.8936 0.512791 31.0206 0.385813C31.1476 0.258835 31.3198 0.1875 31.4993 0.1875C31.6789 0.1875 31.8511 0.258835 31.9781 0.385813C32.1051 0.512791 32.1764 0.68501 32.1764 0.864583V10.1339C32.1764 10.3134 32.1051 10.4856 31.9781 10.6126C31.8511 10.7396 31.6789 10.8109 31.4993 10.8109Z" fill="#1A1A1A"/>
<path d="M10.2999 32.0104H1.0306C0.851025 32.0104 0.678806 31.9391 0.551829 31.8121C0.424851 31.6851 0.353516 31.5129 0.353516 31.3333C0.353516 31.1538 0.424851 30.9815 0.551829 30.8546C0.678806 30.7276 0.851025 30.6562 1.0306 30.6562H10.2999C10.4794 30.6562 10.6517 30.7276 10.7786 30.8546C10.9056 30.9815 10.977 31.1538 10.977 31.3333C10.977 31.5129 10.9056 31.6851 10.7786 31.8121C10.6517 31.9391 10.4794 32.0104 10.2999 32.0104Z" fill="#1A1A1A"/>
<path d="M31.4993 62.4828C31.3198 62.4828 31.1476 62.4115 31.0206 62.2845C30.8936 62.1575 30.8223 61.9853 30.8223 61.8057V52.5365C30.8223 52.3569 30.8936 52.1847 31.0206 52.0577C31.1476 51.9307 31.3198 51.8594 31.4993 51.8594C31.6789 51.8594 31.8511 51.9307 31.9781 52.0577C32.1051 52.1847 32.1764 52.3569 32.1764 52.5365V61.8057C32.1764 61.9853 32.1051 62.1575 31.9781 62.2845C31.8511 62.4115 31.6789 62.4828 31.4993 62.4828Z" fill="#1A1A1A"/>
</svg>
