<svg width="25" height="25" viewBox="0 0 25 25" fill="none" xmlns="http://www.w3.org/2000/svg">
<path d="M12.5 25C19.4036 25 25 19.4036 25 12.5C25 5.59644 19.4036 0 12.5 0C5.59644 0 0 5.59644 0 12.5C0 19.4036 5.59644 25 12.5 25Z" fill="#8EC557"/>
<path d="M9.98032 19.6942C16.0914 19.6942 19.4248 14.6368 19.4248 10.2498C19.4248 10.1072 19.4248 9.96459 19.4248 9.822C20.0741 9.35181 20.6347 8.76992 21.0803 8.10348C20.4744 8.37069 19.8323 8.54667 19.1748 8.6257C19.8677 8.21042 20.3863 7.55761 20.634 6.78866C19.9829 7.17585 19.27 7.44832 18.5266 7.59422C18.0711 7.10921 17.4804 6.77223 16.8311 6.62697C16.1818 6.48171 15.5039 6.53488 14.8851 6.77958C14.2664 7.02427 13.7355 7.44921 13.3611 7.9993C12.9868 8.54938 12.7864 9.19923 12.7859 9.86459C12.7848 10.1195 12.8134 10.3737 12.8711 10.622C11.5514 10.5558 10.2603 10.2128 9.08181 9.61529C7.90329 9.01773 6.86361 8.17897 6.03033 7.15348C5.60538 7.88418 5.47512 8.74945 5.66609 9.57288C5.85707 10.3963 6.3549 11.1159 7.0581 11.585C6.53092 11.5688 6.01528 11.4266 5.5544 11.1701C5.55343 11.1843 5.55343 11.1986 5.5544 11.2127C5.55461 11.9791 5.81991 12.7217 6.30528 13.3148C6.79064 13.9078 7.46621 14.3147 8.21737 14.4664C7.72883 14.5991 7.21648 14.6187 6.71922 14.5238C6.93253 15.1825 7.34562 15.7584 7.90114 16.1715C8.45667 16.5847 9.12704 16.8146 9.81921 16.8294C8.64317 17.7515 7.19143 18.2517 5.69699 18.2498C5.43272 18.2503 5.16866 18.2348 4.90625 18.2035C6.4238 19.1781 8.18971 19.6956 9.99329 19.6942" fill="white"/>
</svg>
