<svg width="65" height="66" viewBox="0 0 65 66" fill="none" xmlns="http://www.w3.org/2000/svg">
<path d="M39.19 49.2938C36.0213 49.2938 32.9676 49.111 31.7421 48.6912C31.5869 48.6237 31.4625 48.5006 31.3936 48.346C31.3246 48.1914 31.3161 48.0166 31.3696 47.8561C31.4231 47.6955 31.5349 47.5608 31.6828 47.4785C31.8307 47.3962 32.004 47.3723 32.1687 47.4115C34.3015 48.1224 44.2682 48.0886 47.4031 47.4115C47.9041 47.2964 48.7572 47.0323 48.852 46.5042C48.9468 45.9761 48.2697 44.9875 47.1728 44.2224C45.1416 42.8073 40.0364 43.1323 37.0166 43.3219C35.9887 43.4423 34.9502 43.4423 33.9223 43.3219C32.602 42.9698 28.9593 41.4261 23.5156 39.0563C17.3135 36.3479 9.39837 40.5662 9.29681 40.6068C9.21821 40.6494 9.13194 40.6761 9.04298 40.6852C8.95403 40.6943 8.86415 40.6857 8.77854 40.6599C8.69292 40.6341 8.61327 40.5916 8.54417 40.5348C8.47508 40.4781 8.41791 40.4082 8.37597 40.3292C8.29201 40.1711 8.27407 39.9862 8.3261 39.8149C8.37812 39.6436 8.49586 39.4998 8.65358 39.4151C8.99889 39.2255 17.2255 34.8516 24.0369 37.8172C28.5666 39.7875 32.9406 41.663 34.2541 42.0151C35.1395 42.0532 36.0264 42.0284 36.9083 41.9407C40.3411 41.724 45.5275 41.399 47.9515 43.0782C49.5765 44.2089 50.4093 45.5766 50.1859 46.7344C50.0572 47.4115 49.5088 48.2917 47.7145 48.7047C44.8959 49.1519 42.0433 49.349 39.19 49.2938Z" fill="#8EC557"/>
<path d="M35.3702 57.3811C34.3884 57.3811 31.2535 56.704 26.216 55.5936C22.2347 54.7134 18.091 53.8061 16.6353 53.6774C14.9015 53.5224 13.154 53.6666 11.4691 54.104C11.3838 54.1298 11.2942 54.1385 11.2054 54.1296C11.1167 54.1208 11.0306 54.0946 10.952 54.0524C10.8734 54.0103 10.8039 53.9531 10.7474 53.8841C10.6909 53.8151 10.6485 53.7357 10.6228 53.6503C10.597 53.565 10.5883 53.4754 10.5971 53.3866C10.6059 53.2979 10.6322 53.2118 10.6743 53.1332C10.7164 53.0546 10.7736 52.9851 10.8426 52.9286C10.9116 52.8721 10.991 52.8298 11.0764 52.804C12.926 52.3184 14.8459 52.158 16.7504 52.33C18.3212 52.4654 22.4853 53.3863 26.5139 54.2732C30.2379 55.0925 34.4629 56.0269 35.3702 56.0269C36.3858 56.0269 42.7774 53.7451 51.654 50.2107C52.0936 50.0421 52.5082 49.8143 52.8863 49.5337L61.7629 42.7628C62.0078 42.5514 62.169 42.2592 62.2171 41.9393C62.2653 41.6193 62.1973 41.2926 62.0254 41.0185C61.8535 40.7443 61.5892 40.5407 61.2802 40.4446C60.9712 40.3486 60.638 40.3663 60.341 40.4946L49.616 45.9113C49.4582 45.977 49.2813 45.9806 49.121 45.9213C48.9606 45.862 48.8286 45.7443 48.7515 45.5917C48.6743 45.4392 48.6578 45.2631 48.7051 45.0988C48.7524 44.9345 48.8601 44.7942 49.0066 44.7061L59.7248 39.2894C60.3227 39.0128 61.0008 38.9636 61.6323 39.1509C62.2638 39.3382 62.8054 39.7493 63.1557 40.3071C63.506 40.8649 63.641 41.5313 63.5354 42.1815C63.4298 42.8316 63.0909 43.4211 62.5821 43.8394L53.7056 50.6102C53.223 50.9644 52.6946 51.2514 52.1347 51.4633C46.603 53.6774 37.0493 57.3811 35.3702 57.3811Z" fill="#8EC557"/>
<path d="M5.19905 57.0165C5.03872 57.0191 4.88267 56.9648 4.75868 56.8631C4.63469 56.7614 4.5508 56.6191 4.52196 56.4613L1.46832 40.0759C1.45185 39.9869 1.45342 39.8954 1.47292 39.807C1.49243 39.7185 1.52948 39.6349 1.58188 39.561C1.63428 39.4872 1.70096 39.4246 1.77798 39.3769C1.85501 39.3293 1.9408 39.2976 2.0303 39.2837L8.4829 37.9837C8.57216 37.9646 8.66436 37.9638 8.75395 37.9812C8.84355 37.9987 8.92869 38.0341 9.00426 38.0853C9.07926 38.1368 9.14309 38.203 9.19195 38.2798C9.24082 38.3565 9.2737 38.4424 9.28863 38.5322L12.1188 55.0733C12.1484 55.2492 12.1073 55.4296 12.0047 55.5754C11.902 55.7211 11.7459 55.8205 11.5704 55.8519L5.32092 57.003L5.19905 57.0165ZM2.92405 40.4957L5.74071 55.5473L10.6699 54.64L8.0428 39.4462L2.92405 40.4957Z" fill="#8EC557"/>
<path d="M30.7674 21.8453C29.4581 21.844 28.1785 21.4545 27.0904 20.726C26.0023 19.9976 25.1546 18.9629 24.6545 17.7528C24.1543 16.5427 24.0241 15.2115 24.2804 13.9274C24.5367 12.6434 25.1679 11.4641 26.0942 10.5387C27.0206 9.61327 28.2005 8.98327 29.4848 8.72831C30.7692 8.47335 32.1003 8.60488 33.3099 9.10627C34.5195 9.60767 35.5533 10.4564 36.2806 11.5452C37.0079 12.634 37.3961 13.914 37.3961 15.2234C37.3943 16.9803 36.6951 18.6646 35.4522 19.9062C34.2093 21.1479 32.5243 21.8453 30.7674 21.8453ZM30.7674 9.95573C29.7259 9.95707 28.7081 10.2672 27.8427 10.8468C26.9773 11.4264 26.3032 12.2496 25.9056 13.2123C25.5079 14.1749 25.4045 15.2339 25.6086 16.2553C25.8126 17.2766 26.3148 18.2146 27.0518 18.9507C27.7888 19.6867 28.7274 20.1877 29.749 20.3904C30.7707 20.5931 31.8295 20.4884 32.7916 20.0895C33.7538 19.6906 34.5761 19.0154 35.1546 18.1493C35.7332 17.2832 36.0419 16.265 36.0419 15.2234C36.0401 13.8257 35.4836 12.4859 34.4947 11.4982C33.5057 10.5105 32.1652 9.95573 30.7674 9.95573Z" fill="#8EC557"/>
<path d="M36.9678 33.0995H18.5579C18.3784 33.0995 18.2061 33.0282 18.0792 32.9012C17.9522 32.7742 17.8809 32.602 17.8809 32.4224C17.8826 29.2624 19.1374 26.232 21.3699 23.9957C23.6025 21.7593 26.6307 20.4994 29.7908 20.4922H31.7204C33.5411 20.4871 35.3385 20.9017 36.9731 21.7037C38.6076 22.5057 40.0353 23.6736 41.1454 25.1167C41.2063 25.1863 41.2523 25.2675 41.2806 25.3555C41.3089 25.4435 41.3189 25.5364 41.31 25.6284C41.301 25.7204 41.2733 25.8095 41.2286 25.8904C41.1838 25.9713 41.123 26.0422 41.0499 26.0987C40.9767 26.1552 40.8928 26.1961 40.8032 26.2189C40.7136 26.2417 40.6203 26.246 40.529 26.2313C40.4378 26.2167 40.3505 26.1836 40.2725 26.134C40.1945 26.0843 40.1275 26.0193 40.0757 25.9428C39.0872 24.6709 37.8197 23.6431 36.371 22.9387C34.9224 22.2343 33.3313 21.8722 31.7204 21.8803H29.7908C27.1127 21.8877 24.5369 22.9095 22.5821 24.74C20.6273 26.5704 19.4385 29.0736 19.2553 31.7454H36.9678C37.1474 31.7454 37.3196 31.8167 37.4466 31.9437C37.5736 32.0707 37.6449 32.2429 37.6449 32.4224C37.6449 32.602 37.5736 32.7742 37.4466 32.9012C37.3196 33.0282 37.1474 33.0995 36.9678 33.0995Z" fill="#8EC557"/>
<path d="M41.9798 36.7469C40.8024 36.7482 39.6511 36.4003 38.6715 35.7471C37.6918 35.094 36.928 34.165 36.4765 33.0776C36.025 31.9902 35.9061 30.7933 36.135 29.6384C36.3639 28.4834 36.9302 27.4223 37.7623 26.5893C38.5943 25.7563 39.6548 25.1888 40.8095 24.9586C41.9641 24.7284 43.1611 24.8459 44.249 25.2961C45.3369 25.7464 46.2669 26.5092 46.9211 27.4881C47.5754 28.467 47.9246 29.6179 47.9246 30.7953C47.9246 32.3726 47.2985 33.8854 46.1838 35.0013C45.0692 36.1173 43.5571 36.7451 41.9798 36.7469ZM41.9798 26.2047C41.07 26.2033 40.1802 26.472 39.4231 26.9767C38.666 27.4813 38.0757 28.1993 37.7269 29.0396C37.3781 29.8799 37.2865 30.8049 37.4637 31.6973C37.6408 32.5898 38.0788 33.4096 38.7222 34.0529C39.3656 34.6963 40.1854 35.1343 41.0778 35.3115C41.9702 35.4886 42.8952 35.397 43.7355 35.0482C44.5759 34.6994 45.2938 34.1091 45.7985 33.352C46.3031 32.595 46.5718 31.7052 46.5704 30.7953C46.5687 29.5784 46.0844 28.4117 45.2239 27.5512C44.3634 26.6907 43.1968 26.2065 41.9798 26.2047Z" fill="#8EC557"/>
<path d="M40.719 32.8003C40.6245 32.8001 40.5311 32.7801 40.4448 32.7416C40.3585 32.7032 40.2812 32.6471 40.2179 32.5769L39.1143 31.3446C39.0442 31.2809 38.9883 31.2033 38.9501 31.1166C38.9119 31.03 38.8923 30.9363 38.8926 30.8417C38.8928 30.747 38.913 30.6534 38.9516 30.567C38.9903 30.4806 39.0467 30.4032 39.1171 30.3399C39.1875 30.2767 39.2704 30.2289 39.3605 30.1996C39.4505 30.1704 39.5457 30.1603 39.6399 30.1701C39.734 30.1799 39.8251 30.2094 39.9072 30.2566C39.9892 30.3038 40.0605 30.3677 40.1164 30.4441L40.7934 31.216L43.9351 28.9274C44.0801 28.8344 44.2551 28.8002 44.4245 28.8318C44.5939 28.8633 44.7449 28.9582 44.8467 29.0971C44.9485 29.2361 44.9936 29.4086 44.9727 29.5796C44.9517 29.7506 44.8664 29.9072 44.7341 30.0175L41.0981 32.6717C40.9876 32.7518 40.8554 32.7967 40.719 32.8003Z" fill="#8EC557"/>
</svg>
