<svg width="30" height="30" viewBox="0 0 30 30" fill="none" xmlns="http://www.w3.org/2000/svg">
<path d="M27.5312 26.725H2.46875C1.98001 26.7242 1.51153 26.5297 1.16593 26.1841C0.820343 25.8385 0.625826 25.37 0.625 24.8813V5.125C0.625826 4.63626 0.820343 4.16778 1.16593 3.82218C1.51153 3.47659 1.98001 3.28208 2.46875 3.28125H27.5312C28.02 3.28208 28.4885 3.47659 28.8341 3.82218C29.1797 4.16778 29.3742 4.63626 29.375 5.125V24.8813C29.3742 25.37 29.1797 25.8385 28.8341 26.1841C28.4885 26.5297 28.02 26.7242 27.5312 26.725ZM2.46875 3.9125C2.14685 3.91331 1.83827 4.04112 1.61007 4.26816C1.38186 4.49519 1.25247 4.80311 1.25 5.125V24.8813C1.25082 25.2042 1.37949 25.5137 1.60787 25.7421C1.83626 25.9705 2.14577 26.0992 2.46875 26.1H27.5312C27.8542 26.0992 28.1637 25.9705 28.3921 25.7421C28.6205 25.5137 28.7492 25.2042 28.75 24.8813V5.125C28.7492 4.80202 28.6205 4.49251 28.3921 4.26412C28.1637 4.03574 27.8542 3.90707 27.5312 3.90625L2.46875 3.9125Z" fill="#1A1A1A"/>
<path d="M26.8348 7.39062H3.16602C3.08314 7.39062 3.00365 7.3577 2.94504 7.2991C2.88644 7.24049 2.85352 7.16101 2.85352 7.07812C2.85352 6.99524 2.88644 6.91576 2.94504 6.85715C3.00365 6.79855 3.08314 6.76562 3.16602 6.76562H26.8348C26.9176 6.76562 26.9971 6.79855 27.0557 6.85715C27.1143 6.91576 27.1473 6.99524 27.1473 7.07812C27.1473 7.16101 27.1143 7.24049 27.0557 7.2991C26.9971 7.3577 26.9176 7.39062 26.8348 7.39062Z" fill="#1A1A1A"/>
<path d="M4.82227 5.64844H4.22852C4.14564 5.64844 4.06615 5.61551 4.00754 5.55691C3.94894 5.4983 3.91602 5.41882 3.91602 5.33594C3.91602 5.25306 3.94894 5.17357 4.00754 5.11497C4.06615 5.05636 4.14564 5.02344 4.22852 5.02344H4.82227C4.90515 5.02344 4.98463 5.05636 5.04324 5.11497C5.10184 5.17357 5.13477 5.25306 5.13477 5.33594C5.13477 5.41882 5.10184 5.4983 5.04324 5.55691C4.98463 5.61551 4.90515 5.64844 4.82227 5.64844Z" fill="#1A1A1A"/>
<path d="M6.78125 5.64844H6.1875C6.10462 5.64844 6.02513 5.61551 5.96653 5.55691C5.90792 5.4983 5.875 5.41882 5.875 5.33594C5.875 5.25306 5.90792 5.17357 5.96653 5.11497C6.02513 5.05636 6.10462 5.02344 6.1875 5.02344H6.78125C6.86413 5.02344 6.94362 5.05636 7.00222 5.11497C7.06083 5.17357 7.09375 5.25306 7.09375 5.33594C7.09375 5.41882 7.06083 5.4983 7.00222 5.55691C6.94362 5.61551 6.86413 5.64844 6.78125 5.64844Z" fill="#1A1A1A"/>
<path d="M8.75 5.64844H8.15625C8.07337 5.64844 7.99388 5.61551 7.93528 5.55691C7.87667 5.4983 7.84375 5.41882 7.84375 5.33594C7.84375 5.25306 7.87667 5.17357 7.93528 5.11497C7.99388 5.05636 8.07337 5.02344 8.15625 5.02344H8.75C8.83288 5.02344 8.91237 5.05636 8.97097 5.11497C9.02958 5.17357 9.0625 5.25306 9.0625 5.33594C9.0625 5.41882 9.02958 5.4983 8.97097 5.55691C8.91237 5.61551 8.83288 5.64844 8.75 5.64844Z" fill="#1A1A1A"/>
<path d="M25.1541 12.5734H17.8572C17.7743 12.5734 17.6948 12.5405 17.6362 12.4819C17.5776 12.4233 17.5447 12.3438 17.5447 12.2609C17.5447 12.1781 17.5776 12.0986 17.6362 12.04C17.6948 11.9814 17.7743 11.9484 17.8572 11.9484H25.1541C25.41 11.9341 25.6508 11.8224 25.8269 11.6361C26.0031 11.4499 26.1012 11.2032 26.1012 10.9469C26.1012 10.6905 26.0031 10.4439 25.8269 10.2576C25.6508 10.0714 25.41 9.95962 25.1541 9.94531H4.84158C4.58562 9.95962 4.34485 10.0714 4.16871 10.2576C3.99257 10.4439 3.89442 10.6905 3.89442 10.9469C3.89442 11.2032 3.99257 11.4499 4.16871 11.6361C4.34485 11.8224 4.58562 11.9341 4.84158 11.9484H13.551C13.6338 11.9484 13.7133 11.9814 13.7719 12.04C13.8305 12.0986 13.8635 12.1781 13.8635 12.2609C13.8635 12.3438 13.8305 12.4233 13.7719 12.4819C13.7133 12.5405 13.6338 12.5734 13.551 12.5734H4.84783C4.42877 12.5551 4.03297 12.3757 3.74294 12.0726C3.45291 11.7696 3.29102 11.3663 3.29102 10.9469C3.29102 10.5274 3.45291 10.1241 3.74294 9.82111C4.03297 9.51808 4.42877 9.33868 4.84783 9.32031H25.1603C25.5794 9.33868 25.9752 9.51808 26.2652 9.82111C26.5553 10.1241 26.7171 10.5274 26.7171 10.9469C26.7171 11.3663 26.5553 11.7696 26.2652 12.0726C25.9752 12.3757 25.5794 12.5551 25.1603 12.5734H25.1541Z" fill="#1A1A1A"/>
<path d="M15.7539 17.1578C15.1428 17.1584 14.5452 16.9778 14.0366 16.6389C13.5281 16.2999 13.1315 15.8178 12.8969 15.2535C12.6623 14.6892 12.6003 14.068 12.7187 13.4684C12.8371 12.8689 13.1306 12.3179 13.5621 11.8851C13.9936 11.4523 14.5437 11.1572 15.1429 11.0369C15.742 10.9167 16.3634 10.9769 16.9285 11.2097C17.4935 11.4426 17.9768 11.8378 18.3173 12.3453C18.6578 12.8528 18.8402 13.4498 18.8414 14.0609C18.8422 14.4671 18.763 14.8694 18.6082 15.2449C18.4535 15.6204 18.2262 15.9617 17.9395 16.2493C17.6528 16.5369 17.3121 16.7652 16.9371 16.9211C16.5621 17.077 16.16 17.1574 15.7539 17.1578ZM15.7539 11.6047C15.2657 11.6041 14.7883 11.7484 14.3823 12.0194C13.9762 12.2903 13.6597 12.6757 13.4728 13.1268C13.286 13.5778 13.2373 14.0741 13.3329 14.5529C13.4284 15.0316 13.6639 15.4712 14.0096 15.816C14.3552 16.1607 14.7954 16.3951 15.2744 16.4895C15.7534 16.5838 16.2496 16.5338 16.7001 16.3459C17.1507 16.1579 17.5353 15.8404 17.8052 15.4336C18.0752 15.0269 18.2183 14.5491 18.2164 14.0609C18.2131 13.4094 17.9524 12.7856 17.4911 12.3255C17.0299 11.8654 16.4054 11.6063 15.7539 11.6047Z" fill="#1A1A1A"/>
<path d="M20.6469 20.0002C20.5109 19.9989 20.3765 19.9706 20.2515 19.917C20.1265 19.8633 20.0134 19.7854 19.9188 19.6877L17.7 17.469C17.671 17.4398 17.6481 17.4052 17.6326 17.3671C17.617 17.329 17.6091 17.2882 17.6094 17.2471C17.6097 17.1651 17.6423 17.0866 17.7 17.0284L18.7156 16.0127C18.7742 15.9545 18.8534 15.9219 18.9359 15.9219C19.0185 15.9219 19.0977 15.9545 19.1563 16.0127L21.375 18.2315C21.5236 18.3746 21.6258 18.559 21.6682 18.7609C21.7106 18.9628 21.6913 19.1728 21.6127 19.3636C21.5342 19.5544 21.4001 19.7171 21.2278 19.8307C21.0556 19.9442 20.8532 20.0033 20.6469 20.0002ZM20.3594 19.2596C20.4365 19.3363 20.5408 19.3792 20.6495 19.3789C20.7583 19.3786 20.8624 19.3351 20.9391 19.2581C21.0157 19.181 21.0586 19.0766 21.0583 18.9679C21.0581 18.8592 21.0146 18.755 20.9375 18.6784L18.9375 16.6815L18.3625 17.2534L20.3594 19.2596Z" fill="#1A1A1A"/>
<path d="M18.4366 17.0612C18.3546 17.0608 18.276 17.0283 18.2178 16.9706L17.4991 16.2518C17.4409 16.1933 17.4082 16.1141 17.4082 16.0315C17.4082 15.9489 17.4409 15.8697 17.4991 15.8112C17.5281 15.7819 17.5627 15.7586 17.6008 15.7428C17.6389 15.7269 17.6797 15.7188 17.721 15.7188C17.7622 15.7188 17.8031 15.7269 17.8411 15.7428C17.8792 15.7586 17.9138 15.7819 17.9428 15.8112L18.6553 16.5237C18.6846 16.5527 18.7079 16.5873 18.7237 16.6254C18.7396 16.6635 18.7478 16.7043 18.7478 16.7456C18.7478 16.7868 18.7396 16.8277 18.7237 16.8657C18.7079 16.9038 18.6846 16.9384 18.6553 16.9674C18.5976 17.0263 18.519 17.06 18.4366 17.0612Z" fill="#1A1A1A"/>
<path d="M7.41602 12.5734C7.33314 12.5734 7.25365 12.5405 7.19505 12.4819C7.13644 12.4233 7.10352 12.3438 7.10352 12.2609V9.63281C7.10352 9.54993 7.13644 9.47045 7.19505 9.41184C7.25365 9.35324 7.33314 9.32031 7.41602 9.32031C7.4989 9.32031 7.57838 9.35324 7.63699 9.41184C7.69559 9.47045 7.72852 9.54993 7.72852 9.63281V12.2609C7.72852 12.3438 7.69559 12.4233 7.63699 12.4819C7.57838 12.5405 7.4989 12.5734 7.41602 12.5734Z" fill="#1A1A1A"/>
<path d="M26.875 24.5547H3.125C3.04212 24.5547 2.96263 24.5218 2.90403 24.4632C2.84542 24.4046 2.8125 24.3251 2.8125 24.2422C2.8125 24.1593 2.84542 24.0798 2.90403 24.0212C2.96263 23.9626 3.04212 23.9297 3.125 23.9297H26.875C26.9579 23.9297 27.0374 23.9626 27.096 24.0212C27.1546 24.0798 27.1875 24.1593 27.1875 24.2422C27.1875 24.3251 27.1546 24.4046 27.096 24.4632C27.0374 24.5218 26.9579 24.5547 26.875 24.5547Z" fill="#1A1A1A"/>
<path d="M26.875 22.1875H3.125C3.04212 22.1875 2.96263 22.1546 2.90403 22.096C2.84542 22.0374 2.8125 21.9579 2.8125 21.875C2.8125 21.7921 2.84542 21.7126 2.90403 21.654C2.96263 21.5954 3.04212 21.5625 3.125 21.5625H26.875C26.9579 21.5625 27.0374 21.5954 27.096 21.654C27.1546 21.7126 27.1875 21.7921 27.1875 21.875C27.1875 21.9579 27.1546 22.0374 27.096 22.096C27.0374 22.1546 26.9579 22.1875 26.875 22.1875Z" fill="#1A1A1A"/>
<path d="M10.1906 19.7891H3.125C3.04212 19.7891 2.96263 19.7561 2.90403 19.6975C2.84542 19.6389 2.8125 19.5594 2.8125 19.4766C2.8125 19.3937 2.84542 19.3142 2.90403 19.2556C2.96263 19.197 3.04212 19.1641 3.125 19.1641H10.1906C10.2735 19.1641 10.353 19.197 10.4116 19.2556C10.4702 19.3142 10.5031 19.3937 10.5031 19.4766C10.5031 19.5594 10.4702 19.6389 10.4116 19.6975C10.353 19.7561 10.2735 19.7891 10.1906 19.7891Z" fill="#1A1A1A"/>
<path d="M10.1906 17.4062H3.125C3.04212 17.4062 2.96263 17.3733 2.90403 17.3147C2.84542 17.2561 2.8125 17.1766 2.8125 17.0938C2.8125 17.0109 2.84542 16.9314 2.90403 16.8728C2.96263 16.8142 3.04212 16.7812 3.125 16.7812H10.1906C10.2735 16.7812 10.353 16.8142 10.4116 16.8728C10.4702 16.9314 10.5031 17.0109 10.5031 17.0938C10.5031 17.1766 10.4702 17.2561 10.4116 17.3147C10.353 17.3733 10.2735 17.4062 10.1906 17.4062Z" fill="#1A1A1A"/>
<path d="M10.1906 15.0234H3.125C3.04212 15.0234 2.96263 14.9905 2.90403 14.9319C2.84542 14.8733 2.8125 14.7938 2.8125 14.7109C2.8125 14.6281 2.84542 14.5486 2.90403 14.49C2.96263 14.4314 3.04212 14.3984 3.125 14.3984H10.1906C10.2735 14.3984 10.353 14.4314 10.4116 14.49C10.4702 14.5486 10.5031 14.6281 10.5031 14.7109C10.5031 14.7938 10.4702 14.8733 10.4116 14.9319C10.353 14.9905 10.2735 15.0234 10.1906 15.0234Z" fill="#1A1A1A"/>
</svg>
