<svg width="193" height="40" viewBox="0 0 193 40" fill="none" xmlns="http://www.w3.org/2000/svg">
<g id="wegofin_logo  1" clip-path="url(#clip0_773_4321)">
<g id="Group">
<g id="Group_2">
<path id="Vector" d="M94.7581 9.44847L93.2836 20.9516C93.2034 21.5977 92.9614 21.8999 92.318 21.8999C91.6746 21.8999 91.3547 21.621 91.2461 21.0953L89.3372 12.1643C88.9146 10.2088 87.8108 9.17578 85.5596 9.17578C83.3084 9.17578 82.096 10.2076 81.6675 12.1643L79.6582 21.0953C79.5178 21.6223 79.2557 21.8999 78.6123 21.8999C77.9689 21.8999 77.6703 21.5977 77.5888 20.9516L76.3269 9.44847H73.2422L74.7202 21.1187C74.9905 23.1552 75.9243 24.5223 78.5556 24.5223C80.8116 24.5223 82.0169 23.52 82.4714 21.4835L84.4865 12.5192C84.5904 12.0169 84.9693 11.7982 85.5324 11.7982C86.0955 11.7982 86.4674 12.0169 86.5784 12.5192L88.4837 21.4835C88.9146 23.52 90.0904 24.5223 92.2897 24.5223C94.8679 24.5223 95.9953 23.1552 96.2621 21.1187L97.8428 9.44847H94.7581Z" fill="white"/>
<path id="Vector_2" d="M103.184 19.2806V18.2157H109.919C113.404 18.2157 114.72 16.6864 114.72 13.9743C114.72 11.2622 113.294 9.44922 109.943 9.44922H105.355C101.816 9.44922 100.422 11.5189 100.422 14.3097V19.3322C100.422 22.1279 101.816 24.1902 105.355 24.1902H114.019V21.3184H105.355C103.797 21.3184 103.184 20.4512 103.184 19.2819V19.2806ZM103.184 14.3391C103.184 13.1968 103.797 12.2989 105.355 12.2989H109.92C111.31 12.2989 111.929 13.0224 111.929 14.1414C111.929 15.2604 111.366 15.9028 109.839 15.9028H103.184V14.3391Z" fill="white"/>
<path id="Vector_3" d="M127.624 9.44922H123.708C119.922 9.44922 117.562 11.7462 117.562 16.4899C117.562 21.2336 119.922 23.576 123.708 23.576H129.96V24.2516C129.96 26.3729 129.259 27.2315 127.14 27.2315H119.039V30.0812H127.462C131.435 30.0812 132.831 28.4328 132.831 24.2516V15.7603C132.831 11.5189 131.006 9.44922 127.623 9.44922H127.624ZM129.96 20.8983H123.979C121.537 20.8983 120.435 19.6123 120.435 16.598C120.435 13.5837 121.538 12.3001 123.979 12.3001H126.791C129.07 12.3001 129.96 13.3344 129.96 15.737V20.8995V20.8983Z" fill="white"/>
<path id="Vector_4" d="M145.262 9.44922H142.284C138.5 9.44922 136.141 11.853 136.141 16.824C136.141 21.795 138.5 24.189 142.284 24.189H145.262C149.016 24.189 151.406 21.7876 151.406 16.824C151.406 11.8604 149.016 9.44922 145.262 9.44922ZM144.992 21.3172H142.554C140.085 21.3172 139.013 20.0017 139.013 16.824C139.013 13.6464 140.085 12.2989 142.554 12.2989H144.992C147.432 12.2989 148.536 13.639 148.536 16.824C148.536 20.009 147.432 21.3172 144.992 21.3172Z" fill="white"/>
<path id="Vector_5" d="M158.211 9.44973V7.97452C158.211 6.32613 158.774 5.7697 160.112 5.7697H162.072V3.0625H159.528C156.6 3.0625 155.343 4.28958 155.343 8.14157V9.44973H153.406V12.2994H155.343V24.1895H158.212V12.2994H162.13V9.44973H158.212H158.211Z" fill="white"/>
<path id="Vector_6" d="M164.906 3.89844V7.32666H167.778V3.89844H164.906ZM164.906 9.44795V24.1877H167.749V9.44795H164.906Z" fill="white"/>
<path id="Vector_7" d="M179.67 9.44922H173.825C172.399 9.44922 171.836 10.0106 171.836 11.7462V24.189H174.679V12.7178C174.679 12.4365 174.787 12.2989 175.029 12.2989H179.669C182.649 12.2989 183.935 13.5849 183.935 15.9028V24.189H186.807V15.9028C186.807 11.8285 184.476 9.44922 179.67 9.44922Z" fill="white"/>
</g>
<g id="Group_3">
<path id="Vector_8" d="M84.4055 33.3125H83.0703V36.8439H84.4055C85.5872 36.8439 86.116 35.9411 86.0983 35.0444C86.0877 34.1723 85.5635 33.3125 84.4055 33.3125ZM84.4055 36.2027H83.7042V33.9439H84.4055C85.1397 33.9439 85.449 34.4917 85.4679 35.0432C85.4785 35.6156 85.174 36.2027 84.4055 36.2027Z" fill="white"/>
<path id="Vector_9" d="M87.6406 33.3125V36.8439H88.2769V33.3125H87.6406Z" fill="white"/>
<path id="Vector_10" d="M91.4885 34.7991V35.3961H92.3562V36.0176C92.0918 36.2387 91.8557 36.2989 91.5901 36.2989C90.746 36.2989 90.4273 35.702 90.4273 35.1234C90.4273 34.3999 90.8629 33.8214 91.5901 33.8214C91.884 33.8214 92.224 33.9455 92.4518 34.1727L92.8485 33.7539C92.5038 33.3976 92.0434 33.2109 91.5889 33.2109C90.3942 33.2109 89.7969 34.1322 89.7969 35.1234C89.7969 36.0496 90.3139 36.9204 91.5889 36.9204C92.1862 36.9204 92.6065 36.6883 92.9394 36.2879V34.7991H91.4885Z" fill="white"/>
<path id="Vector_11" d="M94.5312 33.3125V36.8439H95.1675V33.3125H94.5312Z" fill="white"/>
<path id="Vector_12" d="M96.7891 33.3125V33.9144H97.8633V36.8427H98.4996V33.9144H99.5798V33.3125H96.7891Z" fill="white"/>
<path id="Vector_13" d="M102.897 33.3125H102.201L100.68 36.8439H101.37L101.664 36.1745H103.437L103.718 36.8439H104.42L102.898 33.3125H102.897ZM101.92 35.5579L102.546 34.0532L103.176 35.5579H101.92Z" fill="white"/>
<path id="Vector_14" d="M106.461 36.2273V33.3125H105.82V36.8439H108.201V36.2285H106.461V36.2273Z" fill="white"/>
<path id="Vector_15" d="M113.098 34.685C112.691 34.631 112.34 34.5475 112.34 34.2367C112.34 33.98 112.569 33.7724 113.046 33.7724C113.415 33.7724 113.735 33.964 113.852 34.1667L114.356 33.8915C114.104 33.3486 113.553 33.1914 113.024 33.1914C112.403 33.2 111.715 33.4973 111.715 34.2207C111.715 35.0093 112.351 35.2071 113.046 35.2906C113.493 35.336 113.828 35.4748 113.828 35.8089C113.828 36.1922 113.454 36.3359 113.051 36.3359C112.649 36.3359 112.248 36.1688 112.093 35.7795L111.562 36.0657C111.809 36.7118 112.344 36.9328 113.039 36.9328C113.797 36.9328 114.462 36.5926 114.462 35.8089C114.462 34.9663 113.802 34.7747 113.096 34.685H113.098Z" fill="white"/>
<path id="Vector_16" d="M117.612 33.2383C116.441 33.2383 115.867 34.1706 115.867 35.1029C115.867 36.0351 116.417 36.9183 117.612 36.9183C118.807 36.9183 119.341 36.0106 119.354 35.0979C119.365 34.1718 118.778 33.2395 117.612 33.2395V33.2383ZM117.612 36.3103C116.815 36.3103 116.511 35.6888 116.498 35.1078C116.482 34.5157 116.814 33.8487 117.612 33.8487C118.41 33.8487 118.733 34.5108 118.72 35.1078C118.71 35.6888 118.411 36.3103 117.612 36.3103Z" fill="white"/>
<path id="Vector_17" d="M121.524 36.2273V33.3125H120.883V36.8439H123.266V36.2285H121.524V36.2273Z" fill="white"/>
<path id="Vector_18" d="M126.919 33.3203V35.3384C126.919 35.9489 126.62 36.3137 126.094 36.3137C125.567 36.3137 125.217 35.9784 125.217 35.3384V33.3203H124.578V35.3384C124.578 36.4034 125.273 36.9156 126.089 36.9156C126.905 36.9156 127.553 36.3837 127.553 35.3384V33.3203H126.919Z" fill="white"/>
<path id="Vector_19" d="M129.039 33.3125V33.9144H130.115V36.8427H130.753V33.9144H131.831V33.3125H129.04H129.039Z" fill="white"/>
<path id="Vector_20" d="M133.289 33.3125V36.8439H133.925V33.3125H133.289Z" fill="white"/>
<path id="Vector_21" d="M137.284 33.2383C136.113 33.2383 135.539 34.1706 135.539 35.1029C135.539 36.0351 136.089 36.9183 137.284 36.9183C138.479 36.9183 139.013 36.0106 139.024 35.0979C139.037 34.1718 138.45 33.2395 137.284 33.2395V33.2383ZM137.284 36.3103C136.487 36.3103 136.18 35.6888 136.169 35.1078C136.152 34.5157 136.486 33.8487 137.284 33.8487C138.082 33.8487 138.403 34.5108 138.392 35.1078C138.382 35.6888 138.083 36.3103 137.284 36.3103Z" fill="white"/>
<path id="Vector_22" d="M142.781 33.3047V35.4985L141.119 33.3133H140.602V36.8447H141.24V34.4642L143.026 36.8496V36.8447H143.421V33.3059H142.78L142.781 33.3047Z" fill="white"/>
<path id="Vector_23" d="M146.462 34.685C146.055 34.631 145.704 34.5475 145.704 34.2367C145.704 33.98 145.935 33.7724 146.41 33.7724C146.778 33.7724 147.101 33.964 147.215 34.1667L147.722 33.8915C147.467 33.3486 146.916 33.1914 146.39 33.1914C145.769 33.2 145.078 33.4973 145.078 34.2207C145.078 35.0093 145.717 35.2071 146.41 35.2906C146.859 35.336 147.192 35.4748 147.192 35.8089C147.192 36.1922 146.817 36.3359 146.418 36.3359C146.019 36.3359 145.613 36.1688 145.457 35.7795L144.93 36.0657C145.176 36.7118 145.711 36.9328 146.404 36.9328C147.162 36.9328 147.829 36.5926 147.829 35.8089C147.829 34.9663 147.167 34.7747 146.461 34.685H146.462Z" fill="white"/>
<path id="Vector_24" d="M153.024 33.3047C152.489 33.3047 151.957 33.3133 151.422 33.3133V36.8447H152.065V35.8043H153.024C154.682 35.8043 154.678 33.3059 153.024 33.3059V33.3047ZM153.024 35.1926H152.065V33.9446H153.024C153.84 33.9446 153.84 35.1926 153.024 35.1926Z" fill="white"/>
<path id="Vector_25" d="M158.3 33.3125L157.274 36.0602L156.25 33.3125H155.531L156.938 36.8537H157.605L159.013 33.3125H158.298H158.3Z" fill="white"/>
<path id="Vector_26" d="M160.273 33.3125V33.9144H161.348V36.8427H161.984V33.9144H163.064V33.3125H160.273Z" fill="white"/>
<path id="Vector_27" d="M167.19 36.2273V33.3125H166.547V36.8439H168.93V36.2285H167.19V36.2273Z" fill="white"/>
<path id="Vector_28" d="M169.742 33.3125V33.9144H170.818V36.8427H171.454V33.9144H172.534V33.3125H169.743H169.742Z" fill="white"/>
<path id="Vector_29" d="M175.277 33.3125H173.945V36.8439H175.277C176.466 36.8439 176.987 35.9411 176.972 35.0444C176.959 34.1723 176.437 33.3125 175.277 33.3125ZM175.277 36.2027H174.576V33.9439H175.277C176.011 33.9439 176.323 34.4917 176.339 35.0432C176.352 35.6156 176.045 36.2027 175.277 36.2027Z" fill="white"/>
</g>
</g>
<path id="Vector_30" d="M38.9086 30.8368C38.9086 30.8356 38.9074 30.8332 38.9062 30.832C38.9062 30.8344 38.9062 30.8356 38.9062 30.838L38.9086 30.8368Z" fill="white"/>
<path id="Vector_31" d="M25.0324 31.2461C25.0324 31.2461 25.0324 31.2497 25.0336 31.2521C25.0336 31.2521 25.0336 31.2509 25.0336 31.2497L25.0312 31.2461H25.0324Z" fill="white"/>
<g id="Group 1686579391">
<path id="Vector_32" d="M39.6233 34.5021V34.5045C37.2399 36.5742 34.9344 36.9083 33.6877 36.8924C33.4209 36.8924 33.1553 36.8764 32.872 36.8518C31.4365 36.6946 29.2915 36.0633 27.1631 33.942C27.1631 33.942 27.1615 33.9403 27.1584 33.937C26.286 32.9802 25.0606 31.29 25.0323 31.252V31.2495L25.0299 31.247C24.2047 29.9389 23.4197 28.3323 22.722 26.3547C22.3407 25.2688 21.9429 23.9803 21.4813 22.4916C19.2324 15.2409 15.4831 3.1408 8.91481 3.1408H8.81329C6.542 3.18624 3.12679 5.81238 3.02291 11.3189C2.86236 19.9294 6.57505 28.3716 13.206 34.4849C13.2213 34.4959 15.8963 36.8592 18.5985 36.8653H18.6245C22.2675 36.8653 23.6145 34.5524 25.0323 31.2544C25.6084 33.3315 26.286 34.3424 26.7204 34.8042C25.3368 37.3604 23.049 40.0184 18.5879 40.0025C14.7524 39.9914 11.3596 36.9685 11.2192 36.8445C3.91065 30.1035 -0.171545 20.783 0.00553067 11.255C0.150733 3.60387 5.20802 0.0675572 8.75781 0.00491325C8.81211 0 8.87231 0 8.92662 0C17.6789 0 21.6903 12.9427 24.3488 21.5213C24.8009 22.9854 25.1869 24.2469 25.5564 25.2713C25.8622 26.152 26.1903 26.9357 26.5197 27.6456C26.5197 27.6456 27.5373 29.6748 28.4805 30.8306C30.256 33.0134 32.0398 33.603 33.1848 33.7295C33.356 33.7454 33.5177 33.7516 33.683 33.7565H33.709C34.7632 33.7565 36.8373 33.3782 38.9044 30.8392C39.1948 32.511 39.5065 33.9813 39.6233 34.5021Z" fill="url(#paint0_linear_773_4321)"/>
<path id="Vector_33" d="M67.3843 11.255C67.2367 3.60387 62.1759 0.0675572 58.632 0.00491325C58.5718 0 58.5175 0 58.4609 0C49.7109 0 45.6996 12.9427 43.0411 21.5213C42.5889 22.9854 42.2029 24.2469 41.8334 25.2713C41.5277 26.152 41.1995 26.9406 40.8654 27.6456C39.5728 24.7493 37.6119 21.4648 34.434 21.1049C33.5616 20.9882 32.9277 21.0938 32.6916 21.1405C30.3967 21.5372 28.7817 23.3994 27.5824 25.517C27.1881 26.2134 26.8398 26.9381 26.5234 27.6456C26.5234 27.6456 27.541 29.6748 28.4843 30.8306C28.744 30.1907 29.0426 29.45 29.385 28.7044C30.3353 26.6274 31.6102 24.495 33.2039 24.2358L33.2948 24.2137C33.2948 24.2137 33.5959 24.1572 34.0893 24.2186C36.3063 24.4704 37.9189 28.358 38.9081 30.8343V30.8368C38.9601 30.9633 39.1549 31.4448 39.4039 32.0467C39.6507 32.635 39.9517 33.3376 40.2374 33.9407C40.248 33.9628 40.2551 33.9813 40.2657 33.9997C40.4003 34.281 40.5301 34.5426 40.6529 34.7612C42.0365 37.3247 44.3137 40.0025 48.7665 39.9963H48.8008C52.6386 39.9853 56.029 36.9624 56.1801 36.8273C63.4792 30.0998 67.5602 20.7794 67.3867 11.2513L67.3843 11.255ZM54.1992 34.4664C54.1685 34.4935 51.4935 36.8567 48.7913 36.8629H48.7654C45.12 36.8629 43.773 34.55 42.3576 31.2495C43.1851 29.9413 43.9701 28.3323 44.6678 26.3547C45.0491 25.2688 45.447 23.9803 45.9085 22.4916C48.1574 15.2409 51.9067 3.14079 58.475 3.14079H58.5765C60.8478 3.18624 64.2607 5.81237 64.3669 11.3189C64.5275 19.9294 60.8124 28.3716 54.1992 34.4689V34.4664Z" fill="url(#paint1_linear_773_4321)"/>
</g>
</g>
<defs>
<linearGradient id="paint0_linear_773_4321" x1="26.6814" y1="22.0175" x2="-25.3028" y2="14.4928" gradientUnits="userSpaceOnUse">
<stop offset="0.09" stop-color="#1E5631"/>
<stop offset="0.16" stop-color="#3F7825"/>
<stop offset="0.31" stop-color="#95CE08"/>
<stop offset="0.34" stop-color="#A5DE03"/>
<stop offset="0.54" stop-color="#77BA1C"/>
<stop offset="0.58" stop-color="#5F9F21"/>
<stop offset="0.65" stop-color="#3B7729"/>
<stop offset="0.7" stop-color="#265F2F"/>
<stop offset="0.74" stop-color="#1E5631"/>
<stop offset="0.78" stop-color="#407645"/>
<stop offset="0.89" stop-color="#96C97A"/>
<stop offset="0.92" stop-color="#ADDF88"/>
</linearGradient>
<linearGradient id="paint1_linear_773_4321" x1="30.0437" y1="46.5973" x2="87.0793" y2="-20.9175" gradientUnits="userSpaceOnUse">
<stop offset="0.09" stop-color="#1E5631"/>
<stop offset="0.16" stop-color="#3F7825"/>
<stop offset="0.31" stop-color="#95CE08"/>
<stop offset="0.34" stop-color="#A5DE03"/>
<stop offset="0.54" stop-color="#77BA1C"/>
<stop offset="0.58" stop-color="#5F9F21"/>
<stop offset="0.65" stop-color="#3B7729"/>
<stop offset="0.7" stop-color="#265F2F"/>
<stop offset="0.74" stop-color="#1E5631"/>
<stop offset="0.79" stop-color="#3F7825"/>
<stop offset="0.9" stop-color="#95CE08"/>
<stop offset="0.92" stop-color="#A5DE03"/>
</linearGradient>
<clipPath id="clip0_773_4321">
<rect width="192.216" height="40" fill="white"/>
</clipPath>
</defs>
</svg>
